<?xml version="1.0" encoding="utf-8"?>
<!-- Generator: Adobe Illustrator 21.1.0, SVG Export Plug-In . SVG Version: 6.00 Build 0)  -->
<svg version="1.1" id="Layer_1" xmlns="http://www.w3.org/2000/svg" xmlns:xlink="http://www.w3.org/1999/xlink" x="0px" y="0px"
	 viewBox="0 0 128 128" style="enable-background:new 0 0 128 128;" xml:space="preserve">
<g>
	<path d="M62.6,92.4c1.1,1.4,2.2,2.8,3.4,4.2c-0.9,3.3-0.2,6.4,2.2,8.8c1.8,1.8,4,2.8,6.4,2.8c0.9,0,1.8-0.1,2.7-0.4
		c4.7-1.3,7.4-6.1,6.3-10.9c-1.1-4.5-5.5-7.4-10.1-6.8c-1.5-1.7-3-3.5-4.4-5.2l-0.3-0.3c6.2-9.1,5.2-21.1-2.3-28.8l4.9-4
		c5.1-4.2,10.3-8.3,15.5-12.5c3,1.1,6.4,0.7,9.1-1.1c2.8-1.9,4.4-5,4.3-8.4c-0.1-4.1-2.1-7.1-5.7-8.9c-3.6-1.7-7.3-1.3-10.5,1.2
		c-3.1,2.4-4.3,5.7-3.6,9.6c-1.4,1.2-2.8,2.3-4.2,3.5l-6.2,5.3c-3.9,3.4-7.9,6.7-11.8,10.1c-0.8-0.3-1.8-0.6-2.9-0.9
		c0.1-2.9,0.1-5.7,0-8c3.8-2.4,5.2-7.1,3.3-11.2c-1.9-4.1-6.7-6.2-11-4.6c-3.4,1.2-5.5,3.9-5.9,7.4c-0.4,3.3,0.9,6.2,3.8,8.3
		c0,2.5,0,4.9,0,7.4l0,0.5c-6.4,1.4-11.3,5-14.6,10.6c-3.7,6.3-4.2,12.9-1.5,19.8c2.4,6.2,7.6,11,14.1,13c6,1.9,12.4,1.2,17.9-1.8
		L62.6,92.4z M44.8,89.1c-5.4-1.7-9.6-5.6-11.6-10.7c-2.2-5.7-1.8-11.2,1.2-16.3c3-5,7.5-8,13.5-9c1-0.2,1.7-1,1.7-2l0-2.2
		c0-2.7,0-5.4,0-8.1c0-1.2-0.8-2-1.5-2.5c-1.7-1.2-2.5-2.8-2.3-4.7c0.2-2.1,1.3-3.4,3.3-4.1c2.3-0.8,5,0.3,6,2.5
		c1.1,2.3,0.2,5-1.9,6.3c-1.2,0.7-1.8,1.7-1.7,3.1c0,2.4,0,5.5,0,8.7c0,0.5,0,1.3,0,1.3c0,0.9,0.7,1.7,1.6,1.9c0,0,0.7,0.1,1.1,0.2
		c1.1,0.2,2.3,0.6,3.2,0.9c0.2,0.1,0.4,0.2,0.4,0.2c0.7,0.4,1.6,0.3,2.3-0.2l0.6-0.5c4-3.4,8.1-6.9,12.1-10.3l6.2-5.3
		c1.5-1.3,3-2.5,4.5-3.8c0.4-0.3,1.5-1.3,1.1-3.1c-0.6-2.6,0.1-4.6,2.1-6.1c2-1.6,4-1.8,6.3-0.7c2.2,1.1,3.4,2.8,3.4,5.4
		c0.1,2-0.9,3.8-2.6,5c-1.7,1.2-3.8,1.4-5.7,0.6c-1.2-0.5-2.4-0.4-3.4,0.5c-5.2,4.3-10.5,8.5-15.7,12.7l-5.9,4.7
		c-0.2,0.2-0.4,0.4-0.7,0.6L62,54.2c-0.4,0.4-0.7,0.9-0.7,1.5c0,0.6,0.3,1.1,0.7,1.5c7.8,6.5,8.9,18.1,2.5,26.2
		c-0.6,0.7-0.6,1.8,0,2.5l1.3,1.6c1.6,1.9,3.3,3.9,5,5.8c0.7,0.8,2,1,2.8,0.8c2.7-0.5,5.2,1.2,5.9,3.8c0.7,2.7-0.9,5.3-3.5,6.1
		c-2,0.6-3.7,0.1-5.1-1.3c-1.4-1.4-1.8-3.1-1.1-5.1c0.1-0.4,0.6-1.8-0.6-3.2c-1.2-1.4-2.4-2.9-3.6-4.4l-1.5-1.9
		c-0.2-0.2-0.4-0.4-0.6-0.6l-0.2-0.2c-0.4-0.4-0.9-0.7-1.5-0.7c-0.4,0-0.8,0.1-1.1,0.3C55.9,90,50.2,90.9,44.8,89.1z"/>
	<path d="M64,0C28.7,0,0,28.7,0,64s28.7,64,64,64s64-28.7,64-64S99.3,0,64,0z M64,123C31.5,123,5,96.5,5,64S31.5,5,64,5
		s59,26.5,59,59S96.5,123,64,123z"/>
	<path d="M36.7,24.5c10.5-7.3,23.3-10,35.9-7.8c1.1,0.2,2.1-0.5,2.3-1.6s-0.5-2.1-1.6-2.3c-13.7-2.5-27.5,0.5-38.9,8.4
		S15.3,41,12.8,54.7c-0.2,1.1,0.5,2.1,1.6,2.3c0.1,0,0.2,0,0.4,0c0.9,0,1.8-0.7,2-1.6C19.1,42.8,26.1,31.8,36.7,24.5z"/>
	<path d="M113.5,71c-1.1-0.2-2.1,0.5-2.3,1.6c-2.3,12.6-9.4,23.6-19.9,30.9c-10.5,7.3-23.3,10-35.9,7.8c-1.1-0.2-2.1,0.5-2.3,1.6
		s0.5,2.1,1.6,2.3c3.1,0.6,6.3,0.9,9.4,0.9c10.5,0,20.7-3.2,29.5-9.3c11.4-7.9,19.1-19.8,21.6-33.4C115.4,72.2,114.6,71.2,113.5,71z
		"/>
</g>
</svg>
