<?xml version="1.0" encoding="utf-8"?>
<!-- Generator: Adobe Illustrator 21.1.0, SVG Export Plug-In . SVG Version: 6.00 Build 0)  -->
<svg version="1.1" id="Layer_1" xmlns="http://www.w3.org/2000/svg" xmlns:xlink="http://www.w3.org/1999/xlink" x="0px" y="0px"
	 viewBox="0 0 128 128" style="enable-background:new 0 0 128 128;" xml:space="preserve">
<g>
	<path d="M95.8,92.3C95.8,92.3,95.8,92.3,95.8,92.3c0.3-0.2,0.5-0.4,0.6-0.7c0.1-0.1,0.1-0.3,0.2-0.4c0,0,0,0,0,0
		c0.1-0.3,0.1-0.5,0-0.8c0,0,0,0,0,0c0,0,0-0.1,0-0.1L86.8,45c0-0.2-0.1-0.3-0.2-0.5c0,0,0,0,0,0c0,0,0-0.1,0-0.1c0,0,0,0,0,0
		c0,0,0,0,0,0c0,0,0,0,0,0c0-0.1-0.1-0.2-0.1-0.2l-20.5-28c-0.4-0.5-1-0.8-1.6-0.8c0,0,0,0,0,0c-0.6,0-1.2,0.3-1.6,0.8l-20.5,28
		c-0.1,0.1-0.1,0.2-0.2,0.2c0,0,0,0,0,0l0,0c0,0,0,0,0,0c0,0,0,0,0,0c0,0,0,0.1,0,0.1c0,0,0,0,0,0c0,0,0,0,0,0
		c-0.1,0.2-0.1,0.3-0.2,0.5l-9.9,45.2c0,0,0,0.1,0,0.1c0,0,0,0,0,0c0,0.3,0,0.6,0,0.8c0,0.1,0.1,0.3,0.1,0.4c0,0,0,0,0,0
		c0,0,0,0,0,0c0.2,0.3,0.4,0.6,0.7,0.8c0,0,0,0,0,0c0,0,0,0,0,0c0,0,0,0,0.1,0l30.4,19c0.3,0.2,0.7,0.3,1.1,0.3c0,0,0,0,0,0
		c0.4,0,0.7-0.1,1.1-0.3L95.8,92.3C95.8,92.4,95.8,92.4,95.8,92.3z M89.9,78.2L81.3,63l3.1-9.8L89.9,78.2z M66.3,23.6l16.3,22.2
		l-4,12.5L66.3,36.5V23.6z M64.3,41.1L77,63.4l-8,25.3h-9.2l-8-25.3L64.3,41.1z M62.3,23.6v13L50,58.2l-4-12.5L62.3,23.6z
		 M44.2,53.1l3.1,9.8l-8.6,15.2L44.2,53.1z M49,68.2l6.5,20.5H37.3L49,68.2z M40.9,92.7h15.9l4,12.5L40.9,92.7z M64.3,103.2L61,92.7
		h6.7L64.3,103.2z M67.9,105.1l4-12.5h15.9L67.9,105.1z M73.1,88.7l6.5-20.5l11.6,20.5H73.1z"/>
	<path d="M64,0C28.7,0,0,28.7,0,64s28.7,64,64,64s64-28.7,64-64S99.3,0,64,0z M64,123C31.5,123,5,96.5,5,64S31.5,5,64,5
		s59,26.5,59,59S96.5,123,64,123z"/>
	<path d="M50.6,15.8c-0.3-1.1-1.5-1.6-2.5-1.3c-13.2,4.3-24,13.4-30.3,25.8c-6.3,12.4-7.5,26.4-3.2,39.7c0.3,0.8,1.1,1.4,1.9,1.4
		c0.2,0,0.4,0,0.6-0.1c1.1-0.3,1.6-1.5,1.3-2.5c-3.9-12.2-2.9-25.2,3-36.6c5.9-11.4,15.8-19.9,28-23.8C50.3,18,50.9,16.8,50.6,15.8z
		"/>
	<path d="M113.5,48.1c-0.3-1.1-1.5-1.6-2.5-1.3c-1.1,0.3-1.6,1.5-1.3,2.5c3.9,12.2,2.9,25.2-3,36.6c-5.9,11.4-15.8,19.9-28,23.8
		c-1.1,0.3-1.6,1.5-1.3,2.5c0.3,0.8,1.1,1.4,1.9,1.4c0.2,0,0.4,0,0.6-0.1c13.2-4.3,24-13.4,30.3-25.8
		C116.6,75.4,117.8,61.3,113.5,48.1z"/>
</g>
</svg>
