<?xml version="1.0" encoding="utf-8"?>
<!-- Generator: Adobe Illustrator 21.1.0, SVG Export Plug-In . SVG Version: 6.00 Build 0)  -->
<svg version="1.1" id="Layer_1" xmlns="http://www.w3.org/2000/svg" xmlns:xlink="http://www.w3.org/1999/xlink" x="0px" y="0px"
	 viewBox="0 0 128 128" style="enable-background:new 0 0 128 128;" xml:space="preserve">
<style type="text/css">
	.st0{fill:none;}
	.st1{fill:#FFFFFF;}
</style>
<path d="M64,5c32.5,0,59,26.5,59,59s-26.5,59-59,59S5,96.5,5,64S31.5,5,64,5 M64,0C28.7,0,0,28.7,0,64s28.7,64,64,64
	c35.3,0,64-28.7,64-64S99.3,0,64,0L64,0z"/>
<path d="M16.4,81.3c-0.8,0-1.6-0.5-1.9-1.4c-4.3-13.2-3.1-27.3,3.2-39.7c6.3-12.4,17.1-21.5,30.3-25.8c1.1-0.3,2.2,0.2,2.5,1.3
	c0.3,1.1-0.2,2.2-1.3,2.5c-12.2,3.9-22.1,12.4-28,23.8c-5.9,11.4-6.9,24.4-3,36.6c0.3,1.1-0.2,2.2-1.3,2.5
	C16.8,81.3,16.6,81.3,16.4,81.3z"/>
<path d="M79.3,113.6c-0.8,0-1.6-0.5-1.9-1.4c-0.3-1.1,0.2-2.2,1.3-2.5c12.2-3.9,22.1-12.4,28-23.8c5.9-11.4,6.9-24.4,3-36.6
	c-0.3-1.1,0.2-2.2,1.3-2.5c1.1-0.3,2.2,0.2,2.5,1.3c4.3,13.2,3.1,27.3-3.2,39.7c-6.3,12.4-17.1,21.5-30.3,25.8
	C79.7,113.6,79.5,113.6,79.3,113.6z"/>
<g>
	<path d="M105.7,46.7c-0.9-3.7-3-6.8-6.3-9.2c-3.7-2.7-8.1-4.3-13.9-4.9c-0.1,0-0.3,0-0.4,0c-1.5,0-2.8,0.8-3.5,2.1
		c-0.8,1.5-0.6,3.2,0.5,4.5c0.7,0.8,1.5,1.2,1.8,1.4c2.8,1.4,4.7,2.7,6.2,4.3c2.4,2.5,2.5,4.5,0.5,7.2c-1.4,1.9-3.3,3.4-5.8,4.5
		c-3.7,1.7-7.7,2.6-11.9,3.6c-0.6,0.1-1.2,0.3-1.9,0.4c-3.1,0.7-5.9,1.6-8.6,2.5c-0.4-1-1.3-1.8-2.4-2.2c0,0-0.6-0.2-1-0.3
		c-1.3-0.4-2.7-0.7-4-1.1c-3-0.8-5.9-1.5-8.7-2.5c-3.4-1.1-6-3.1-7.7-5.9c-1.4-2.3-0.9-3.6-0.1-4.8c0.7-1,1.4-1.8,2.1-2.3
		c1.6-1.2,4.9-3.4,6.1-4.1c1.3-0.8,2-2.3,1.8-3.8c-0.2-1.5-1.2-2.8-2.7-3.3c-0.4-0.2-0.9-0.2-1.4-0.2c-0.2,0-0.4,0-0.6,0
		c-4.1,0.6-9.4,1.7-14,5.5c-5,4.1-7,9.6-5.8,16c0.9,5.1,4.6,8.3,7.2,10.2c4.8,3.5,10.1,5.5,15.4,7.1c-0.9,0.7-1.9,1.4-2.8,2.1
		c-0.6,0.5-1.2,0.9-1.8,1.4c-1,0.7-1.5,1.9-1.6,3.1c0,1.2,0.5,2.4,1.5,3.2c9.3,7.6,15.6,17.2,19.1,29.3c0.5,1.7,2.1,2.9,3.8,2.9
		c0,0,0,0,0,0c1.8,0,3.4-1.2,3.8-2.9c3.5-12.1,9.7-21.8,19.1-29.4c1-0.8,1.5-1.9,1.5-3.2c0-1.2-0.6-2.4-1.6-3.1l-1.8-1.4
		c-0.9-0.7-1.8-1.4-2.7-2c2.4-0.7,4.8-1.5,7.2-2.5c3.8-1.6,8.2-3.8,11.7-7.6C105.8,57.2,107,52.2,105.7,46.7z M33.4,60.9
		c-2.7-2-5-4.3-5.6-7.7c-0.2-1.2-0.3-2.4-0.2-3.5c0.1-1.7,0.6-3.3,1.3-4.7s1.9-2.8,3.3-3.9c0.6-0.5,1.2-0.9,1.9-1.3
		c0.4-0.3,0.9-0.5,1.3-0.7c2.7-1.4,5.7-2.1,8.8-2.5c0,0,0,0,0,0c0,0,0.1,0,0.1,0c0,0,0,0,0.1,0c0,0,0,0,0,0c0,0,0,0,0,0
		s-0.3,0.2-0.7,0.5c-0.2,0.1-0.5,0.3-0.8,0.5c-0.3,0.2-0.6,0.4-0.9,0.6s-0.7,0.5-1,0.7c-1.1,0.7-2.1,1.5-2.9,2.1
		c-0.4,0.3-0.8,0.7-1.2,1.1c-0.6,0.7-1.2,1.4-1.7,2.2c-0.7,1.1-1.2,2.3-1.3,3.4c-0.2,1.1,0,2.3,0.3,3.4c0.2,0.8,0.6,1.5,1.1,2.3
		c1.1,1.8,2.4,3.3,3.9,4.5c0.5,0.4,1,0.8,1.6,1.1c0.9,0.6,1.8,1,2.8,1.5c0.5,0.2,1,0.4,1.5,0.6c2.4,0.8,4.8,1.5,7.2,2.1
		c0.8,0.2,1.6,0.4,2.4,0.6c1.1,0.3,2.2,0.6,3.2,0.9c0,0,0.1,0,0.2,0c0.1,0,0.2,0,0.2,0.1c-2.7,1.1-5.2,2.4-7.5,3.8c0,0,0,0,0,0
		c0,0,0,0,0,0C44.6,66.7,38.6,64.7,33.4,60.9z M102.1,52.5c-0.1,0.8-0.3,1.6-0.6,2.4c-0.3,0.7-0.6,1.3-1.1,1.9
		c-0.4,0.6-0.8,1.1-1.3,1.6c-2.9,3.1-6.6,5-10.4,6.6c-2.6,1.1-5.2,2-7.9,2.7s-5.4,1.4-8.2,2c-1.4,0.3-2.7,0.6-4,1
		c-3.7,1-7.2,2.4-10.6,4.2c-0.7,0.4-1.3,0.7-1.9,1.1c-0.5,0.3-0.9,0.6-1.4,0.9c-0.5,0.3-0.9,0.7-1.4,1l0,0c0.3,0.3,0.6,0.7,0.9,1
		c4.7,4.9,7.7,10.8,10.5,16.8c0.8-1.6,1.5-3.2,2.4-4.8c0.4-0.9,0.9-1.7,1.4-2.6c0,0,0,0,0,0c0.7-1.3,1.5-2.5,2.3-3.7l0,0
		c0.4-0.5,0.7-1.1,1.1-1.6c0-0.1,0.1-0.1,0.1-0.2c1.3-1.8,2.7-3.4,4.3-5c-1-0.6-2-1.3-3-1.9c-1-0.6-2-1.3-3.1-1.9c0,0,0,0,0,0
		c1-0.2,2-0.4,2.9-0.7c0.2,0,0.3-0.1,0.5-0.1c0.9-0.2,1.8-0.4,2.7-0.7c0,0,0,0,0,0c0.2-0.1,0.4-0.1,0.7-0.1c0,0,0.1,0,0.1,0
		c0,0,0.1,0,0.1,0c0.2,0,0.3,0,0.5,0.1c0,0,0.1,0,0.1,0c0.2,0,0.3,0.1,0.5,0.2c0,0,0.1,0,0.1,0.1c0.2,0.1,0.4,0.2,0.5,0.3
		c0.5,0.4,1,0.8,1.5,1.2c1.5,1.2,3.1,2.3,4.7,3.6l0,0c-6.2,5-11,10.8-14.7,17.3c-0.5,0.9-1,1.9-1.5,2.9c-0.8,1.6-1.5,3.2-2.1,4.8
		c-0.8,2-1.5,4.1-2.1,6.3c-1.2-4.1-2.7-8-4.5-11.7c-0.6-1.2-1.3-2.4-2-3.6c-1.6-2.7-3.4-5.2-5.4-7.6c-1.5-1.8-3.1-3.5-4.9-5.2
		c-1.2-1.1-2.4-2.2-3.7-3.2l0,0c1.4-1.1,2.8-2.3,4.3-3.4c0.5-0.4,1-0.7,1.5-1.1c0.6-0.4,1.3-0.8,1.9-1.2c0,0,0,0,0,0
		c1-0.6,2.1-1.3,3.2-1.8c0.9-0.5,1.8-0.9,2.6-1.3c3.6-1.6,7.3-2.9,11.1-4c1-0.3,1.9-0.5,2.9-0.7c1.9-0.4,3.7-0.8,5.6-1.3
		c2.5-0.6,4.9-1.3,7.3-2.3c0.6-0.2,1.2-0.5,1.8-0.8c0.2-0.1,0.4-0.2,0.5-0.3c0.4-0.2,0.8-0.4,1.2-0.6c0.3-0.2,0.7-0.4,1-0.6
		c0.5-0.3,1-0.7,1.5-1c0.6-0.4,1.1-0.9,1.6-1.4c0.5-0.6,1.1-1.2,1.5-1.8c0.6-0.8,1.1-1.6,1.4-2.4c0.1-0.3,0.2-0.5,0.3-0.8
		c0.3-0.8,0.4-1.6,0.5-2.4c0.1-2.3-0.9-4.6-3-6.8c-0.7-0.7-1.4-1.3-2.1-1.8c-0.8-0.6-1.6-1.2-2.5-1.7c-0.9-0.5-1.7-1-2.7-1.5
		c-0.1,0-0.1-0.1-0.2-0.1c-0.2-0.1-0.3-0.2-0.4-0.3c0,0,0,0,0,0c1.1,0.1,2.1,0.3,3.2,0.5c0.5,0.1,1,0.2,1.5,0.4c1,0.3,2,0.6,3,1
		c0.7,0.3,1.3,0.6,2,1c0.8,0.4,1.5,0.9,2.2,1.4c0.3,0.2,0.6,0.5,0.9,0.7c0.3,0.2,0.5,0.5,0.8,0.7c0,0,0,0,0,0
		c1.2,1.3,2.2,2.7,2.8,4.5c0,0,0,0.1,0,0.1c0.1,0.3,0.2,0.6,0.3,1c0.3,1,0.4,2,0.4,3C102.2,51.3,102.2,51.9,102.1,52.5z M69.4,79.2
		L69.4,79.2c-0.2,0.4-0.5,0.8-0.7,1.2c-0.4,0.7-0.9,1.4-1.3,2.1c0,0,0,0,0,0c-0.8,1.2-1.6,2.5-2.3,3.7c0,0,0,0.1-0.1,0.1
		c-1.5-2.3-3.1-4.6-4.7-7c0,0,0,0,0,0c0.6-0.2,1.1-0.5,1.7-0.7c0.4-0.2,0.9-0.4,1.3-0.6c0.5-0.2,1-0.4,1.5-0.6
		c0.1,0,0.2-0.1,0.4-0.1c0,0,0,0,0,0c0.1,0,0.3,0,0.4,0.1C66.8,78.1,68.1,78.7,69.4,79.2z"/>
	<g>
		<path class="st0" d="M56.1,42.7c-0.3-0.1-0.5-0.3-0.8-0.4C55.6,42.4,55.8,42.5,56.1,42.7z"/>
		<path class="st0" d="M54.2,42c-0.3-0.1-0.6-0.1-0.9-0.1C53.7,41.9,54,41.9,54.2,42z"/>
		<path class="st0" d="M52.6,41.4c0.2-0.1,0.4-0.2,0.6-0.3C53,41.2,52.8,41.3,52.6,41.4z"/>
		<path class="st0" d="M57,43.2c-0.3-0.2-0.5-0.3-0.8-0.5C56.4,42.8,56.7,43,57,43.2z"/>
		<path class="st0" d="M53.6,41c0.2-0.1,0.4-0.1,0.6-0.1C54,40.9,53.8,41,53.6,41z"/>
		<path class="st0" d="M55.2,42.3c-0.3-0.1-0.5-0.2-0.8-0.2C54.6,42.1,54.9,42.1,55.2,42.3z"/>
		<path class="st0" d="M56.6,48.3c-1.1,1-1.8,2.1-1.7,3.1C54.8,50.5,55.5,49.3,56.6,48.3z"/>
		<path class="st0" d="M56.3,41c-0.3-0.1-0.6-0.1-0.8-0.1c-0.2,0-0.4,0-0.5,0c-0.1,0-0.2,0-0.3,0c0.3,0,0.5,0,0.8,0
			C55.7,40.9,56,41,56.3,41z"/>
		<path class="st0" d="M58.2,47.2c-0.1,0-0.1,0.1-0.2,0.1C58.1,47.3,58.1,47.2,58.2,47.2L58.2,47.2z"/>
		<path class="st0" d="M57,48c0.3-0.2,0.6-0.5,1-0.7C57.7,47.5,57.3,47.7,57,48z"/>
		<path class="st0" d="M57.9,33.4c-0.3-0.1-0.6-0.3-0.9-0.4c0,0-0.1,0-0.1,0c0,0,0.1,0,0.1,0C57.3,33.2,57.6,33.3,57.9,33.4z"/>
		<path class="st0" d="M73.8,37.1c0.4-0.6,0.8-1.2,1.1-2c0-0.1,0.1-0.2,0.1-0.4c0,0.1,0,0.3-0.1,0.4C74.6,36,74.2,36.6,73.8,37.1z"
			/>
		<path class="st0" d="M70.3,37.3C70.3,37.3,70.3,37.3,70.3,37.3c0.6-0.1,1.1-0.3,1.6-0.5C71.4,37,70.9,37.2,70.3,37.3z"/>
		<path class="st0" d="M74.5,35c-0.4,0.5-0.8,0.8-1.3,1.1C73.7,35.9,74.1,35.5,74.5,35z"/>
		<path class="st0" d="M51.3,42.1c0.3-0.2,0.6-0.4,0.9-0.6C52,41.7,51.7,41.9,51.3,42.1z"/>
		<path class="st0" d="M75,34.4c-0.1,0.2-0.3,0.4-0.5,0.6C74.7,34.8,74.8,34.6,75,34.4C75,34.4,75,34.4,75,34.4z"/>
		<path class="st0" d="M56.5,33c0,0-0.1,0-0.1,0c0,0,0,0,0,0C56.4,33,56.4,33,56.5,33z"/>
		<path class="st0" d="M59,36.9c-0.2-1-0.6-1.8-1.2-2.6C58.4,35.1,58.8,36,59,36.9z"/>
		<path class="st0" d="M51.3,42.1c0.7-0.1,1.2-0.2,1.8-0.3C52.6,41.9,52.1,42,51.3,42.1C51.3,42.1,51.3,42.1,51.3,42.1z"/>
		<path class="st0" d="M59.4,48.7c-1.4,0.3-2.7,0.8-3.6,1.8C56.8,49.5,58,49,59.4,48.7C59.4,48.7,59.4,48.7,59.4,48.7z"/>
		<path class="st0" d="M76.5,44.1c-0.1,0-0.2,0-0.2,0C76.3,44.1,76.4,44.1,76.5,44.1z"/>
		<path class="st0" d="M74.9,43.8c0,0,0.1,0,0.1,0C75,43.9,74.9,43.9,74.9,43.8z"/>
		<path class="st0" d="M74.1,43.5c0.1,0,0.1,0.1,0.2,0.1C74.2,43.6,74.1,43.5,74.1,43.5z"/>
		<path class="st0" d="M75.6,44c0.1,0,0.2,0,0.2,0C75.7,44,75.6,44,75.6,44z"/>
		<path class="st0" d="M73.4,43.2c0.1,0,0.1,0.1,0.2,0.1C73.6,43.2,73.5,43.2,73.4,43.2z"/>
		<path class="st0" d="M74.5,45.1C74.5,45.1,74.5,45.1,74.5,45.1c0.4,0,0.8,0,1.2-0.1c0.1,0,0.2,0,0.3-0.1c-0.1,0-0.2,0.1-0.3,0.1
			C75.3,45.1,74.9,45.1,74.5,45.1z"/>
		<path class="st0" d="M78,43.9C78,43.9,78,43.9,78,43.9c0,0.1,0,0.2,0.1,0.3h0C78.1,44.1,78,44,78,43.9C78,43.9,78,43.9,78,43.9z"
			/>
		<path class="st0" d="M77,44.1c0.1,0,0.2,0,0.3,0C77.2,44.1,77.1,44.1,77,44.1z"/>
		<path class="st0" d="M72.8,42.8L72.8,42.8c0.1,0,0.1,0.1,0.2,0.1C72.9,42.9,72.9,42.8,72.8,42.8z"/>
		<path class="st0" d="M62.8,52.8C62.8,52.8,62.8,52.8,62.8,52.8c0,1.5,0.5,2.8,1.3,3.5c0,0,0,0,0,0C63.3,55.5,62.8,54.3,62.8,52.8z
			"/>
		<path class="st0" d="M72.6,44.8c0.2,0,0.3,0.1,0.5,0.1C72.9,44.9,72.8,44.9,72.6,44.8C72.6,44.8,72.6,44.8,72.6,44.8z"/>
		<path class="st0" d="M73.3,52.7C73.3,52.7,73.3,52.8,73.3,52.7C73.3,52.8,73.3,52.7,73.3,52.7c-1.5-1-2.2-2.4-2.6-4.2
			c0,0,0-0.1,0-0.1v0c0,0,0,0.1,0,0.1C71,50.3,71.7,51.8,73.3,52.7z"/>
		<path class="st0" d="M63.1,50.7c-0.1,0.2-0.1,0.4-0.1,0.6C63,51.1,63,50.9,63.1,50.7L63.1,50.7z"/>
		<path class="st0" d="M63.8,54.6c0-0.1,0-0.2,0-0.4C63.8,54.4,63.8,54.5,63.8,54.6z"/>
		<path class="st0" d="M74.4,45.1c-0.3,0-0.7,0-1-0.1C73.7,45.1,74.1,45.1,74.4,45.1z"/>
		<path class="st0" d="M73.1,53c0.1,0,0.3,0.1,0.4,0.1c0,0,0,0,0,0C73.4,53.1,73.3,53.1,73.1,53z"/>
		<path class="st1" d="M64.7,35.2c0.1,0,0.1,0,0.2,0c0,0,0,0,0,0c0.6,0,1.3,0.1,1.9,0.2c0,0,0,0,0,0c0.2-0.5,0.3-1,0.3-1.5
			c0-0.2,0-0.4,0-0.7c0-0.4-0.1-0.9-0.2-1.4c-0.2-0.8-0.4-1.6-1.1-2.1c0.5,1.5,0.2,2.9-0.4,4.2C65.2,34.4,64.9,34.8,64.7,35.2
			C64.7,35.2,64.7,35.2,64.7,35.2z"/>
		<path class="st1" d="M73.2,36.2c-0.4,0.3-0.8,0.5-1.3,0.7c-0.5,0.2-1,0.4-1.6,0.5c0.5,0.5,0.9,1,1.3,1.6c0.8-0.4,1.6-1,2.1-1.7
			c0.4-0.6,0.8-1.2,1.1-2c0-0.1,0.1-0.2,0.1-0.4c0-0.1,0-0.3,0-0.4c-0.1,0.2-0.3,0.4-0.5,0.6C74.1,35.5,73.7,35.9,73.2,36.2z"/>
		<path class="st1" d="M73.3,52.8C73.3,52.8,73.3,52.7,73.3,52.8c-1.6-1-2.3-2.5-2.6-4.2c0,0,0-0.1,0-0.1c-0.1,0.1-0.1,0.1-0.1,0.2
			c-0.4,0.4-0.9,0.8-1.4,1.1c0.5,0.8,1,1.6,1.8,2.2c0.6,0.5,1.4,0.9,2.2,1.1c0.1,0,0.3,0.1,0.4,0.1C73.4,52.9,73.4,52.8,73.3,52.8z"
			/>
		<path class="st1" d="M53.4,41.9c0.3,0,0.6,0,0.9,0.1c0,0,0.1,0,0.1,0c0.3,0.1,0.6,0.1,0.8,0.2c0,0,0.1,0,0.1,0
			c0.3,0.1,0.5,0.2,0.8,0.4c0,0,0,0,0.1,0c0.3,0.1,0.5,0.3,0.8,0.5c0,0,0,0,0,0c0,0,0,0,0,0c0,0,0-0.1,0-0.1c0-0.6,0.1-1.2,0.2-1.8
			c-0.3-0.1-0.6-0.2-0.9-0.2c-0.3-0.1-0.6-0.1-0.8-0.1c-0.3,0-0.6,0-0.8,0c-0.1,0-0.3,0-0.4,0c-0.2,0-0.4,0.1-0.6,0.1
			c-0.1,0-0.3,0.1-0.4,0.1c-0.2,0.1-0.4,0.2-0.6,0.3c-0.1,0-0.2,0.1-0.3,0.1c-0.3,0.2-0.6,0.4-0.9,0.6c0,0,0,0,0,0
			c0.7-0.1,1.2-0.2,1.8-0.3C53.2,41.9,53.2,41.9,53.4,41.9C53.3,41.9,53.3,41.9,53.4,41.9z"/>
		<path class="st1" d="M57.8,34.3c0.6,0.7,1,1.6,1.2,2.6c0,0.1,0.1,0.2,0.1,0.3c0,0.1,0.1,0.2,0.1,0.3c0,0,0,0,0.1-0.1
			c0.5-0.5,1-0.9,1.6-1.2c-0.7-1.2-1.6-2.2-2.9-2.9c-0.3-0.1-0.6-0.3-0.9-0.4c0,0-0.1,0-0.1,0c-0.2,0-0.3,0-0.5,0c0,0-0.1,0-0.1,0
			C56.9,33.4,57.4,33.8,57.8,34.3z"/>
		<path class="st1" d="M58.2,47.2c-0.1,0-0.1,0.1-0.2,0.1c-0.3,0.2-0.7,0.4-1,0.7c-0.1,0.1-0.3,0.2-0.4,0.4c-1.1,1-1.8,2.1-1.7,3.1
			c0,0.1,0,0.2,0,0.4c0.1-0.3,0.3-0.5,0.4-0.7s0.3-0.4,0.5-0.6c0.9-1,2.2-1.5,3.6-1.8C59,48.3,58.6,47.7,58.2,47.2z"/>
		<path class="st1" d="M78,43.9c-0.3,0.1-0.5,0.1-0.8,0.2c-0.1,0-0.2,0-0.3,0c-0.1,0-0.3,0-0.4,0c0,0-0.1,0-0.1,0
			c-0.1,0-0.2,0-0.2,0c-0.2,0-0.3,0-0.5-0.1c-0.1,0-0.2,0-0.2,0c-0.2,0-0.3-0.1-0.5-0.1c0,0-0.1,0-0.1,0c-0.2-0.1-0.4-0.2-0.6-0.2
			c-0.1,0-0.1-0.1-0.2-0.1c-0.2-0.1-0.3-0.1-0.4-0.2c-0.1,0-0.2-0.1-0.2-0.1c-0.1-0.1-0.3-0.2-0.4-0.2c-0.1,0-0.1-0.1-0.2-0.1
			c0,0.1,0,0.1,0,0.2c0,0.6-0.1,1.2-0.2,1.8c0.2,0,0.3,0.1,0.5,0.1c0.1,0,0.2,0,0.3,0.1c0.3,0.1,0.6,0.1,1,0.1c0,0,0.1,0,0.1,0
			c0.4,0,0.8,0,1.2-0.1c0.1,0,0.2,0,0.3-0.1c0.7-0.2,1.4-0.5,2-0.7C78.1,44.1,78,44,78,43.9C78,43.9,78,43.9,78,43.9z"/>
		<path d="M81,43.8l0-0.2l0-0.2c-0.1-0.9-0.6-1.6-1.4-2.1c-0.5-0.3-1-0.5-1.6-0.5c-0.3,0-0.6,0-0.8,0.1c-0.2,0.1-0.4,0.1-0.6,0.1
			c-0.6,0-1.2-0.3-1.9-0.7c1.4-1.1,2.4-2.5,3-4.3c0.2-0.5,0.2-0.9,0.2-1.1l0-0.1c0.2-1.4-0.6-2.8-1.9-3.3c-0.4-0.1-0.7-0.2-1.1-0.2
			c-1,0-2,0.5-2.5,1.4C72,33.5,71.3,34,70,34.3c0.1-1.1,0.1-2.1-0.2-3.1l0-0.1c-0.2-1-0.6-2.6-2.2-3.7c-0.5-0.4-1.2-0.6-1.8-0.6
			c-0.6,0-1.2,0.2-1.7,0.6c-1.1,0.8-1.5,2.1-1.1,3.4c0.2,0.7,0.2,1.3-0.6,2.6c-1.1-1.4-2.6-2.5-4.3-3C57.4,30,56.9,30,56.6,30
			l-0.1,0c-0.1,0-0.2,0-0.2,0c-1.3,0-2.4,0.8-2.8,2c-0.4,1.3,0.1,2.7,1.2,3.5c0.8,0.5,1.2,1.2,1.5,2.3c0,0,0,0.1,0,0.1
			c-0.1,0-0.3-0.1-0.4-0.1c-0.3,0-0.6,0-0.8,0c0,0,0,0,0,0c-1.8,0-3.6,0.6-5.3,1.9c-1.1,0.8-1.6,2.3-1,3.6c0.5,1.1,1.6,1.9,2.8,1.9
			c0.2,0,0.3,0,0.5,0c0.3,0,0.5-0.1,0.7-0.1c0.3-0.1,0.5-0.1,0.7-0.1l0.1,0c0.5,0,1.2,0.3,1.9,0.7c-2.3,1.8-3.8,4.3-3.2,6.9
			c0.3,1.2,1.3,2.2,2.6,2.3c0.1,0,0.2,0,0.3,0c1.1,0,2.2-0.7,2.7-1.7c0.3-0.6,0.8-1.1,2.2-1.4c0,0.4-0.1,0.7-0.1,1.1
			c0,2.3,0.8,4.3,2.2,5.7c0.6,0.6,1.3,0.9,2.1,0.9c0.5,0,0.9-0.1,1.4-0.3c1.1-0.6,1.8-1.8,1.6-3.1c-0.1-0.8-0.2-1.6-0.2-1.8
			c0.1-0.2,0.3-0.8,0.7-1.3c0.5,0.6,1,1.1,1.5,1.5c1.2,1,2.5,1.6,4,1.8c0.2,0,0.3,0,0.5,0c1,0,1.9-0.5,2.5-1.3c0.7-1,0.7-2.3,0-3.3
			c-0.2-0.3-0.5-0.9-1.2-1.3c-0.5-0.3-0.9-0.7-1.2-2.1c0.3,0,0.6,0.1,0.9,0.1c0.6,0,1.1,0,1.7-0.1c0.9-0.1,1.6-0.4,2.2-0.7
			c0.2-0.1,0.4-0.2,0.6-0.2C80.4,46.6,81.3,45.2,81,43.8z M71.9,36.8c0.5-0.2,0.9-0.4,1.3-0.7c0.5-0.3,0.9-0.7,1.3-1.1
			c0.2-0.2,0.3-0.4,0.5-0.6c0,0,0,0,0,0c0,0.1,0,0.3,0,0.4c0,0.1,0,0.3-0.1,0.4c-0.3,0.8-0.6,1.4-1.1,2c-0.6,0.7-1.3,1.3-2.1,1.7
			c-0.4-0.6-0.8-1.1-1.3-1.6c0,0,0,0,0,0C70.9,37.2,71.4,37,71.9,36.8z M64.7,35.2c0.3-0.4,0.5-0.8,0.7-1.3c0.6-1.3,0.9-2.6,0.4-4.2
			c0.7,0.5,0.9,1.4,1.1,2.1c0.1,0.5,0.2,0.9,0.2,1.4c0,0.2,0,0.4,0,0.7c0,0.5-0.2,1-0.3,1.5c0,0,0,0,0,0c-0.6-0.1-1.2-0.2-1.9-0.2
			c0,0,0,0,0,0C64.8,35.2,64.7,35.2,64.7,35.2C64.7,35.2,64.7,35.2,64.7,35.2z M55.2,42.3c-0.3-0.1-0.5-0.2-0.8-0.2c0,0-0.1,0-0.1,0
			c-0.3-0.1-0.6-0.1-0.9-0.1c0,0-0.1,0-0.1,0c-0.1,0-0.1,0-0.2,0c-0.5,0-1,0.2-1.8,0.3c0,0,0,0,0,0c0,0,0,0,0,0
			c0.3-0.2,0.6-0.4,0.9-0.6c0.1-0.1,0.2-0.1,0.3-0.1c0.2-0.1,0.4-0.2,0.6-0.3c0.1,0,0.3-0.1,0.4-0.1c0.2-0.1,0.4-0.1,0.6-0.1
			c0.1,0,0.3,0,0.4,0c0.1,0,0.2,0,0.3,0c0.2,0,0.4,0,0.5,0c0.3,0,0.6,0.1,0.8,0.1c0.3,0.1,0.6,0.2,0.9,0.2c-0.1,0.6-0.2,1.2-0.2,1.8
			c0,0,0,0.1,0,0.1c0,0,0,0,0,0c0,0,0,0,0,0c-0.3-0.2-0.5-0.3-0.8-0.5c0,0,0,0-0.1,0C55.8,42.5,55.6,42.4,55.2,42.3
			C55.2,42.3,55.2,42.3,55.2,42.3z M55.8,50.5c-0.2,0.2-0.3,0.4-0.5,0.6s-0.3,0.5-0.4,0.7c0-0.1,0-0.2,0-0.4c0-1,0.6-2.1,1.7-3.1
			c0.1-0.1,0.3-0.2,0.4-0.4c0.3-0.2,0.6-0.5,1-0.7c0.1,0,0.1-0.1,0.2-0.1c0.4,0.6,0.8,1.1,1.2,1.5c0,0,0,0,0,0
			C58,49,56.8,49.5,55.8,50.5z M59.2,37.5C59.2,37.5,59.2,37.6,59.2,37.5c-0.1-0.1-0.1-0.2-0.1-0.3c0-0.1-0.1-0.2-0.1-0.3
			c-0.2-1-0.6-1.8-1.2-2.6c-0.4-0.5-0.9-0.9-1.5-1.3c0,0,0,0,0,0c0,0,0.1,0,0.1,0c0.2,0,0.3,0,0.5,0c0,0,0.1,0,0.1,0
			c0.3,0.1,0.6,0.2,0.9,0.4c1.3,0.7,2.2,1.7,2.9,2.9C60.2,36.7,59.7,37,59.2,37.5z M63.8,54.3c0,0.1,0,0.2,0,0.4
			c0,0.5,0.1,1,0.2,1.7c0,0,0,0,0,0c-0.8-0.8-1.2-2-1.3-3.5c0,0,0,0,0,0c0-0.5,0.1-1,0.1-1.4c0-0.2,0.1-0.4,0.1-0.6h0
			c0.6,0.1,1.2,0.2,1.8,0.2c0.1,0,0.1,0,0.2,0C64.2,52.5,63.8,53.2,63.8,54.3z M68.4,46.5c-0.1,0.1-0.3,0.2-0.4,0.3
			c-0.1,0.1-0.2,0.2-0.3,0.3c-0.1,0.1-0.3,0.2-0.5,0.3c-0.1,0.1-0.2,0.1-0.4,0.2c-0.1,0-0.2,0.1-0.3,0.1c-0.2,0.1-0.4,0.1-0.6,0.2
			c-0.1,0-0.1,0-0.2,0c-0.3,0-0.5,0.1-0.8,0.1c-0.3,0-0.7,0-1-0.1c-0.9-0.2-1.8-0.7-2.5-1.3c0,0,0,0-0.1-0.1c-0.4-0.4-0.8-0.9-1-1.5
			c0-0.1,0-0.2-0.1-0.2c-0.2-0.5-0.3-1.1-0.3-1.6c0-1,0.3-2,0.8-2.7c0.9-1.3,2.3-2.1,4-2.1c0,0,0,0,0,0c0.2,0,0.3,0,0.5,0
			c0.2,0,0.3,0,0.5,0c0.2,0,0.3,0.1,0.5,0.1c0.2,0,0.3,0.1,0.5,0.1c0.2,0.1,0.3,0.1,0.4,0.2c0.1,0.1,0.3,0.1,0.4,0.2
			c0.1,0.1,0.3,0.2,0.4,0.3c0.1,0.1,0.2,0.2,0.3,0.3c0.1,0.1,0.2,0.3,0.3,0.4c0.1,0.1,0.2,0.2,0.3,0.3c0.1,0.2,0.2,0.3,0.3,0.5
			c0.1,0.1,0.1,0.2,0.2,0.3c0.1,0.2,0.1,0.4,0.2,0.6c0,0.1,0.1,0.2,0.1,0.3c0.1,0.3,0.1,0.6,0.1,0.9c0,0,0,0,0,0.1
			c0,0.7-0.1,1.3-0.4,1.9c0,0,0,0,0,0C69.2,45.5,68.8,46.1,68.4,46.5z M73.1,53c-0.9-0.2-1.6-0.6-2.2-1.1c-0.8-0.6-1.4-1.4-1.8-2.2
			c0.5-0.3,1-0.7,1.4-1.1c0.1-0.1,0.1-0.1,0.1-0.2v0c0,0,0,0.1,0,0.1c0.4,1.7,1.1,3.2,2.6,4.2c0,0,0,0,0,0c0.1,0.1,0.1,0.2,0.2,0.4
			c0,0,0,0,0,0C73.4,53.1,73.3,53.1,73.1,53z M78.1,44.3c-0.7,0.2-1.3,0.5-2,0.7c-0.1,0-0.2,0.1-0.3,0.1c-0.4,0.1-0.8,0.1-1.2,0.1
			c0,0,0,0,0,0c0,0-0.1,0-0.1,0c-0.3,0-0.7,0-1-0.1c-0.1,0-0.2,0-0.3-0.1c-0.2,0-0.3-0.1-0.5-0.1c0,0,0,0,0,0
			c0.1-0.6,0.2-1.2,0.2-1.8c0-0.1,0-0.1,0-0.2l0,0c0.1,0,0.1,0.1,0.2,0.1c0.1,0.1,0.3,0.2,0.4,0.2c0.1,0,0.1,0.1,0.2,0.1
			c0.1,0.1,0.3,0.2,0.4,0.2c0.1,0,0.1,0.1,0.2,0.1c0.2,0.1,0.4,0.2,0.6,0.2c0,0,0.1,0,0.1,0c0.2,0.1,0.3,0.1,0.5,0.1
			c0.1,0,0.2,0,0.2,0c0.2,0,0.3,0,0.5,0.1c0.1,0,0.2,0,0.2,0c0,0,0.1,0,0.1,0c0.1,0,0.2,0,0.4,0c0.1,0,0.2,0,0.3,0
			c0.2,0,0.5-0.1,0.8-0.2c0,0,0,0,0,0C78,44,78.1,44.1,78.1,44.3L78.1,44.3z"/>
		<path class="st1" d="M63.8,54.6c0-0.1,0-0.2,0-0.4c0-1.1,0.3-1.8,1.3-3.4c-0.1,0-0.1,0-0.2,0c-0.6,0-1.2-0.1-1.8-0.2
			c-0.1,0.2-0.1,0.4-0.1,0.6c-0.1,0.5-0.1,0.9-0.1,1.4c0,1.5,0.5,2.8,1.3,3.5C63.9,55.6,63.9,55.1,63.8,54.6z"/>
	</g>
</g>
</svg>
