<?xml version="1.0" encoding="utf-8"?>
<!-- Generator: Adobe Illustrator 21.1.0, SVG Export Plug-In . SVG Version: 6.00 Build 0)  -->
<svg version="1.1" id="Layer_1" xmlns="http://www.w3.org/2000/svg" xmlns:xlink="http://www.w3.org/1999/xlink" x="0px" y="0px"
	 viewBox="0 0 128 128" style="enable-background:new 0 0 128 128;" xml:space="preserve">
<g>
	<path d="M92.9,95l3.5-13.2c0.2-0.6,0-1.2-0.3-1.7c-0.4-0.5-1-0.8-1.6-0.8H62.7l3.4-12.9l9.3-3.4c0.6-0.2,1.1-0.7,1.2-1.4l2.6-9.6
		c0.1-0.4,0.1-0.8-0.1-1.2l-0.1-0.2c-0.4-1-1.5-1.6-2.6-1.2L70,51.8L76.3,28c0.2-0.6,0-1.2-0.3-1.7c-0.4-0.5-1-0.8-1.6-0.8H53.7
		c-0.9,0-1.7,0.6-1.9,1.5l-9.3,34.9l-7,2.6c-0.6,0.2-1.1,0.7-1.2,1.4l-2.6,9.9c-0.2,0.7,0,1.5,0.6,2c0.5,0.5,1.3,0.7,2,0.4l4.4-1.6
		L33.9,94c-0.2,0.6,0,1.2,0.3,1.7c0.4,0.5,1,0.8,1.6,0.8H91C91.9,96.5,92.7,95.9,92.9,95z M38.4,92.5l5-18.6c0.2-0.7,0-1.5-0.6-2
		c-0.5-0.5-1.3-0.7-2-0.4l-4.4,1.6l1.4-5.2l7-2.6c0.6-0.2,1.1-0.7,1.2-1.4l9.2-34.4h16.6l-6.6,25c-0.2,0.7,0,1.5,0.6,2
		c0.6,0.5,1.3,0.7,2,0.4l6.7-2.4l-1.4,5.2l-9.3,3.4c-0.6,0.2-1.1,0.7-1.2,1.4l-4.4,16.4c-0.2,0.6,0,1.2,0.3,1.7
		c0.4,0.5,1,0.8,1.6,0.8h31.8l-2.5,9.2H38.4z"/>
	<path d="M64,0C28.7,0,0,28.7,0,64s28.7,64,64,64s64-28.7,64-64S99.3,0,64,0z M64,123C31.5,123,5,96.5,5,64S31.5,5,64,5
		s59,26.5,59,59S96.5,123,64,123z"/>
	<path d="M66,14c0-1.1-0.9-2-2-2c-28.7,0-52,23.3-52,52c0,1.1,0.9,2,2,2s2-0.9,2-2c0-26.5,21.5-48,48-48C65.1,16,66,15.1,66,14z"/>
	<path d="M114,62c-1.1,0-2,0.9-2,2c0,26.5-21.5,48-48,48c-1.1,0-2,0.9-2,2s0.9,2,2,2c28.7,0,52-23.3,52-52C116,62.9,115.1,62,114,62
		z"/>
</g>
</svg>
