<?xml version="1.0" encoding="utf-8"?>
<!-- Generator: Adobe Illustrator 21.1.0, SVG Export Plug-In . SVG Version: 6.00 Build 0)  -->
<svg version="1.1" id="Layer_1" xmlns="http://www.w3.org/2000/svg" xmlns:xlink="http://www.w3.org/1999/xlink" x="0px" y="0px"
	 viewBox="0 0 128 128" style="enable-background:new 0 0 128 128;" xml:space="preserve">
<g>
	<path d="M49.4,70.8c2.1,0,4.2-0.5,6.2-1.4c5.5-2.7,8.2-7.3,8.4-13.4c0.3-7.1,3.7-12.3,10.1-15.4c0.5-0.2,1-0.4,1.7-0.7
		c-0.6-0.1-0.8-0.3-1.1-0.3c-1.7-0.2-3.4-0.5-5.1-0.6c-1.4-0.1-2.8-0.1-4.2-0.1c-4.2,0-8.4,0.4-12.6,1.3c-6.4,1.3-12.4,3.5-18,6.7
		c-0.6,0.3-0.8,0.7-0.7,1.4c0.3,2.9,0.4,5.8,0.8,8.7c0.2,1.8,0.5,3.8,1.2,5.4C38.4,67.6,43.8,70.8,49.4,70.8z M38.3,50.9
		c0-0.5-0.1-0.9-0.1-1.4c4.9-2.6,10.1-4.4,15.4-5.5c3.7-0.7,7.4-1.1,11.1-1.2c-2.9,3.5-4.5,7.9-4.7,13c-0.2,4.8-2.2,8-6.2,10
		c-1.4,0.7-2.9,1-4.5,1c-4.2,0-8-2.5-9.7-6.2c-0.5-1.2-0.7-2.8-0.9-4.3C38.6,54.6,38.5,52.8,38.3,50.9z"/>
	<path d="M64.3,100.6c0.4,0.2,0.7,0.4,1.1,0.4c0.3,0,0.6-0.1,0.9-0.4c2.8-2,5.7-4,8.4-6.1c1.1-0.8,2.2-1.7,2.9-2.9
		c2.2-3.5,2.9-7.4,1.9-11.5c-1.5-6.3-7.4-11-13.9-11c0,0-0.1,0-0.1,0c-2.7,0-5.2,0.7-7.6,2c-2.8,1.5-5.6,2.3-8.5,2.3
		c-1.9,0-3.8-0.3-5.7-1c-1.8-0.6-3.5-1.7-5.3-2.6c0.1,0.3,0.2,0.8,0.4,1.2c1.2,2.5,2.3,5,3.7,7.4C47.9,87.7,55.2,95,64.3,100.6z
		 M49.4,77.4c3.5,0,7-0.9,10.4-2.8c1.8-1,3.7-1.5,5.7-1.5l0.1,0c4.6,0,9,3.4,10.1,8c0.7,3,0.3,5.7-1.4,8.4c-0.4,0.6-1.4,1.4-2,1.8
		c-1.7,1.3-3.4,2.5-5.1,3.7c-0.7,0.5-1.3,0.9-2,1.4c-7.8-5-14.2-11.5-18.8-19.2C47.5,77.4,48.5,77.4,49.4,77.4z"/>
	<path d="M67,59.3c1,4.3,3.5,7.4,7.2,9.7c5.6,3.5,8.4,8.6,8.4,15.2c0,0.7-0.1,1.5-0.1,2.2c0.1,0,0.2,0.1,0.2,0.1
		c0.6-0.8,1.1-1.5,1.7-2.3c7.9-10.8,12-22.9,12.2-36.2c0-0.5-0.1-0.9-0.6-1.1c-3.2-1.4-6.2-3-9.5-4.3c-1.7-0.7-3.5-1-5.2-1
		c-2.4,0-4.7,0.6-7,1.8C68.7,46.3,65.6,53.1,67,59.3z M81.3,45.5c1.2,0,2.5,0.2,3.7,0.7c2,0.8,4,1.7,6.1,2.7c0.5,0.2,1,0.5,1.4,0.7
		c-0.4,9.4-2.9,18.2-7.4,26.2c-1.7-4.2-4.6-7.7-8.8-10.2c-3-1.8-4.7-4.1-5.4-7.2c-1-4.4,1.2-9.4,5.3-11.5
		C77.9,46,79.7,45.5,81.3,45.5z"/>
	<path d="M62.6,107.4c0.9,0.6,1.9,0.8,2.8,0.8c1,0,1.9-0.3,2.8-0.8c4.3-2.6,8.1-5.4,11.5-8.4c7.3-6.6,13.1-14.4,17.2-23.1
		c4.5-9.5,6.8-19.6,6.9-30c0-2.7-1.5-4.1-2.7-4.8c-10.9-6-22.9-9.2-35.5-9.4c0,0,0,0-0.1,0c-0.1,0-0.3,0-0.4,0
		c-1.1,0.1-2.1,0.2-3.2,0.3c-2.4,0.2-4.9,0.4-7.4,0.8c-8.5,1.2-16.7,4-24.6,8.4c-1.6,0.9-2.7,2.9-2.6,4.7l0,0.4
		c0.1,2.7,0.3,5.4,0.6,8.2c0.6,5.6,2.1,11.3,4.3,17C38.2,86.8,48.4,98.9,62.6,107.4z M31.7,54.1c-0.3-2.8-0.4-5.6-0.6-8.3
		c0-0.3,0.3-0.9,0.6-1c7.2-4.1,14.9-6.8,23.2-8c3.5-0.5,6.9-0.7,10.4-1c12,0.2,23.2,3.1,33.7,8.9c0.6,0.3,0.7,0.7,0.6,1.2
		c-0.1,9.9-2.3,19.4-6.5,28.3c-3.9,8.4-9.4,15.6-16.2,21.8c-3.3,3-7,5.6-10.8,8c-0.3,0.2-0.5,0.2-0.7,0.2c-0.2,0-0.5-0.1-0.8-0.3
		c-13.4-8.1-23-19.4-28.8-33.9C33.7,64.9,32.3,59.6,31.7,54.1z"/>
	<path d="M64,0C28.7,0,0,28.7,0,64s28.7,64,64,64s64-28.7,64-64S99.3,0,64,0z M64,123C31.5,123,5,96.5,5,64S31.5,5,64,5
		s59,26.5,59,59S96.5,123,64,123z"/>
	<path d="M78.4,18.2c1.1,0.3,2.2-0.3,2.5-1.3c0.3-1.1-0.3-2.2-1.3-2.5c-27.4-8.6-56.6,6.7-65.2,34c-0.3,1.1,0.3,2.2,1.3,2.5
		c0.2,0.1,0.4,0.1,0.6,0.1c0.9,0,1.6-0.5,1.9-1.4C26.1,24.4,53.1,10.3,78.4,18.2z"/>
	<path d="M112.3,77.1c-1.1-0.3-2.2,0.3-2.5,1.3c-7.9,25.3-34.9,39.3-60.2,31.4c-1.1-0.3-2.2,0.3-2.5,1.3s0.3,2.2,1.3,2.5
		c5.2,1.6,10.4,2.4,15.5,2.4c22.1,0,42.7-14.2,49.6-36.4C113.9,78.5,113.4,77.4,112.3,77.1z"/>
</g>
</svg>
