<?xml version="1.0" encoding="utf-8"?>
<!-- Generator: Adobe Illustrator 21.1.0, SVG Export Plug-In . SVG Version: 6.00 Build 0)  -->
<svg version="1.1" id="Layer_1" xmlns="http://www.w3.org/2000/svg" xmlns:xlink="http://www.w3.org/1999/xlink" x="0px" y="0px"
	 viewBox="0 0 128 128" style="enable-background:new 0 0 128 128;" xml:space="preserve">
<path d="M105.2,34c-0.7-1-1.7-1.6-2.9-1.7C101,32.1,100,32,99.1,32c0,0,0,0,0,0c-0.6,0-1.2,0.1-1.7,0.2c-0.5-0.3-1.1-0.4-1.7-0.4
	c0,0,0,0-0.1,0c-0.1,0-0.1,0-0.2,0c-0.3,0-0.7,0.1-1,0.2c-5.4,1.6-8.8,4.8-10.2,9.9c-2.7,9.9-5.5,19.9-8.2,29.6l-0.7,2.6
	c-0.4-1.1-0.9-2.2-1.3-3.3c-4.9-12.5-9.9-25.4-14.7-38.2c-1.2-3.3-3.7-5-7.4-5c-0.3,0-0.5,0-0.8,0c-0.2,0-0.4,0-0.5,0l-0.1,0
	c-0.5,0-1,0.1-1.5,0.2c-0.4-0.2-0.9-0.3-1.4-0.3c-0.4,0-0.8,0.1-1.1,0.2c-5.3,1.6-8.6,4.9-10,10.1c-1.1,3.9-2.2,7.8-3.2,11.7
	c-0.5,1.9-1.1,3.9-1.6,5.8l-6.9,25.1l-2.8,10.2c-0.3,1-0.1,2.1,0.4,3.1s1.4,1.6,2.4,1.9c1.9,0.5,3.2,0.9,4.5,0.9
	c0.6,0,1.2-0.1,1.7-0.2c0.4,0.1,0.8,0.2,1.3,0.2c0.4,0,0.8-0.1,1.1-0.2c5.3-1.6,8.7-4.9,10.1-9.9c1.8-6.4,3.5-12.8,5.3-19.3
	c1.2-4.3,2.4-8.7,3.6-13c0.6,1.5,1.2,3,1.8,4.5c4.7,11.9,9.6,24.3,14.3,36.5c2,5.2,6,5.4,8.4,5.6l0.1,0c0.2,0,0.3,0,0.5,0
	c0.6,0,1.4-0.1,2.2-0.3c0.2,0,0.4,0.1,0.6,0.1c0.4,0,0.8-0.1,1.2-0.2c5-1.5,8.1-4.6,9.5-9.3c2-7,4-14.2,6-21.5
	c2-7.4,4.1-14.8,6.1-22.3l2.6-9.7C106.1,36.1,105.9,34.9,105.2,34z M31.9,88.5c-0.1,0.3-0.2,0.6-0.2,0.9c0,0.1,0,0.2-0.1,0.2
	c-0.1,0.2-0.1,0.4-0.2,0.5c0,0.1,0,0.2-0.1,0.2c-0.1,0.2-0.1,0.3-0.2,0.5c0,0,0,0.1,0,0.1c-0.1,0.2-0.1,0.3-0.2,0.5
	c0,0,0,0.1-0.1,0.1c-0.1,0.1-0.1,0.2-0.2,0.3c0,0-0.1,0.1-0.1,0.1c-0.1,0.1-0.1,0.1-0.2,0.2c0,0-0.1,0-0.1,0.1
	c-0.1,0.1-0.2,0.1-0.4,0.1c0,0-0.1,0-0.1,0c-0.1,0-0.2,0-0.4,0c0,0-0.1,0-0.1,0c-0.1,0-0.3,0-0.5,0c0,0-0.1,0-0.1,0
	c-0.2,0-0.4-0.1-0.7-0.1c-0.1,0-0.1,0-0.2,0c-0.2-0.1-0.5-0.1-0.7-0.2c-0.1,0-0.2,0-0.2-0.1c-0.3-0.1-0.6-0.2-1-0.3h0
	c3.2-11.8,6.5-23.5,9.7-35.3c0.4-1.5,0.8-2.9,1.2-4.4c0.8-2.9,1.6-5.8,2.4-8.8c0.4-1.5,0.8-2.9,1.2-4.4c0.1-0.4,0.3-0.9,0.4-1.3
	c0.3-0.8,0.7-1.6,1.2-2.3c0.6-0.9,1.5-1.7,2.5-2.3c0.9-0.6,1.9-1.1,3.2-1.5c-0.8,3-1.5,5.6-2.2,8.1C41,55.9,36.5,72.2,31.9,88.5z
	 M78,89.9c-0.5,1.7-0.9,3.5-1.4,5.3c-0.1,0.4-0.1,0.8-0.1,1.3c0,0,0,0,0,0c-1.8-0.1-3.2-0.5-4.1-3c-6.1-16.1-12.6-32.2-18.9-48.2
	c-0.4-1-0.8-1.9-1.5-3.5c-0.2,0.6-0.4,1.2-0.6,1.8c-0.2,0.6-0.3,1.1-0.5,1.6c-0.3,1.1-0.6,2-0.9,3c-3.4,12.3-6.8,24.6-10.1,36.9
	c-0.6,2.3-1.8,4-3.5,5.3c-0.3,0.2-0.6,0.4-0.9,0.6c0.2-0.5,0.3-1,0.4-1.5c4-14.1,7.9-28.3,11.8-42.4l1.8-6.4c0.5-1.7,1-3.5,1.5-5.4
	l0.8-2.8c0.1-0.4,0.1-0.7,0.1-1.1c0.1,0,0.1,0,0.2,0c0.2,0,0.3,0,0.5,0c0,0,0.1,0,0.1,0c0.3,0,0.6,0.1,0.9,0.2c0,0,0.1,0,0.1,0
	c0.3,0.1,0.6,0.2,0.8,0.4c0,0,0.1,0.1,0.1,0.1c0.3,0.2,0.5,0.5,0.7,0.9c0,0,0.1,0.1,0.1,0.1c0.1,0.2,0.2,0.4,0.3,0.6
	c4.8,12.6,9.7,25.2,14.6,37.8c1.6,4.2,3.3,8.4,4.9,12.6c0.1,0.2,0.2,0.4,0.3,0.7s0.3,0.6,0.5,1c0.1,0.1,0.1,0.3,0.2,0.4
	c0.2-0.6,0.3-1.1,0.5-1.6c0.1-0.5,0.3-1,0.4-1.4c0.3-0.9,0.5-1.8,0.8-2.6c3.5-12.6,7-25.2,10.5-37.8c0.1-0.5,0.3-0.9,0.4-1.3
	c0.3-0.8,0.7-1.6,1.3-2.2c0.7-0.9,1.6-1.7,2.7-2.3c-0.2,0.7-0.4,1.4-0.6,2c-1.6,5.6-3.1,11.2-4.7,16.9C85.2,63.6,83,71.3,80.9,79
	C79.9,82.6,79,86.1,78,89.9z M101.9,36.2c-0.4,1.3-0.7,2.7-1.1,4c-2.6,9.4-5.1,18.7-7.7,28c-2,7.2-4,14.3-6,21.5
	c-0.1,0.4-0.2,0.8-0.4,1.2c-0.3,0.7-0.7,1.4-1.1,2c-0.5,0.6-1,1.2-1.6,1.6c-1,0.7-2.2,1.3-3.6,1.7c0.8-2.9,1.5-5.6,2.2-8.3
	c0.7-2.7,1.4-5.3,2.1-7.9c3.7-13.3,7.4-26.7,11-40c0,0,0,0,0,0c0.1-0.2,0.1-0.4,0.2-0.6c0-0.1,0-0.1,0.1-0.2c0-0.2,0.1-0.3,0.1-0.5
	c0-0.1,0-0.1,0.1-0.2c0.1-0.2,0.1-0.4,0.2-0.5c0,0,0,0,0,0c0.1-0.2,0.1-0.3,0.2-0.4c0,0,0-0.1,0.1-0.1c0-0.1,0.1-0.2,0.1-0.3
	c0,0,0-0.1,0.1-0.1c0.1-0.1,0.1-0.2,0.2-0.3c0,0,0,0,0,0c0.1-0.1,0.1-0.2,0.2-0.2c0,0,0,0,0.1-0.1c0.1-0.1,0.1-0.1,0.2-0.1
	c0,0,0,0,0.1-0.1c0.1-0.1,0.2-0.1,0.3-0.1c0,0,0,0,0,0c0.1,0,0.2-0.1,0.3-0.1c0,0,0.1,0,0.1,0c0.1,0,0.2,0,0.3,0c0,0,0.1,0,0.1,0
	c0.1,0,0.3,0,0.4,0c0.1,0,0.2,0,0.3,0c0.1,0,0.1,0,0.2,0c0,0,0,0,0,0c0,0,0,0,0,0c0.1,0,0.2,0,0.3,0c0.1,0,0.2,0,0.4,0
	c0,0,0.1,0,0.1,0C100.9,36.1,101.4,36.2,101.9,36.2L101.9,36.2z"/>
<path d="M64,5c32.5,0,59,26.5,59,59s-26.5,59-59,59S5,96.5,5,64S31.5,5,64,5 M64,0C28.7,0,0,28.7,0,64s28.7,64,64,64
	c35.3,0,64-28.7,64-64S99.3,0,64,0L64,0z"/>
<path d="M14.3,60.8c-0.1,0-0.1,0-0.2,0c-1.1-0.1-1.9-1.1-1.8-2.2c1.4-13.8,8.2-26.2,19-35C42,14.9,55.6,10.8,69.4,12.3
	c1.1,0.1,1.9,1.1,1.8,2.2s-1.1,1.9-2.2,1.8c-12.7-1.3-25.3,2.4-35.2,10.5c-10,8.1-16.2,19.5-17.5,32.3C16.2,60,15.3,60.8,14.3,60.8z
	"/>
<path d="M64.1,116c-1.8,0-3.7-0.1-5.5-0.3c-1.1-0.1-1.9-1.1-1.8-2.2c0.1-1.1,1.1-1.9,2.2-1.8c12.7,1.3,25.3-2.4,35.2-10.5
	c10-8.1,16.2-19.5,17.5-32.3c0.1-1.1,1.1-1.9,2.2-1.8c1.1,0.1,1.9,1.1,1.8,2.2c-1.4,13.8-8.2,26.2-19,35C87.4,112,76,116,64.1,116z"
	/>
</svg>
