<?xml version="1.0" encoding="utf-8"?>
<!-- Generator: Adobe Illustrator 21.1.0, SVG Export Plug-In . SVG Version: 6.00 Build 0)  -->
<svg version="1.1" id="Layer_1" xmlns="http://www.w3.org/2000/svg" xmlns:xlink="http://www.w3.org/1999/xlink" x="0px" y="0px"
	 viewBox="0 0 128 128" style="enable-background:new 0 0 128 128;" xml:space="preserve">
<g>
	<path d="M68.3,99.8c3,2,6.4,3,9.8,3c1.3,0,2.5-0.1,3.8-0.4c9.1-2.1,15-10.8,13.6-19.9c-1.1-6.9-5.1-11.8-11.6-14
		c-1.7-0.6-3.5-0.8-5.3-0.9l-1-0.1c-1.8-0.2-2.8-0.6-3.6-1.5c-0.9-1.1-1.2-2.6-0.7-4c0.5-1.4,1.7-2.5,3.1-2.8
		c0.8-0.2,1.6-0.2,2.5-0.3c0.5,0,1.1-0.1,1.6-0.1c8.6-1,15.2-8.6,15.2-17.4c0-0.1,0-0.1,0-0.2c0-0.3,0-0.6-0.1-0.9
		c-0.1-0.7-0.1-1.4-0.2-2.2C93.7,28.9,85,22.6,75.6,23.8c-8.4,1.1-15,8.3-15.3,16.8c-0.1,3.2,0.7,6.4,2.6,10.1
		c0.7,1.3,0.8,2.4,0.6,3.5c-0.3,1.4-1.4,2.4-2.9,2.8c-1.4,0.4-2.9,0-3.9-1c-0.5-0.5-1-1.2-1.5-2c-0.3-0.4-0.5-0.8-0.8-1.2
		c-4.4-5.9-10.5-8.3-17.7-6.9c-4.8,0.9-8.8,3.7-11.5,7.8c-2.6,4.1-3.4,9.1-2.2,13.9c1.8,6.9,6.3,11.4,13.2,12.9
		c6.9,1.6,12.9-0.5,17.4-5.9c0.6-0.7,1.1-1.5,1.6-2.2c0.4-0.6,0.8-1.2,1.2-1.7c1-1.2,2.7-1.8,4.1-1.3c1.8,0.6,2.9,2,3,3.8
		c0.1,1-0.3,2-1,3.4c-2,4-2.6,7.8-1.9,11.8C61.5,93,64.3,97.2,68.3,99.8z M66.1,78.4c0.8-1.5,1.6-3.3,1.5-5.4
		c-0.2-3.4-2.4-6.2-5.7-7.4c-0.8-0.3-1.6-0.4-2.4-0.4c-2.3,0-4.6,1-6.1,2.9c-0.5,0.6-1,1.3-1.4,1.9c-0.5,0.7-0.9,1.3-1.4,1.9
		c-3.5,4.2-8.1,5.8-13.4,4.5c-5.4-1.2-8.8-4.6-10.2-10c-0.9-3.7-0.3-7.5,1.7-10.7c2-3.2,5.1-5.3,8.8-6c5.7-1.1,10.2,0.7,13.8,5.4
		c0.3,0.3,0.5,0.7,0.7,1c0.6,0.9,1.2,1.7,2,2.5c2,2,5,2.8,7.8,2c2.8-0.8,5-2.9,5.7-5.7c0.5-2.1,0.2-4.2-0.9-6.3
		c-1.6-3-2.3-5.5-2.2-8c0.2-6.4,5.4-12.1,11.8-12.9c7.3-0.9,14,3.9,15.4,11.1c0.1,0.5,0.1,1.1,0.2,1.7c0,0.3,0,0.6,0.1,0.8
		c0,6.7-5.1,12.5-11.7,13.3c-0.5,0.1-1,0.1-1.5,0.1c-1,0.1-2,0.2-3,0.4c-2.9,0.6-5.2,2.6-6.1,5.4c-0.9,2.8-0.4,5.7,1.5,7.9
		c1.9,2.2,4.4,2.7,6.2,2.9c0.3,0,0.7,0.1,1,0.1c1.6,0.2,3.1,0.3,4.4,0.7c5.1,1.7,8.1,5.4,9,10.8c1.1,7-3.5,13.7-10.5,15.4
		c-3.5,0.8-7.4,0.1-10.5-2c-3.1-2.1-5.3-5.3-5.9-8.8C64,84.6,64.5,81.6,66.1,78.4z"/>
	<path d="M64,0C28.7,0,0,28.7,0,64s28.7,64,64,64s64-28.7,64-64S99.3,0,64,0z M64,123C31.5,123,5,96.5,5,64S31.5,5,64,5
		s59,26.5,59,59S96.5,123,64,123z"/>
	<path d="M64,16c1.1,0,2-0.9,2-2s-0.9-2-2-2c-28.7,0-52,23.3-52,52c0,1.1,0.9,2,2,2s2-0.9,2-2C16,37.5,37.5,16,64,16z"/>
	<path d="M114,62c-1.1,0-2,0.9-2,2c0,26.5-21.5,48-48,48c-1.1,0-2,0.9-2,2s0.9,2,2,2c28.7,0,52-23.3,52-52C116,62.9,115.1,62,114,62
		z"/>
</g>
</svg>
