<?xml version="1.0" encoding="utf-8"?>
<!-- Generator: Adobe Illustrator 21.1.0, SVG Export Plug-In . SVG Version: 6.00 Build 0)  -->
<svg version="1.1" id="Layer_1" xmlns="http://www.w3.org/2000/svg" xmlns:xlink="http://www.w3.org/1999/xlink" x="0px" y="0px"
	 viewBox="0 0 128 128" style="enable-background:new 0 0 128 128;" xml:space="preserve">
<g>
	<path d="M64,0C28.7,0,0,28.7,0,64s28.7,64,64,64s64-28.7,64-64S99.3,0,64,0z M64,123C31.5,123,5,96.5,5,64S31.5,5,64,5
		s59,26.5,59,59S96.5,123,64,123z"/>
	<path d="M49.3,18.3c1.1-0.3,1.6-1.5,1.3-2.5s-1.5-1.6-2.5-1.3c-13.2,4.3-24,13.4-30.3,25.8c-6.3,12.4-7.5,26.4-3.2,39.7
		c0.3,0.8,1.1,1.4,1.9,1.4c0.2,0,0.4,0,0.6-0.1c1.1-0.3,1.6-1.5,1.3-2.5c-3.9-12.2-2.9-25.2,3-36.6C27.1,30.7,37.1,22.2,49.3,18.3z"
		/>
	<path d="M113.5,48.1c-0.3-1.1-1.5-1.6-2.5-1.3c-1.1,0.3-1.6,1.5-1.3,2.5c3.9,12.2,2.9,25.2-3,36.6c-5.9,11.4-15.8,19.9-28,23.8
		c-1.1,0.3-1.6,1.5-1.3,2.5c0.3,0.8,1.1,1.4,1.9,1.4c0.2,0,0.4,0,0.6-0.1c13.2-4.3,24-13.4,30.3-25.8
		C116.6,75.4,117.8,61.3,113.5,48.1z"/>
	<path d="M103.5,74V63.3c0-0.7-0.4-1.4-1-1.8c-0.6-0.4-1.4-0.3-2,0.1l-37,23.3L28.5,62.2v-6l34.4,21.8c0.7,0.4,1.5,0.4,2.1,0
		l37.3-23.7c0.6-0.4,0.9-1,0.9-1.7c0-0.7-0.3-1.3-0.9-1.7L65.1,26.2c-0.7-0.4-1.5-0.4-2.2,0L25.4,50.8c0,0-0.1,0-0.1,0.1
		c-0.4,0.3-0.6,0.6-0.7,1c0,0,0,0,0,0c0,0,0,0,0,0c0,0.1-0.1,0.2-0.1,0.3c0,0.1,0,0.2,0,0.3v10.7c0,0.7,0.3,1.3,0.9,1.7l36.9,24
		c0.7,0.4,1.5,0.4,2.2,0l35-22.1v6L63.9,95.8L27.6,72.8c-0.9-0.6-2.2-0.3-2.8,0.6s-0.3,2.2,0.6,2.8l37.4,23.6
		c0.3,0.2,0.7,0.3,1.1,0.3c0.4,0,0.8-0.1,1.1-0.3l37.5-24.1C103.1,75.3,103.5,74.7,103.5,74z M64,30.3l33.7,22.2L64,73.9L30.2,52.5
		L64,30.3z"/>
</g>
</svg>
