<?xml version="1.0" encoding="utf-8"?>
<!-- Generator: Adobe Illustrator 21.1.0, SVG Export Plug-In . SVG Version: 6.00 Build 0)  -->
<svg version="1.1" id="Layer_1" xmlns="http://www.w3.org/2000/svg" xmlns:xlink="http://www.w3.org/1999/xlink" x="0px" y="0px"
	 viewBox="0 0 128 128" style="enable-background:new 0 0 128 128;" xml:space="preserve">
<g>
	<path d="M64,0C28.7,0,0,28.7,0,64s28.7,64,64,64c35.3,0,64-28.7,64-64S99.3,0,64,0z M64,123C31.5,123,5,96.5,5,64S31.5,5,64,5
		s59,26.5,59,59S96.5,123,64,123z"/>
	<path d="M22.6,39.7c6.5-11.1,16.9-18.9,29.3-22.2c1.1-0.3,1.7-1.4,1.4-2.4c-0.3-1.1-1.4-1.7-2.4-1.4c-13.4,3.5-24.7,12-31.7,24
		s-9,26-5.5,39.4c0.2,0.9,1,1.5,1.9,1.5c0.2,0,0.3,0,0.5-0.1c1.1-0.3,1.7-1.4,1.4-2.4C14.3,63.7,16.1,50.8,22.6,39.7z"/>
	<path d="M114.3,50.9c-0.3-1.1-1.4-1.7-2.4-1.4c-1.1,0.3-1.7,1.4-1.4,2.4c3.2,12.4,1.4,25.3-5.1,36.4c-6.5,11.1-16.9,18.9-29.3,22.2
		c-1.1,0.3-1.7,1.4-1.4,2.4c0.2,0.9,1,1.5,1.9,1.5c0.2,0,0.3,0,0.5-0.1c13.4-3.5,24.7-12,31.7-24S117.8,64.3,114.3,50.9z"/>
	<path d="M51.8,21.3c-0.6,0.1-1.2,0.3-1.8,0.4c-0.2,0-0.3,0.1-0.5,0.1c-0.5,0.1-0.9,0.2-1.4,0.4c-0.2,0-0.3,0.1-0.5,0.1
		c-0.6,0.2-1.2,0.4-1.8,0.6c-0.5,0.2-1.1,0.4-1.6,0.6c-3.7,1.5-7,3.7-10,6.3c-1,0.9-2,1.8-3,2.8c-1.4,1.5-2.8,3-4.1,4.6
		c-0.6,0.8-1.2,1.6-1.8,2.5c-0.6,0.8-1.2,1.7-1.7,2.6l0,0c0,0,0,0,0,0c0.1,0.1,0.2,0.2,0.2,0.2c0.1-0.1,0.1-0.3,0.2-0.4
		c2.4-2.7,5.3-4.6,8.4-5.8c0.6-0.2,1.3-0.4,1.9-0.6c1.3-0.4,2.7-0.6,4.1-0.7c0,0,0,0,0,0c0.7,0,1.4-0.1,2-0.1c0.2,0,0.4,0,0.6,0
		c0.5,0,1,0,1.5,0c0.2,0,0.3,0,0.5,0c1.4,0,2.9,0,4.3,0.1c1.5,0,3,0.1,4.6,0.1c0,0,0,0,0,0c0,0,0,0,0.1,0c0.9,0,1.7,0,2.6,0.1
		c0.7,0,1.4,0.1,2.1,0.1c0.4,0,0.7,0,1.1,0c0.6,0,1.1,0,1.7,0.1c0.3,0,0.7,0,1,0c0.2,0,0.4,0,0.7,0c0.6,0,1.1,0,1.7,0
		c0.4,0,0.9-0.1,1.2-0.1c0.4-0.1,0.8-0.2,1.1-0.3c2.1-0.8,3.4-2.5,4-5.1c0.1-0.3,0.1-0.6,0.1-0.8c0-0.3,0-0.5,0-0.8
		c0-1.6-0.6-3-1.8-4.2c-1.2-1.2-2.7-2-4.2-2.4c-0.5-0.2-1.1-0.3-1.6-0.4c-0.7-0.1-1.4-0.2-2.1-0.3c-0.2,0-0.4,0-0.7,0
		c-0.5,0-1-0.1-1.4-0.1c0,0-0.1,0-0.1,0c-0.6,0-1.2,0-1.7,0.1c-0.2,0-0.3,0-0.5,0c-0.5,0-0.9,0.1-1.4,0.1c-0.2,0-0.4,0-0.6,0.1
		c-0.5,0.1-1.1,0.2-1.6,0.3C52,21.3,51.9,21.3,51.8,21.3z M57.8,24.7c1.2,0,2.5,0.1,3.7,0.3c1.7,0.3,2.9,0.8,3.7,1.7
		c0.5,0.5,0.8,1,0.6,2.1c-0.5,2.2-1.5,2.4-2.6,2.5c-0.5,0-1.1,0-1.6,0c-1.6,0-3.3-0.1-5-0.1c-1.4-0.1-2.8-0.1-4.2-0.1
		c-1.2,0-2.4-0.1-3.5-0.1c-1.8-0.1-3.7-0.1-5.6-0.1c-1.4,0-2.7,0-3.8,0.1c2.6-1.9,5.2-3.2,7.8-4.1C51.3,25.3,54.7,24.7,57.8,24.7z"
		/>
	<path d="M76.8,101.4L76.8,101.4L76.8,101.4c-0.7-0.3-1.3-0.5-2-0.8c-1.2-0.5-2.4-1-3.4-1.6c-0.5-0.3-1-0.6-1.5-0.9
		c-2-1.2-3.8-2.6-5.8-4.4c-0.1-0.1-0.1-0.1-0.2-0.1c0,0,0,0-0.1,0c-0.1,0-0.2,0-0.3-0.1c0,0,0,0,0,0c-0.1,0-0.2,0-0.3,0c0,0,0,0,0,0
		c-0.1,0-0.3,0-0.4,0c0,0,0,0,0,0c-0.5,0.1-1,0.3-1.5,0.4c-0.2,0-0.3,0.1-0.5,0.1c-0.4,0.1-0.7,0.1-1.1,0.2c-0.2,0-0.4,0.1-0.6,0.1
		c-0.3,0-0.7,0.1-1,0.1c-0.2,0-0.4,0-0.6,0c-0.4,0-0.7,0-1.1,0c-0.2,0-0.3,0-0.5,0c-0.1,0-0.2,0-0.4,0c-0.3,0-0.6,0-0.9,0
		c-0.1,0-0.3,0-0.4,0c-0.3,0-0.6-0.1-0.9-0.1c-0.1,0-0.3,0-0.4-0.1c-0.4-0.1-0.9-0.1-1.3-0.2c-5-1.2-9.1-3.3-12.1-6.6
		c-0.4-0.5-0.9-0.9-1.2-1.4c-0.6-0.8-1.2-1.7-1.7-2.6c-1-1.8-1.9-3.9-2.4-6.1c-0.6-2.3-0.8-4.5-0.8-6.6c0-0.5,0-1.1,0.1-1.6
		c0-0.5,0.1-1,0.2-1.5c0.9-5.1,3.6-9.6,8.1-13.4c0.8-0.7,1.7-1.3,2.5-1.9c0.1-0.1,0.2-0.2,0.4-0.3v0c0-0.1,0-0.2-0.1-0.3
		c-0.9-0.1-1.8-0.1-2.6-0.2s-1.8-0.1-2.6-0.2c-0.5,0-1.1,0-1.6,0c0,0,0,0-0.1,0c-0.4,0-0.9,0-1.3,0c-0.1,0-0.2,0-0.3,0
		c-0.4,0-0.7,0-1.1,0.1c-0.2,0-0.3,0-0.5,0.1c-0.3,0-0.6,0.1-0.9,0.1c-0.2,0-0.4,0.1-0.5,0.1c-0.3,0.1-0.6,0.1-0.8,0.2
		c-0.2,0-0.4,0.1-0.5,0.1c-0.3,0.1-0.6,0.2-0.8,0.2c-0.2,0.1-0.3,0.1-0.5,0.2c-0.3,0.1-0.6,0.2-0.9,0.3c-0.1,0.1-0.3,0.1-0.4,0.2
		c-0.4,0.2-0.9,0.4-1.3,0.6c-0.5,0.3-1.1,0.6-1.6,0.9c-0.3,0.2-0.5,0.3-0.7,0.5c-1.2,0.9-2.2,2.1-2.7,3.6c-1.1,3-1.9,6-2.2,9.1
		c-0.1,0.8-0.1,1.5-0.2,2.3c0,0.8,0,1.5,0,2.3c0,1.6,0.2,3.1,0.4,4.7c0.6,4.2,1.9,8,3.6,11.5c0.3,0.5,0.5,1,0.8,1.5
		c0.3,0.6,0.6,1.1,1,1.6c2.8,4.2,6.5,7.8,11.2,10.7c0,0,0,0,0,0c0.7,0.4,1.4,0.8,2.2,1.2c0.2,0.1,0.5,0.2,0.7,0.4
		c0.5,0.2,1,0.5,1.5,0.7c0.3,0.1,0.6,0.2,0.9,0.4c0.5,0.2,0.9,0.4,1.4,0.6c0.3,0.1,0.6,0.2,0.9,0.3c0.4,0.2,0.9,0.3,1.3,0.4
		c0.3,0.1,0.6,0.2,1,0.3c0.4,0.1,0.9,0.2,1.3,0.3c0.3,0.1,0.6,0.1,1,0.2c0.4,0.1,0.9,0.2,1.3,0.2c0.3,0.1,0.6,0.1,1,0.1
		c0.4,0.1,0.9,0.1,1.3,0.1c0.3,0,0.6,0.1,1,0.1c0.5,0,0.9,0,1.4,0c0.2,0,0.4,0,0.7,0c0.1,0,0.2,0,0.3,0c0.3,0,0.6,0,0.9,0
		c0.4,0,0.8,0,1.2-0.1c0.3,0,0.6-0.1,0.9-0.1c0.4,0,0.8-0.1,1.2-0.1c0.3,0,0.6-0.1,0.9-0.1c0.4-0.1,0.8-0.1,1.2-0.2
		c0.3-0.1,0.6-0.1,0.9-0.2c0.4-0.1,0.8-0.2,1.2-0.3c0.3-0.1,0.6-0.1,0.9-0.2c0.4-0.1,0.8-0.3,1.3-0.4c0.3-0.1,0.6-0.2,0.8-0.3
		c0.5-0.2,0.9-0.3,1.4-0.5c0.2-0.1,0.5-0.2,0.7-0.3c0.7-0.3,1.4-0.6,2.1-0.9c0,0,0,0,0.1,0c0.6-0.3,1.2-0.6,1.8-0.9
		c0.8-0.4,1.6-0.9,2.5-1.4C76.3,101.7,76.5,101.6,76.8,101.4z M55.9,103.8c-5.6,0-11.2-1.7-16.6-4.9C31,93.8,26,86.3,24.5,76.4
		c-0.8-5.4-0.2-11,1.8-16.4c0.4-1.2,1.3-2,3.2-3c1.6-0.9,3.4-1.4,5.5-1.6c-5.3,6.6-6.9,14.4-4.7,22.9C32.9,88.7,40,95.5,50.8,98
		c1.7,0.4,3.5,0.6,5.3,0.6c2.1,0,4.2-0.3,6.4-0.8c1.7,1.5,3.3,2.7,5.1,3.8C63.6,103.1,59.7,103.8,55.9,103.8z"/>
	<path d="M24.2,54.2c0.3-0.2,0.5-0.4,0.8-0.6c0.3-0.2,0.5-0.4,0.8-0.6c0.5-0.3,1-0.6,1.5-0.8c0.2-0.1,0.3-0.2,0.5-0.2
		c0.3-0.2,0.7-0.3,1-0.5c0.2-0.1,0.4-0.1,0.6-0.2c0.3-0.1,0.6-0.2,0.9-0.3c0.2-0.1,0.4-0.1,0.7-0.2c0.3-0.1,0.6-0.2,0.9-0.2
		c0.2-0.1,0.5-0.1,0.7-0.1c0.3-0.1,0.6-0.1,0.9-0.2c0.2,0,0.5-0.1,0.7-0.1c0.3,0,0.6-0.1,0.9-0.1c0.2,0,0.5,0,0.7-0.1
		c0.3,0,0.6,0,0.9-0.1c0.2,0,0.5,0,0.7,0c0.4,0,0.8,0,1.2,0c0.8,0,1.5,0,2.3,0.1c5.3,0.4,10.3,1.8,15.2,3.9c1,0.4,2,0.9,3.1,1.4
		c1.7,0.8,3.4,1.6,5.1,2.3c0,0,0,0,0,0c0.5,0.2,1.1,0.4,1.6,0.5c0.2,0.1,0.4,0.1,0.5,0.1c0.4,0.1,0.8,0.2,1.1,0.3
		c0.2,0,0.4,0.1,0.7,0.1c0,0,0,0,0,0c0.1,0.1,0.1,0.3,0.2,0.4c-0.5,1.9-1,3.8-1.6,5.7c0.4-2.3-0.7-4.3-2.3-5.3
		c-0.9-0.6-1.9-0.9-3.1-0.9c-0.3,0-0.5,0-0.8,0.1c0.2-0.1,0.3-0.3,0.5-0.4c0,0,0,0,0,0c0,0,0,0,0,0c-0.1-0.1-0.2-0.2-0.2-0.3
		c-3.3-1.7-6.7-3.2-10.2-4.3c-0.5-0.2-1-0.3-1.5-0.5c0,0,0,0,0,0c-0.2,0-0.4-0.1-0.6-0.1c0,0,0,0-0.1,0c0,0-0.1,0-0.1,0
		c-0.1,0-0.3,0-0.4,0c-0.1,0-0.1,0-0.2,0c-0.2,0-0.4,0.1-0.5,0.2c-1.7,0.8-3.2,1.8-4.6,2.9c-0.5,0.4-0.9,0.8-1.3,1.2
		c-0.8,0.9-1.6,1.8-2.3,2.8c-0.3,0.5-0.6,1-0.9,1.5s-0.6,1-0.8,1.6c-0.5,1.1-0.9,2.2-1.2,3.3c-0.2,0.6-0.3,1.2-0.4,1.7
		c-0.5,2.9-0.4,6,0.5,9c0.1,0.5,0.3,1,0.5,1.5c0,0.1,0.1,0.2,0.1,0.3c0.2,0.5,0.4,0.9,0.6,1.4c0,0.1,0.1,0.2,0.1,0.2
		c0.2,0.4,0.4,0.8,0.6,1.2c0,0.1,0.1,0.1,0.1,0.2c0.2,0.4,0.5,0.8,0.8,1.2c0.1,0.1,0.1,0.2,0.2,0.3c0.3,0.4,0.6,0.8,0.9,1.2
		c0,0,0,0,0,0c0.3,0.4,0.6,0.7,1,1.1c0.1,0.1,0.1,0.2,0.2,0.2c0.3,0.3,0.7,0.7,1,1c0.1,0.1,0.1,0.1,0.2,0.2c0.3,0.3,0.7,0.6,1,0.8
		c0.1,0,0.1,0.1,0.2,0.1c0.4,0.3,0.8,0.5,1.2,0.8c0.1,0.1,0.2,0.1,0.3,0.2c0.4,0.3,0.8,0.5,1.3,0.7c0,0,0,0,0,0
		c0.4,0.2,0.9,0.4,1.3,0.6c0.1,0,0.2,0.1,0.3,0.1c0.4,0.2,0.9,0.4,1.3,0.5c0.1,0,0.2,0,0.2,0.1c0.4,0.1,0.8,0.3,1.3,0.4
		c0.1,0,0.1,0,0.2,0.1c0.5,0.1,0.9,0.2,1.4,0.3c0.1,0,0.2,0,0.3,0c0.5,0.1,1,0.1,1.5,0.2c0,0,0,0,0,0c0.5,0,1,0.1,1.5,0.1
		c0.1,0,0.1,0,0.2,0c0,0,0.1,0,0.1,0c0.5,0,1,0,1.5-0.1c0.1,0,0.2,0,0.2,0c0.5,0,0.9-0.1,1.4-0.2c0.1,0,0.1,0,0.2,0
		c0.5-0.1,1-0.2,1.5-0.3c0,0,0.1,0,0.1,0l0,0c0.6-0.1,1.1-0.2,1.6-0.2c0.4-0.1,0.9-0.1,1.3-0.2c1.2-0.2,2.4-0.3,3.4-0.4
		c0.9,0,1.8-0.1,2.7-0.2c0.1,0.2,0.1,0.3,0.2,0.5c-0.1-0.1-0.1-0.3-0.2-0.5c0,0,0,0,0,0c0.1,0.2,0.1,0.3,0.2,0.5c0,0,0,0,0,0
		c0,0.1,0.1,0.2,0.1,0.3c0.1,0.2,0.2,0.3,0.3,0.5c0,0.1,0.1,0.2,0.2,0.2c0.1,0.2,0.2,0.3,0.3,0.5c0,0.1,0.1,0.1,0.1,0.2
		c0.1,0.2,0.3,0.4,0.4,0.6c0,0,0.1,0.1,0.1,0.1c0.4,0.5,0.8,0.9,1.3,1.4c0.5,0.4,1,0.9,1.5,1.3c0.3,0.2,0.5,0.4,0.8,0.6
		c0.3,0.2,0.6,0.4,0.9,0.5c0.1,0,0.2,0.1,0.3,0.1c0.2,0.1,0.5,0.2,0.7,0.3c0.1,0,0.2,0.1,0.2,0.1c0.3,0.1,0.6,0.2,0.9,0.3
		c0.1,0,0.1,0,0.2,0c0.3,0.1,0.5,0.1,0.8,0.2c0.1,0,0.2,0,0.3,0.1c0.3,0,0.6,0.1,0.8,0.1c0.1,0,0.1,0,0.1,0c0.3,0,0.6,0,0.8,0
		c0,0,0.1,0,0.1,0c0.4,0,0.9,0,1.3-0.1c0.1,0,0.1,0,0.2,0c0.4,0,0.7-0.1,1.1-0.2c0.1,0,0.3-0.1,0.4-0.1c0.3-0.1,0.6-0.2,0.9-0.3
		c0.1,0,0.3-0.1,0.4-0.1c0.3-0.1,0.7-0.3,1-0.4c0.1,0,0.2-0.1,0.2-0.1c0.4-0.2,0.8-0.4,1.3-0.6c0.1-0.1,0.2-0.1,0.3-0.2
		c0.3-0.2,0.6-0.4,0.9-0.5c0.1-0.1,0.3-0.2,0.4-0.3c0.3-0.2,0.6-0.4,0.9-0.6c0.1-0.1,0.2-0.2,0.4-0.3c0.4-0.3,0.8-0.6,1.2-0.9
		c0,0,0,0,0,0l0,0h0c-0.1,0-0.1-0.1-0.2-0.1c-1.1-0.8-1.9-1.7-2.4-2.6h1.3l0.1-0.2c0,0,0.1,0.1,0.1,0.1c0,0,0.1,0.1,0.1,0.1
		c0.1,0.2,0.3,0.3,0.4,0.5c0.1,0.1,0.1,0.1,0.2,0.2c0.2,0.2,0.4,0.3,0.6,0.4c0,0,0,0,0.1,0c0.2,0.1,0.4,0.2,0.7,0.3
		c0.1,0,0.1,0,0.2,0.1c0.2,0.1,0.4,0.1,0.6,0.2c0.1,0,0.1,0,0.2,0c0.2,0,0.5,0.1,0.8,0.1c0,0,0,0,0,0c0.1,0,0.1,0,0.2,0
		c0.2,0,0.3,0,0.5,0c0.1,0,0.2,0,0.3,0c0.2,0,0.3-0.1,0.5-0.1c0.1,0,0.2-0.1,0.3-0.1c0.2-0.1,0.3-0.1,0.5-0.2c0.1,0,0.2-0.1,0.2-0.1
		c0.2-0.1,0.5-0.3,0.7-0.4c0.3-0.2,0.7-0.5,1-0.7c0.8-0.6,1.6-1.4,2.3-2.2c0.1-0.2,0.3-0.3,0.4-0.5c1.6-2.2,3-4.5,4-7
		c1.4-3.2,2.2-6.7,2.6-10.3c0.1-0.9,0.1-1.8,0.1-2.7v0c0-0.5,0-0.9,0-1.4c0-3.2-0.3-6.5-0.7-9.7c-0.1-0.7-0.2-1.5-0.4-2.2
		c-0.3-1.7-0.8-3.4-1.2-5.1c-0.1-0.5-0.2-1-0.3-1.5c-0.1,0-0.2,0-0.2,0.1c0,0-0.1,0-0.1,0v0c0,0.1,0,0.3,0.1,0.4s0,0.3,0.1,0.4
		c0.2,1,0.3,1.9,0.4,2.9c0,0.5,0.1,1,0.1,1.4c0,2.4-0.3,4.8-1,7.2c-0.4,1.4-0.9,2.8-1.6,4.1c-0.2,0.4-0.4,0.9-0.6,1.3
		c-0.7,1.3-1.4,2.5-2.2,3.7c0-0.4,0-0.7,0-1c0-0.4-0.1-0.8-0.2-1.2c0.4-0.7,0.9-1.4,1.2-2.1c0.8-1.5,1.4-3,1.9-4.6
		c0.9-2.7,1.4-5.4,1.4-8.1c0-3.3-0.6-6.7-2-10.1c-0.1-0.3-0.3-0.6-0.4-1c-0.2-0.5-0.5-1-0.8-1.5c-1.1-2-2.4-3.9-3.8-5.6
		c-1.1-1.3-2.3-2.5-3.6-3.6c-0.5-0.5-1.1-0.9-1.6-1.4c-0.7-0.6-1.5-1.1-2.2-1.6c0,0,0,0,0,0l0,0c0,0.3,0.1,0.5,0.3,0.6
		c4.5,4.1,6.9,9.2,7.1,14.5c0.1,2.1-0.2,4.4-0.9,6.6c-0.3,1.1-0.7,2.2-1.3,3.3c-0.5,1.2-1.2,2.3-1.8,3.4c-0.3,0.5-0.7,1.1-1.1,1.6
		c-0.6,0.9-1.3,1.7-1.9,2.5c0,0,0,0,0,0c-1-1.6-2.8-2.6-4.7-2.6c-0.9,0-1.9,0.2-2.6,0.7c-1.8,1-3,3.2-2.6,5.7
		c-0.2,0.3-0.3,0.5-0.5,0.8l-0.3-1.1l-1.6-5.6c0.6-0.9,1.1-2,1.2-3.3c1.1-0.8,2-1.7,2.8-2.7c2.3-2.8,3.5-6.3,3.6-9.8
		c0-1.2-0.1-2.3-0.4-3.5c-0.2-0.9-0.5-1.7-0.8-2.5c-0.7-1.6-1.8-3.2-3.2-4.5c-3-2.8-6.5-4.6-10.4-5.9c0,0,0,0,0,0c0,0-0.1,0-0.1,0
		c-0.1,0-0.1,0-0.2,0.1c0,0,0,0,0,0c0,0.4,0,0.7,0,1c0,0.2,0,0.5,0,0.8c0,0.3,0,0.5-0.1,0.8c-0.4,3.3-2.7,6.7-6.9,7.6
		c-0.3,0.1-0.7,0.1-1,0.2c0,0,0,0,0,0c-0.6,0.1-1.1,0.1-1.7,0.1c-0.2,0-0.4,0-0.6,0c-0.4,0-0.7,0-1.1,0c-0.2,0-0.4,0-0.6,0
		c-0.5,0-1,0-1.5,0c-0.2,0-0.3,0-0.5,0c-0.6,0-1.3-0.1-1.9-0.1c-0.2,0-0.4,0-0.5,0c-0.5,0-1-0.1-1.5-0.1c-0.8-0.1-1.6-0.1-2.4-0.2
		c-1-0.1-2-0.2-3-0.2c-0.2,0-0.3,0-0.5,0c-0.3,0-0.6,0-1,0c-0.3,0-0.5,0-0.8,0c-0.3,0-0.6,0-0.9,0c-0.3,0-0.5,0-0.8,0c0,0,0,0,0,0
		c-0.4,0-0.7,0-1.1,0c-0.2,0-0.5,0-0.7,0c-0.4,0-0.7,0-1.1,0.1c-0.2,0-0.4,0-0.7,0c-0.4,0-0.8,0.1-1.2,0.1c-0.2,0-0.4,0-0.6,0.1
		c-0.6,0.1-1.2,0.2-1.8,0.3c-2.8,0.6-5.3,1.4-7.6,2.7c-0.5,0.2-0.9,0.5-1.4,0.8c-0.9,0.6-1.7,1.2-2.5,1.9c-0.6,0.5-1.2,1-1.7,1.6
		c-0.8,0.9-1.6,1.8-2.3,2.9c-0.7,1-1.2,2-1.7,3C19,52.4,18.3,55.2,18,58c-0.1,0.6-0.1,1.1-0.1,1.7c0,0.2,0,0.4,0,0.6
		c0,0.6,0,1.2,0,1.8c0,2.4,0.3,4.8,0.9,7.1c0-0.2,0-0.3,0-0.5c0-0.5,0-0.9,0-1.4c0-0.5,0-0.9,0-1.4c0-0.2,0-0.3,0-0.5
		c0-0.3,0.1-0.7,0.1-1c0-0.3,0.1-0.6,0.1-1c0.6-3.5,2-6.5,4.5-8.9C23.7,54.6,24,54.4,24.2,54.2z M56.2,63.3c0,0.5,0,0.9,0,1.3l0,0.1
		c0,0.3,0,0.7,0.2,1.2c-0.3-0.3-0.7-0.6-1.1-0.8C55.6,64.4,55.9,63.8,56.2,63.3z M40.3,76.2c-2.1-7.4,1.6-15.8,8.4-19.1
		c1.8,0.5,3.7,1.2,5.7,2c-1.4,1.6-2.4,3.4-3.2,5.3c-2.4,0.5-4,2.6-4,5.3c0,2.9,1.4,4.3,2.9,5c0.1,0.6,0.2,1.1,0.3,1.7
		c0.6,2.8,1.8,5.3,3.5,7.5l1.7,4.3C48.4,88,42.3,83.2,40.3,76.2z M81.8,94.5c-1.4,0-2.7-0.4-3.9-1.2c-0.8-0.6-2.2-1.6-3.2-3
		c0.6,0,1.2,0,1.7,0c1.6,0,2.9,0.1,4,0.2c0.9,0.1,1.7,0.2,2.6,0.2c0.9,0.1,1.8,0.1,2.7,0.3c0.3,0.8,0.6,1.5,1.1,2.2
		C85,94.1,83.3,94.5,81.8,94.5z M101.3,77c1.2-1.5,2.3-3.1,3.4-4.8c-0.7,5-2.6,9.7-5.7,13.9c-0.6,0.9-1.6,1.7-2.7,2.5
		c-0.3,0.2-0.7,0.3-0.9,0.3c-0.5,0-0.8-0.7-1-1.3c-0.1-0.4-0.1-1.1,0.6-2.1C96.9,82.7,99,80,101.3,77z M99.9,55.2
		c0.6-1.4,1.1-2.7,1.5-4.1c0.4,4.3-0.5,8.6-2.8,13c-0.1,0.2-0.3,0.5-0.4,0.7c-0.7-0.4-1.5-0.6-2.4-0.6h0h0c-0.5,0-1.3,0.1-2.1,0.4
		C96.3,61.6,98.4,58.5,99.9,55.2z M79.8,76c2.3-3.6,4-7.2,6.1-10.7c0,0,0,0,0,0c-0.3-0.6-0.5-1.1-0.5-1.6c0-0.1,0-0.2,0.1-0.3
		c0.1-0.3,0.3-0.6,0.6-0.7c0,0,0,0,0,0c0.1-0.1,0.2-0.1,0.3-0.1c0,0,0.1,0,0.1,0c0.1,0,0.1,0,0.2,0c0,0,0,0,0.1,0c0,0,0,0,0.1,0
		c0.1,0,0.2,0,0.3,0c0,0,0.1,0,0.1,0c0.1,0,0.2,0.1,0.3,0.1c0,0,0.1,0,0.1,0c0.1,0,0.2,0.1,0.2,0.2c0,0,0.1,0,0.1,0.1
		c0.1,0.1,0.2,0.2,0.2,0.3c0.1,0.2,0.2,0.4,0.2,0.6c0.1,0.6-0.4,1.1-1.5,1.8c-0.1,0.9-0.1,1.9-0.2,2.8c-0.1,1.9-0.2,3.8-0.4,5.7
		c-0.1,1-0.1,1.9-0.2,2.9c1.4-1.1,2.8-2.2,4.2-3.3c1.4-1.1,2.7-2.1,4.1-3.2c0-0.2,0-0.4,0-0.6c0-0.1,0-0.1,0-0.2c0-0.1,0-0.2,0-0.3
		c0-0.1,0-0.1,0-0.2c0-0.1,0-0.2,0.1-0.3c0-0.1,0-0.1,0.1-0.1c0-0.1,0.1-0.1,0.1-0.2c0,0,0.1-0.1,0.1-0.1c0,0,0.1-0.1,0.1-0.1
		c0,0,0.1,0,0.1-0.1c0,0,0.1-0.1,0.1-0.1c0,0,0.1,0,0.1,0c0.1,0,0.1,0,0.2,0c0.1,0,0.1,0,0.2,0c0.1,0,0.1,0,0.2,0c0,0,0,0,0,0
		c0,0,0,0,0,0c0.7,0,1.4,0.6,1.4,1.4c0,0.1,0,0.2,0,0.4c0,0.4-0.2,0.8-0.7,1c-0.1,0.1-0.2,0.1-0.4,0.2c-0.3,0.1-0.6,0.2-1,0.3
		c-2.1,5.2-4.2,10.4-6.3,15.7c-0.3,0-0.6,0-0.8,0c-0.1,0-0.1,0-0.2,0c-0.2,0-0.4,0-0.6,0c-0.8-0.1-1.6-0.2-2.4-0.3
		c-1.1-0.1-2.1-0.2-3.2-0.3c-0.3,0-0.5,0-0.8-0.1c-0.7-0.1-1.4-0.1-2.1-0.1c-0.3,0-0.5,0-0.8,0c-0.5,0-0.9,0-1.4,0c0,0-0.1,0-0.1,0
		c-0.3,0-0.5,0-0.8,0c-1,0-2,0-3.1,0c0,0-0.1,0-0.1,0c-0.4,0-0.9,0-1.3,0.1c-1.3,0.1-2.6,0.3-3.8,0.4c-0.9,0-1.7,0.1-2.6,0.2
		c-0.9,0.1-1.7,0.2-2.5,0.4c-0.6,0.1-1.2,0.2-1.8,0.3c-0.4-0.2-0.7-0.5-1-0.7c-1.8-4.6-3.7-9.1-5.5-13.6c-0.3-0.7-0.5-1.4-0.8-2
		c-0.2,0-0.4-0.1-0.5-0.1c-0.2,0-0.3-0.1-0.5-0.1c-0.8-0.3-1.1-0.6-1-1.5c0-0.3,0.1-0.6,0.2-0.8c0.1-0.1,0.1-0.2,0.2-0.3
		c0.2-0.2,0.5-0.4,0.9-0.4c0,0,0.1,0,0.1,0c0.1,0,0.2,0,0.3,0.1c0.1,0,0.2,0,0.3,0c0.1,0,0.2,0.1,0.3,0.2c0.1,0,0.1,0.1,0.2,0.1
		c0.1,0.1,0.1,0.2,0.2,0.3c0,0.1,0.1,0.1,0.1,0.2c0.1,0.2,0.1,0.4,0.1,0.6c0,0,0,0.1,0,0.1c0,0.1,0,0.2,0,0.3c0,0.1,0,0.3,0,0.5
		c2.6,2.1,5.3,4.2,8.1,6.4c0.1-0.4,0.1-0.9,0.1-1.3c0-0.1,0-0.3,0-0.4c0-0.6,0-1.1-0.1-1.6c0-0.3-0.1-0.5-0.1-0.8
		c0-0.3-0.1-0.5-0.1-0.8c-0.1-2.1-0.2-4.3-0.3-6.4c-0.1-0.1-0.2-0.2-0.4-0.2c-0.3-0.1-0.6-0.2-0.8-0.4c-0.1-0.1-0.1-0.2-0.2-0.4
		c0-0.1,0-0.2,0-0.4c0-0.3,0-0.5,0.1-0.7c0-0.1,0.1-0.2,0.1-0.3c0-0.1,0.1-0.2,0.2-0.3c0,0,0,0,0.1-0.1c0.1,0,0.1-0.1,0.2-0.1
		c0,0,0.1,0,0.1,0c0.1,0,0.2-0.1,0.2-0.1c0,0,0.1,0,0.1,0c0.1,0,0.2,0,0.3,0c0,0,0,0,0,0c0,0,0,0,0,0c0.1,0,0.2,0,0.4,0
		c0,0,0.1,0,0.1,0c0.1,0,0.2,0.1,0.3,0.2c0,0,0,0,0,0c0.3,0.2,0.5,0.4,0.5,0.7c0,0.1,0,0.2,0,0.3c0,0.3-0.1,0.6-0.2,0.9
		c-0.1,0.2-0.2,0.4-0.3,0.6c0,0,0,0,0,0c1.8,3.3,3.7,6.6,5.6,10.1c0.8-3,1.6-5.9,2.4-8.8c0.8-2.9,1.6-5.8,2.4-8.6l0,0
		c-0.6-0.5-1-1-1.3-1.6c-0.2-0.4-0.3-0.7-0.3-1.1c0-0.2,0-0.4,0.1-0.5c0.1-0.4,0.2-0.7,0.5-1c0.1-0.1,0.2-0.2,0.4-0.3
		c0,0,0.1-0.1,0.1-0.1c0.1-0.1,0.2-0.1,0.3-0.2c0.1,0,0.1,0,0.2-0.1c0.1,0,0.2-0.1,0.3-0.1c0.1,0,0.2,0,0.2,0c0.1,0,0.2,0,0.3,0
		c0,0,0.1,0,0.1,0c0.1,0,0.1,0,0.2,0c0.1,0,0.1,0,0.2,0c0.1,0,0.2,0,0.3,0.1c0.1,0,0.1,0,0.2,0.1c0.1,0,0.2,0.1,0.3,0.1
		c0,0,0.1,0,0.1,0.1c0.1,0.1,0.3,0.2,0.4,0.3c0,0,0,0,0,0c0.5,0.5,0.8,1,0.8,1.5c0,0.1,0,0.2,0,0.3c0,0.7-0.4,1.4-1.2,2.2
		c-0.1,0.1-0.3,0.3-0.4,0.4C76.4,63.9,78.1,69.9,79.8,76z M38.1,41c1.9-0.4,4-0.6,6.3-0.6c2.1,0,4.1,0.1,6.6,0.3
		c0.6,0,1.1,0.1,1.7,0.1c2.4,0.2,4.8,0.4,7.4,0.4c1.4,0,2.7-0.1,4-0.2c5.7-0.6,9.4-4.4,10.8-8.7c1.8,0.9,3.3,2,4.6,3.2
		c3.3,3.1,3.3,7,3,9c-0.4,2.7-1.7,5.2-3.6,7c-0.2-0.3-0.4-0.6-0.7-0.8c-1.2-1.2-2.8-1.8-4.5-1.8c-2,0-3.9,0.9-5,2.3
		c-0.7,0.9-1.2,2-1.3,3.1c-0.6-0.1-1.1-0.3-1.6-0.5c-1.4-0.6-2.9-1.2-4.4-2c-1.2-0.6-2.4-1.2-3.7-1.7c-6.4-2.7-12.8-4.2-19-4.3
		c-0.2,0-0.5,0-0.7,0c-4.8,0-8.9,0.9-12.5,2.7C28.3,44.6,32.3,42.1,38.1,41z"/>
	<path d="M70.4,91C70.4,91,70.4,91,70.4,91C70.4,91,70.4,91,70.4,91C70.4,91,70.4,91,70.4,91z"/>
	<path d="M104.1,61.4c-0.2,0.5-0.3,0.9-0.5,1.4C103.7,62.4,103.9,61.9,104.1,61.4z"/>
	<path d="M104.1,61.3c0,0,0,0.1,0,0.1c0,0,0,0,0,0C104.1,61.4,104.1,61.3,104.1,61.3z"/>
</g>
</svg>
