<?xml version="1.0" encoding="utf-8"?>
<!-- Generator: Adobe Illustrator 21.1.0, SVG Export Plug-In . SVG Version: 6.00 Build 0)  -->
<svg version="1.1" id="Layer_1" xmlns="http://www.w3.org/2000/svg" xmlns:xlink="http://www.w3.org/1999/xlink" x="0px" y="0px"
	 viewBox="0 0 128 128" style="enable-background:new 0 0 128 128;" xml:space="preserve">
<g>
	<path d="M127,62.2c-0.3-1-2.6-9.6-8.7-14.7c-4.5-3.8-10.5-6.1-17.3-6.6c0-0.7-0.1-1.4-0.5-2.2c-1.1-2.7-5.1-10.3-15.7-10.3
		c-1.7,0-3.5,0.2-5.4,0.6c-3.3,0.7-6.2,2.4-9.1,5.3c-0.7,0.7-1.1,1.5-1.3,2.1c-1.7,0.2-3.3,0.8-4.8,1.9c-0.1-0.6-0.2-1.1-0.5-1.7
		c-0.8-1.7-2.3-2.9-4.2-3.5c-0.7-0.2-1.4-0.3-2.1-0.3c-2.4,0-4.8,1.1-6.4,2.9c-1.6,1.8-2.3,4-2,6.3c-0.7,0.1-1.4,0.2-2.1,0.3
		c-2.6,0.5-5.1,1.5-7.5,2.7c-2.4,1.3-4.7,2.9-7.1,5c-1.3,1.1-2.5,2.2-3.6,3.3c-1.7,1.6-3.4,3.1-5.1,4.5c0,0,0,0,0,0
		c-0.1-0.2-0.1-0.3-0.2-0.4c-1.2-2.2-3.5-3.5-6.2-3.5c0,0,0,0,0,0c-2.6,0-5.1,1.3-6.5,3.5c-1.6,2.3-1.9,5.3-0.8,7.9
		c1,2.4,2.5,4.2,4.6,5.3c0.5,0.4,1.1,0.6,1.5,0.7c0.3,0.1,0.7,0.2,1,0.3c-0.3,0.6-0.5,1.2-0.8,1.8c-0.4,0.7-0.6,1.3-0.7,1.7
		c0,0.1,0,0.1,0,0.2c-0.8,2.2-1.6,4.4-2.4,6.5l-0.3,0.9c-0.1-0.1-0.2-0.2-0.4-0.3c-1.3-1-2.7-1.5-4.3-1.5c-1,0-1.9,0.2-2.9,0.6
		c-2.8,1.2-4.5,3.5-4.9,6.4c-0.3,2.2,0.1,5.3,3.5,7.9c2.5,2,5.6,2.3,6.9,2.3c0.5,0,0.9,0,1.3-0.1c4.2-0.6,8.1-2.6,11.7-6.1
		c0.4-0.3,0.8-0.7,1.2-1c0.9,0.4,2.1,0.6,3.4,0.6c0.2,0,0.4,0,0.6,0c5.1-0.2,9.2-3.1,11.1-7.7c0.2,1.7,0.9,3.2,2.1,4.5
		c1.4,1.6,3.1,2.2,4.3,2.3c0.5,0.1,1.1,0.2,1.7,0.2c3.2,0,6.2-2.1,7.5-5c0.4,0.8,0.8,1.6,1.3,2.4c1.6,2.7,3.8,5,6.5,6.6
		c1.9,1.3,4.1,2.2,6.5,2.5c0.2,0,0.4,0.1,0.7,0.1c0.8,0.1,1.7,0.2,2.5,0.2c2.5,0,4.9-0.5,7.5-1.6c0.7-0.3,1.4-0.6,2.2-1.2
		c1.9,1.3,4,2.2,5.8,2.9c1.5,0.6,3.1,1.1,4.9,1.2c1.6,0.3,3.3,0.5,5,0.5c1.6,0,3.3-0.2,5.2-0.5c4.4-0.8,8.6-2.6,12.6-5.7
		c0.5-0.4,2.4-2,2.4-2c1.5-1.3,2.8-2.8,4.3-4.7c0.4-0.5,2-3.1,2.5-4.1C126.4,80.3,129.6,72.3,127,62.2z M76.4,34.5
		c0.6-0.4,1.2-0.7,1.8-0.9c0.6-0.3,1.3-0.5,2-0.6c0.4-0.1,0.8-0.2,1.2-0.2c0.1,0,0.2,0,0.3,0c0.3,0,0.6-0.1,0.9-0.1
		c0.1,0,0.2,0,0.4,0c0.2,0,0.5,0,0.7-0.1c0.1,0,0.3,0,0.4,0c0.2,0,0.4,0,0.7,0c0,0,0,0,0,0c0,0,0.1,0,0.1,0c0.5,0,1,0,1.5,0.1
		c0,0,0.1,0,0.1,0c0.5,0,0.9,0.1,1.3,0.2c0.1,0,0.1,0,0.2,0c0.4,0.1,0.8,0.2,1.2,0.3c0.1,0,0.1,0,0.2,0.1c0.4,0.1,0.8,0.3,1.1,0.4
		c0,0,0,0,0.1,0c0.3,0.2,0.7,0.3,1,0.5c0,0,0.1,0,0.1,0.1c0.3,0.2,0.6,0.4,0.9,0.6c0,0,0.1,0.1,0.1,0.1c0.3,0.2,0.5,0.4,0.7,0.6
		c0,0,0.1,0.1,0.1,0.1c0.2,0.2,0.5,0.4,0.7,0.6c0,0,0,0,0,0c0.2,0.2,0.4,0.4,0.6,0.7c0,0,0,0,0.1,0.1c0.2,0.2,0.3,0.4,0.5,0.6
		c0,0,0,0.1,0.1,0.1c0.1,0.2,0.3,0.4,0.4,0.6c0,0,0,0.1,0.1,0.1c0.1,0.2,0.2,0.4,0.3,0.6c0,0,0,0,0,0c0.1,0.2,0.2,0.3,0.3,0.5
		c0,0,0,0,0,0.1c0.1,0.1,0.1,0.3,0.2,0.4c0,0,0,0,0,0.1c0,0.1,0.1,0.2,0.1,0.3c0,0,0,0.1,0,0.1c0,0,0,0.1,0,0.1c0,0,0,0,0,0
		c0.1,0.1,0.2,0.3,0.2,0.4c-0.2,0-0.4,0-0.6,0c0,0,0,0,0,0c0,0,0,0,0,0c-0.2-0.1-0.7-0.6-1.5-1.3c-0.1-0.1-0.3-0.2-0.4-0.3
		c-0.3-0.2-0.6-0.5-1-0.7c-0.2-0.1-0.4-0.2-0.6-0.4c-0.4-0.2-0.8-0.5-1.3-0.7c-0.3-0.2-0.7-0.4-1.1-0.5c-0.6-0.3-1.2-0.5-1.9-0.7
		c-0.3-0.1-0.6-0.2-0.9-0.2c-0.1,0-0.2,0-0.3,0c-0.2,0-0.4-0.1-0.6-0.1c-0.1,0-0.2,0-0.4,0c-0.2,0-0.4,0-0.6,0c-0.1,0-0.2,0-0.4,0
		c-0.1,0-0.2,0-0.3,0c-0.2,0-0.3,0-0.5,0c0,0,0,0,0,0c-0.9,0.2-1.7,0.3-2.6,0.6s-1.6,0.7-2.3,1.2c-0.6,0.4-1.1,0.9-1.5,1.3
		c-0.1-0.1-0.3-0.2-0.4-0.2c-0.2-0.2-0.5-0.4-1-0.6c-0.2-0.1-1-0.5-2-0.5c-0.1,0-0.2,0-0.3,0c-0.1-0.1-0.3-0.1-0.4-0.1l0,0
		c-0.3-0.2-0.7-0.3-1-0.4h0C74.2,36.1,75.2,35.2,76.4,34.5z M80,46.9c0.7,1.3,1,2.7,1.1,4.3c0.1,0.8,0.2,1.7,0.2,2.5
		c0,0.1,0,0.1,0,0.2c0,0.7-0.1,1.4-0.2,2.1c0,0.1,0,0.2,0,0.3c-0.2,1.2-0.4,2.3-0.7,3.4c-0.1-0.2-0.2-0.4-0.3-0.7
		c-0.1-0.2-0.2-0.4-0.2-0.6c-0.2-0.8-0.4-1.5-0.6-2.1c0.3-1.3,0.5-2.6,0.7-3.9C80.1,50.9,80.3,49,80,46.9z M81.3,41.7
		c0.3-0.3,0.6-0.6,1-0.8c0.7-0.5,1.6-0.8,2.9-1.1c0,0,0.1,0,0.1,0c1,0,1.7,0.1,2.3,0.3c1,0.3,2,0.8,3.1,1.4
		c-2.1,0.3-3.9,0.8-5.1,1.2c-0.3,0.1-0.6,0.2-0.9,0.2c-0.4,0-0.7-0.1-1.1-0.3c-0.3-0.1-0.5-0.3-0.8-0.4L82.3,42
		C82,41.8,81.6,41.7,81.3,41.7z M52.8,41c0-0.1,0-0.2,0-0.4c0-0.1,0-0.1,0-0.2c0-0.1,0-0.2,0.1-0.3c0-0.1,0-0.1,0.1-0.2
		c0-0.1,0.1-0.2,0.1-0.3c0-0.1,0.1-0.1,0.1-0.2c0-0.1,0.1-0.2,0.1-0.3c0-0.1,0.1-0.1,0.1-0.2c0.1-0.1,0.1-0.2,0.2-0.3
		c0,0,0.1-0.1,0.1-0.1c0.1-0.1,0.2-0.3,0.3-0.4c0,0,0,0,0.1-0.1c0.1-0.1,0.2-0.2,0.3-0.3c0,0,0.1-0.1,0.1-0.1
		c0.1-0.1,0.2-0.1,0.3-0.2c0.1,0,0.1-0.1,0.2-0.1c0.1-0.1,0.2-0.1,0.3-0.1c0.1,0,0.1-0.1,0.2-0.1c0.1,0,0.2-0.1,0.3-0.1
		c0.1,0,0.1,0,0.2-0.1c0.1,0,0.2-0.1,0.3-0.1c0.1,0,0.1,0,0.2,0c0.1,0,0.2,0,0.4-0.1c0,0,0.1,0,0.1,0c0.1,0,0.3,0,0.4,0c0,0,0,0,0,0
		c0.1,0,0.2,0,0.3,0c0.1,0,0.1,0,0.2,0c0.2,0,0.3,0.1,0.5,0.1c0.5,0.1,0.9,0.4,1.2,0.6c0.3,0.3,0.5,0.6,0.6,0.9
		c0.1,0.2,0.1,0.4,0.1,0.5c0,0,0,0,0,0c0,0.6-0.1,1.2-0.4,1.8h0c0,0,0-0.1,0-0.1c0-0.1,0-0.1-0.1-0.2c0-0.1-0.1-0.2-0.1-0.3
		c-0.1-0.3-0.3-0.5-0.4-0.8c-0.2-0.3-0.4-0.6-0.6-0.7c0,0,0,0,0,0c-0.1-0.1-0.3-0.1-0.4-0.2c0,0-0.1,0-0.1,0c-0.1,0-0.2,0-0.3,0
		c0,0,0,0-0.1,0c0,0,0,0-0.1,0c0,0-0.1,0-0.1,0c-0.1,0-0.1,0-0.2,0c0,0-0.1,0-0.1,0c-0.1,0-0.1,0-0.2,0.1c0,0-0.1,0-0.1,0
		c-0.1,0-0.1,0.1-0.2,0.2c0,0,0,0,0,0c0,0.1-0.1,0.1-0.1,0.2c0,0,0,0.1,0,0.1c0,0.1,0,0.1-0.1,0.2c0,0,0,0.1,0,0.1
		c0,0.1,0,0.1,0,0.2c0,0,0,0.1,0,0.1c0,0.1,0,0.1,0.1,0.2c0,0,0,0.1,0,0.1c0,0.1,0.1,0.2,0.2,0.3c0,0,0,0,0,0
		c0.1,0.1,0.2,0.2,0.3,0.3c0,0,0.1,0.1,0.1,0.1c0.1,0.1,0.2,0.1,0.3,0.2c0.1,0,0.1,0.1,0.2,0.1c0.1,0.1,0.2,0.1,0.4,0.2
		c0.1,0,0.1,0.1,0.2,0.1c0.1,0.1,0.3,0.1,0.5,0.2c0.1,0,0.2,0.1,0.2,0.1c0.3,0.1,0.5,0.2,0.9,0.3c0.1,0,0.3,0.1,0.5,0.1
		c0.5,0.1,1,0.3,1.7,0.5c0,0,0.1,0,0.1,0c0.3,0.1,0.6,0.2,0.9,0.4c1.3,0.5,2.7,1.4,4.1,2.7c0.1,0.1,0.2,0.2,0.3,0.3
		c0.3,0.3,0.6,0.7,0.8,1.1c0,0.1,0.1,0.1,0.1,0.2c-0.5-0.4-1.7-1.2-2.5-1.6c0,0-0.1-0.1-0.1-0.1l0,0l0,0c-1.7-0.9-3.7-1.6-5.8-2.2
		s-4.4-0.9-6.8-1.1c-0.1-0.1-0.1-0.2-0.1-0.4c0-0.1,0-0.1-0.1-0.2c0-0.2,0-0.4,0-0.6C52.8,41.1,52.8,41.1,52.8,41z M20.9,89L20.9,89
		c-0.3,0.3-0.7,0.6-1,0.9c-0.9,0.8-1.7,1.4-2.7,2c-1,0.6-2.1,1.2-3.2,1.6c-0.9,0.3-1.8,0.5-2.8,0.7c-0.1,0-0.2,0-0.4,0
		c0,0-0.1,0-0.1,0c-0.1,0-0.2,0-0.3,0c-0.1,0-0.1,0-0.2,0c-0.1,0-0.3,0-0.4,0c-0.1,0-0.1,0-0.2,0c-0.2,0-0.3,0-0.5-0.1
		c0,0-0.1,0-0.1,0c-0.2,0-0.4-0.1-0.7-0.2c-0.1,0-0.1,0-0.2-0.1c-0.2-0.1-0.3-0.1-0.5-0.2c-0.1,0-0.2-0.1-0.2-0.1
		c-0.2-0.1-0.3-0.1-0.5-0.2c-0.1,0-0.1-0.1-0.2-0.1c-0.2-0.1-0.4-0.3-0.6-0.4c-0.1-0.1-0.2-0.2-0.3-0.3v0c-1.1-0.9-1.8-2-1.8-3.4
		c0-0.2,0-0.4,0-0.7C4.2,87,5.1,86,6.5,85.4c0.2-0.1,0.4-0.1,0.6-0.2c0,0,0.1,0,0.1,0c0.2,0,0.4-0.1,0.6-0.1c0,0,0,0,0,0
		c0,0,0.1,0,0.1,0c0.1,0,0.2,0,0.3,0c0.1,0,0.1,0,0.2,0c0.1,0,0.2,0,0.3,0.1c0.1,0,0.1,0,0.2,0.1c0.1,0,0.2,0.1,0.3,0.1
		c0,0,0.1,0,0.1,0.1c0.1,0.1,0.3,0.2,0.4,0.3c0.6,0.5,0.9,1,1,1.6c0,0.2,0,0.5-0.1,0.7c0,0.1-0.1,0.2-0.2,0.3c0,0-0.1,0.1-0.1,0.1
		c-0.1,0.1-0.2,0.2-0.4,0.3c0,0,0,0,0,0c-0.1,0-0.1,0.1-0.2,0.1c0,0,0,0,0,0c0,0-0.1,0-0.1,0c0,0-0.1-0.1-0.1-0.1c0-0.1,0-0.2,0-0.2
		c0.1-0.2,0.1-0.3,0.1-0.5c0-0.2,0-0.4-0.1-0.6c-0.1-0.2-0.3-0.4-0.5-0.5c-0.1-0.1-0.3-0.1-0.4-0.2c0,0-0.1,0-0.1,0
		c-0.1,0-0.1,0-0.2,0c0,0,0,0-0.1,0c-0.1,0-0.2,0-0.3,0.1c-0.1,0-0.1,0-0.2,0c-0.2,0.1-0.3,0.2-0.4,0.3c0,0,0,0,0,0
		c-0.2,0.2-0.3,0.3-0.4,0.6c0,0.1-0.1,0.1-0.1,0.2c0,0.3,0,0.6,0.1,1C6.9,89,7,89.1,7.1,89.3c0,0,0.1,0.1,0.1,0.1
		c0.1,0.1,0.1,0.2,0.2,0.2c0,0,0.1,0.1,0.1,0.1c0.1,0.1,0.1,0.1,0.2,0.2c0,0,0.1,0.1,0.1,0.1c0.1,0,0.1,0.1,0.2,0.1
		c0,0,0.1,0.1,0.1,0.1c0,0,0.1,0.1,0.1,0.1c0,0,0.1,0,0.1,0.1c0,0,0.1,0,0.1,0c0,0,0.1,0,0.1,0c0,0,0.1,0,0.1,0c0,0,0,0,0,0
		c0,0,0,0,0,0c0,0,0,0,0,0h0c0,0,0,0,0,0c0.3,0.1,0.5,0.1,0.8,0.1c0,0,0.1,0,0.1,0c0,0,0.1,0,0.1,0c0.2,0,0.4,0,0.6,0
		c0,0,0.1,0,0.1,0c0.2,0,0.5-0.1,0.7-0.2c0.1,0,0.1-0.1,0.2-0.1c0.2-0.1,0.3-0.1,0.4-0.2c0.1,0,0.2-0.1,0.2-0.1
		c0.1-0.1,0.3-0.2,0.4-0.3c0.1-0.1,0.2-0.1,0.2-0.2c0.1-0.1,0.2-0.2,0.3-0.3c0.1-0.1,0.1-0.1,0.2-0.2c0.1-0.1,0.2-0.2,0.4-0.4
		c0.1-0.1,0.1-0.1,0.2-0.2c0.2-0.2,0.3-0.4,0.5-0.6c0.6-0.7,1-1.6,1.6-2.4c1-2.9,2.1-5.8,3.1-8.7c0.2-0.5,0.2-1,0.6-1.4
		c0.5-1.6,1.3-3.1,2.4-4.5h0c1.4-2.1,3.2-3.8,5.1-5.4c0.2-0.1,0.3-0.2,0.4-0.4c0-0.1,0.1-0.1,0.1-0.2h0l0,0l0,0
		c-0.7,0.4-1.4,0.9-2.2,1.3c-0.4,0.2-0.7,0.4-1.1,0.6s-0.8,0.4-1.2,0.5c0,0,0,0,0,0c-0.3,0.1-0.6,0.2-0.8,0.3c-0.1,0-0.2,0-0.3,0.1
		c-0.2,0.1-0.4,0.1-0.6,0.2c-0.1,0-0.2,0-0.3,0.1c-0.2,0-0.4,0.1-0.6,0.1c-0.1,0-0.2,0-0.3,0c-0.3,0-0.6,0-0.8,0c0,0,0,0,0,0
		c0,0,0,0,0,0c0,0,0,0,0,0c-0.2,0-0.4,0-0.6,0c-0.1,0-0.1,0-0.2,0c-0.2,0-0.3,0-0.5-0.1c-0.1,0-0.1,0-0.2,0
		c-0.2-0.1-0.5-0.1-0.7-0.2c0,0,0,0,0,0c-0.1,0-0.1-0.1-0.2-0.1c-0.2-0.1-0.3-0.1-0.5-0.3c-0.7-0.3-1.3-0.8-1.8-1.4
		c-0.5-0.6-0.8-1.2-1.1-2h0c-0.1-0.2-0.1-0.4-0.2-0.5c0-0.1,0-0.1,0-0.2c0-0.1-0.1-0.2-0.1-0.4c0-0.1,0-0.1,0-0.2c0-0.1,0-0.2,0-0.3
		c0-0.1,0-0.1,0-0.2c0-0.1,0-0.2,0-0.4c0,0,0-0.1,0-0.1c0-0.1,0-0.3,0.1-0.4c0-0.1,0-0.1,0-0.1c0-0.1,0.1-0.2,0.1-0.3
		c0,0,0-0.1,0.1-0.1c0-0.1,0.1-0.2,0.1-0.3c0,0,0-0.1,0.1-0.1c0.1-0.1,0.1-0.2,0.2-0.3c0,0,0.1-0.1,0.1-0.1c0.1-0.1,0.1-0.2,0.2-0.3
		c0,0,0.1-0.1,0.1-0.1c0.1-0.1,0.1-0.2,0.2-0.3c0,0,0.1-0.1,0.1-0.1c0.1-0.1,0.2-0.1,0.2-0.2c0,0,0.1-0.1,0.1-0.1
		c0.1-0.1,0.2-0.1,0.3-0.2c0.1,0,0.1-0.1,0.2-0.1c0.1,0,0.2-0.1,0.3-0.1c0.1,0,0.1-0.1,0.2-0.1c0.1,0,0.2-0.1,0.3-0.1
		c0.1,0,0.2,0,0.2-0.1c0.1,0,0.2,0,0.3-0.1c0.1,0,0.2,0,0.3,0c0.1,0,0.2,0,0.2,0c0,0,0,0,0,0c0,0,0,0,0,0c1.2,0,2.1,0.4,2.7,1.5
		c0.1,0.2,0.2,0.5,0.2,0.7c0,0.3,0,0.7-0.1,1.1c-0.1,0.4-0.3,0.9-0.7,1.3c-0.3-0.1-0.1-0.4-0.2-0.6c0,0,0,0,0,0h0
		c0-0.2-0.1-0.4-0.1-0.6c0,0,0,0,0-0.1c-0.1-0.2-0.1-0.3-0.2-0.4c0,0,0,0-0.1-0.1c-0.1-0.1-0.2-0.2-0.4-0.3c0,0,0,0-0.1,0
		c-0.1-0.1-0.3-0.1-0.5-0.1c0,0,0,0,0,0c-0.1,0-0.2,0-0.3,0c-0.3,0-0.5,0.2-0.7,0.3c-0.4,0.3-0.5,0.9-0.4,1.5c0,0,0,0.1,0,0.1
		c0,0.1,0.1,0.2,0.1,0.3c0,0,0,0.1,0,0.1c0.1,0.2,0.2,0.4,0.4,0.6c0,0,0.1,0.1,0.1,0.1c0.2,0.2,0.3,0.3,0.5,0.4c0,0,0.1,0,0.1,0
		c0.2,0.1,0.4,0.2,0.6,0.2c0,0,0.1,0,0.1,0c0.2,0.1,0.5,0.1,0.7,0.1c0,0,0,0,0.1,0c0,0,0.1,0,0.1,0c0.3,0,0.6,0,0.9-0.1c0,0,0,0,0,0
		c0.3-0.1,0.7-0.1,1-0.2c1.9-0.5,3.5-1.7,5-2.9c1.5-1.2,3-2.6,4.5-3.9c1.5-1.3,2.9-2.7,4.4-4c1.5-1.3,3-2.5,4.7-3.5
		c0.5-0.3,1.1-0.7,1.7-1c1.8-1,3.6-1.7,5.4-2.1c0.3-0.1,0.7-0.2,1-0.3c0,0,0,0,0,0c0.4-0.1,0.8-0.2,1.3-0.2c0.1,0,0.3,0,0.4-0.1
		c0.3,0,0.6-0.1,0.8-0.1c0.2,0,0.3,0,0.5,0c0.2,0,0.5,0,0.7,0c0.1,0,0.2,0,0.2,0c0.4,0.1,0.7,0.2,1.1,0.3c4,0.3,7.4,1.2,10.3,2.5
		c-1.4,0-2.6,0.2-3.7,0.4c-0.5,0-1,0.2-1.2,0.2c-2.9,0.9-5.7,2.2-8.1,4c-1.3,1-2.8,2.1-3.9,3.7c-0.6,0-1.1,0.1-1.4,0.2
		c-1.2,0.2-2.3,0.6-3.4,1c0,0,0,0,0,0c-0.1,0-0.1,0-0.2,0c0,0-0.1,0-0.1,0c-0.1,0-0.1,0-0.2,0c-0.4,0-0.9,0-1.3,0.1c0,0-0.1,0-0.1,0
		c-0.4,0-0.8,0.1-1.2,0.2c-0.1,0-0.2,0-0.3,0.1c-0.4,0.1-0.8,0.2-1.2,0.3c-0.1,0-0.1,0-0.2,0.1c-0.4,0.1-0.7,0.2-1.1,0.4
		c-0.1,0-0.2,0.1-0.2,0.1c-0.4,0.2-0.8,0.3-1.2,0.5c-0.1,0-0.2,0.1-0.2,0.1c-0.3,0.2-0.7,0.4-1,0.6c0,0-0.1,0.1-0.1,0.1
		c-0.4,0.2-0.7,0.5-1.1,0.8c-0.1,0.1-0.2,0.1-0.3,0.2c-0.4,0.3-0.7,0.6-1.1,0.9c0,0,0,0,0,0c-0.3,0.2-0.5,0.4-0.8,0.6c0,0,0,0,0,0h0
		h0c0,0,0,0,0,0c0.1,0,0.1,0.1,0.2,0.1c0,0,0,0,0,0c0,0,0,0,0,0c0.1,0,0.1,0,0.1,0c0,0,0,0,0,0c0,0,0.1-0.1,0.1-0.1
		c0,0,0.1-0.1,0.1-0.1c0,0,0,0,0,0c1.8-1.2,3.6-2.2,5.6-2.9c0.7-0.2,1.3-0.5,2-0.7c0,0,0,0,0,0c0.2-0.1,0.4-0.1,0.7-0.1
		c0.1,0,0.2,0,0.3,0c0.1,0,0.1,0,0.2,0c-1.5,0.7-2.9,1.6-4.2,2.6c-3,2.3-4.9,4.8-6,7.7c-0.4,0.8-0.6,1.7-0.8,2.5
		c-0.8,1.1-1.6,2.2-2.3,3.3c-1.7,0.3-3.2,1.2-4.4,2.5c-2.7,3.1-2.6,7.6,0.2,10.8C21.2,88.8,21,88.9,20.9,89z M41.8,63.9
		c-0.1,0.3-0.3,0.5-0.4,0.8c-2.1,3.7-2.6,7.9-2.7,10.1c0,0.8,0.1,1.5,0.5,2.1c0,0,0,0,0,0c0,0-0.1,0.1-0.1,0.1
		c-0.1,0.1-0.2,0.2-0.3,0.3c-0.1,0.1-0.2,0.2-0.2,0.3c-0.1,0.1-0.1,0.2-0.2,0.3c-0.1,0.1-0.2,0.2-0.3,0.3c0,0,0,0.1-0.1,0.1
		c-0.3,0.4-0.6,0.8-0.8,1.3c-0.3,0.4-0.4,0.9-0.6,1.3c-0.5,1.9-1.4,3.5-2.8,4.7c-1.4,1.2-3.2,1.9-5.4,2c0,0,0,0,0,0
		c-0.1,0-0.2,0-0.3,0c0,0-0.1,0-0.1,0c-0.1,0-0.1,0-0.2,0c-0.1,0-0.2,0-0.3,0c-0.1,0-0.1,0-0.2,0c0,0,0,0,0,0c0,0,0,0,0,0
		c-0.1,0-0.2,0-0.3,0c-0.1,0-0.1,0-0.2,0c-0.1,0-0.2,0-0.3-0.1c-0.1,0-0.1,0-0.2-0.1c-0.1,0-0.2-0.1-0.3-0.1c-0.1,0-0.1-0.1-0.2-0.1
		c-0.1,0-0.2-0.1-0.3-0.1c-0.1,0-0.1-0.1-0.2-0.1c-0.1-0.1-0.2-0.1-0.3-0.2c0,0-0.1-0.1-0.1-0.1c-0.1-0.1-0.2-0.2-0.4-0.3
		c0,0,0,0,0,0h0c-1.7-1.7-1.8-4.2-0.4-5.8c0.2-0.2,0.3-0.3,0.5-0.5c0.1,0,0.1-0.1,0.2-0.1c0.1-0.1,0.3-0.2,0.4-0.2
		c0.1,0,0.2-0.1,0.2-0.1c0.1-0.1,0.3-0.1,0.4-0.1c0.1,0,0.2,0,0.3-0.1c0.1,0,0.3,0,0.4,0c0.1,0,0.2,0,0.3,0c0.1,0,0.1,0,0.2,0
		c0.1,0,0.2,0,0.4,0.1c0.1,0,0.1,0,0.2,0.1c0,0,0.1,0,0.1,0c0,0,0,0,0,0c0.1,0,0.2,0.1,0.3,0.1c0.1,0,0.1,0,0.2,0.1
		c0.2,0.1,0.3,0.2,0.5,0.3c0,0,0,0,0,0c0.2,0.2,0.3,0.4,0.5,0.6c0,0,0,0,0,0c0.2,0.3,0.3,0.6,0.3,0.9c0,0.2,0,0.4-0.1,0.6
		c0,0.1-0.1,0.2-0.1,0.3c0,0,0,0,0,0c-0.1,0.1-0.1,0.2-0.2,0.3c0,0-0.1,0.1-0.1,0.1c-0.1,0.1-0.1,0.1-0.2,0.2c0,0-0.1,0-0.1,0.1
		c-0.1,0-0.1,0.1-0.2,0.1c0,0-0.1,0-0.1,0c-0.1,0-0.1,0-0.2,0c0,0,0,0-0.1,0c0,0-0.1,0-0.1,0c0,0-0.1,0-0.1,0c-0.1,0-0.1,0-0.2,0
		c0,0-0.1,0-0.1,0c-0.1,0-0.1-0.1-0.2-0.1c0,0-0.1,0-0.1-0.1c-0.1-0.1-0.2-0.1-0.3-0.2h0c0,0,0,0,0,0c0,0,0-0.1,0.1-0.1
		c0.1,0,0.2-0.1,0.4-0.1c0.1,0,0.2-0.1,0.3-0.2c0.1-0.1,0.2-0.2,0.2-0.3c0-0.1,0-0.2,0-0.4c0-0.1,0-0.2-0.1-0.3c0,0,0,0-0.1-0.1
		c0-0.1-0.1-0.1-0.1-0.1c0,0-0.1,0-0.1-0.1c0,0-0.1-0.1-0.1-0.1c0,0-0.1,0-0.1,0c0,0-0.1,0-0.1,0c0,0,0,0,0,0c-0.1,0-0.1,0-0.2,0
		c-0.5,0.1-0.8,0.3-1,0.7c-0.1,0.1-0.1,0.2-0.1,0.3c0,0.2,0,0.3,0,0.5c0,0.4,0.2,0.9,0.5,1.2h0c0.2,0.1,0.3,0.2,0.5,0.3
		c0,0,0.1,0,0.1,0.1c0.1,0,0.2,0.1,0.3,0.1c0,0,0.1,0,0.1,0c0.1,0,0.2,0,0.3,0c0,0,0.1,0,0.1,0c0,0,0,0,0,0c0,0,0.1,0,0.1,0
		c0.1,0,0.3,0,0.4-0.1c0.1,0,0.1,0,0.2-0.1c0.1,0,0.2-0.1,0.3-0.2c0.1,0,0.1-0.1,0.2-0.1c0.1-0.1,0.2-0.2,0.3-0.3
		c0,0,0.1-0.1,0.1-0.1c0.1-0.2,0.3-0.3,0.4-0.5c0.1-0.1,0.1-0.2,0.2-0.3c0.1-0.2,0.2-0.4,0.3-0.6c0.2-0.5,0.3-1,0.4-1.5
		c0.1-0.4,0.1-0.9,0.2-1.3s0.1-0.9,0.1-1.3c0.1-0.9,0.1-1.7,0.2-2.6c0-0.3,0.1-0.6,0.1-0.8c0-0.2,0.1-0.3,0.1-0.5
		c0.1-0.4,0.2-0.8,0.3-1.2c0.1-0.3,0.2-0.5,0.3-0.8c0.1-0.3,0.2-0.5,0.3-0.8c0.6-1.6,1.5-2.9,2.6-4.1c0.2-0.2,0.5-0.5,0.7-0.7
		c0.5-0.4,1-0.9,1.5-1.3c0.9-0.7,1.9-1.4,3-1.9c0.9-0.5,1.9-0.9,2.8-1.2C42.5,62.6,42.1,63.3,41.8,63.9z M42.7,75c0-0.2,0-0.4,0-0.6
		c0-0.1,0-0.2,0-0.4c0-0.5,0.1-1.2,0.3-1.9s0.3-1.5,0.6-2.4c0.3-1,0.7-2.1,1.3-3.1c0.1-0.2,0.2-0.3,0.3-0.5c0.3-0.5,0.5-1.1,0.8-1.6
		c0.1-0.2,0.3-0.5,0.4-0.7c0.6-1.1,1.2-2.1,2-3c0.2-0.3,0.5-0.6,0.7-1c0.4-0.7,0.9-1.2,1.4-1.8c0,0,0,0,0.1-0.1c0,0,0.1-0.1,0.1-0.1
		c0.5-0.5,1.1-0.9,1.7-1.4c2.1-1.5,4.3-2.6,6.8-3.3c0.1,0,0.2,0,0.3-0.1c0,0,0.1,0,0.1,0c0.1,0,0.2,0,0.3,0c0,0,0,0,0,0
		c0.2-0.1,0.5-0.1,0.7-0.2c0.1,0,0.2,0,0.2,0c0.2,0,0.4-0.1,0.6-0.1c0.1,0,0.2,0,0.3,0c0.3,0,0.5,0,0.8-0.1c0,0,0,0,0.1,0
		c0.3,0,0.6,0,0.8,0c0.4,0,0.8,0,1.2,0c0,0,0.1,0,0.1,0c0.4,0,0.8,0,1.2,0.1c0,0,0.1,0,0.1,0c0.4,0,0.8,0.1,1.1,0.1c0,0,0,0,0,0
		c0.8,0.1,1.4,0.2,1.4,0.2c0,0-0.2,0.7-0.6,1.6c-0.4,1-0.9,2.3-1.4,3.2c-0.1,0.1-0.1,0.2-0.2,0.3c-0.2,0.3-0.3,0.6-0.5,0.9
		c-0.5,0.9-1,1.8-1.5,2.7c0,0,0,0,0,0c0,0.1-0.1,0.1-0.1,0.2c0,0,0,0,0,0c0,0-0.1,0-0.1,0c0,0,0,0,0,0c0,0,0,0,0,0
		c-0.1,0-0.1,0-0.2-0.1c-0.6-0.3-1.2-0.7-1.9-1C61,60.7,60,60.5,59,60.4h0h0c0,0,0,0,0,0c-0.1,0-0.2,0-0.2,0c-0.2,0-0.4,0-0.6,0
		c-0.2,0-0.4,0-0.6,0c-0.2,0-0.4,0.1-0.6,0.1c-0.2,0-0.4,0.1-0.5,0.1c-0.2,0.1-0.4,0.1-0.6,0.2c-0.2,0.1-0.3,0.1-0.5,0.2
		c-0.2,0.1-0.4,0.2-0.6,0.2c-0.2,0.1-0.3,0.1-0.5,0.2c-0.2,0.1-0.4,0.2-0.6,0.3c-0.1,0.1-0.3,0.1-0.4,0.2c-0.2,0.1-0.4,0.3-0.7,0.4
		c-0.1,0.1-0.2,0.1-0.4,0.2c-0.3,0.2-0.6,0.3-0.9,0.5c-0.1,0-0.1,0.1-0.2,0.1c-0.3,0.2-0.7,0.4-1,0.6c-4.1,2.5-6,7-6.9,9.6
		C43.1,74.1,42.9,74.7,42.7,75z M57.7,64.5c0.3-0.1,0.7-0.1,1-0.1c0.7,0.1,1.2,0.2,1.7,0.4c0.1,0,0.2,0.1,0.2,0.1
		c0.4,0.2,0.8,0.4,1.2,0.6c0.1,0.1,0.2,0.1,0.3,0.1c-0.3,0.3-0.6,0.6-0.9,0.9c-1-0.2-1.9-0.3-2.9-0.3c-0.3,0-0.5,0-0.8,0
		c0-0.1,0-0.3,0-0.4c0-0.2,0-0.5,0.1-0.7l0-0.2C57.8,64.8,57.7,64.7,57.7,64.5z M51.9,83.6c-0.1,0.3-0.1,0.5-0.3,0.8
		c0,0.1-0.1,0.1-0.1,0.2c-0.1,0.2-0.2,0.3-0.3,0.5c-0.1,0.1-0.1,0.2-0.2,0.2c-0.1,0.1-0.2,0.3-0.3,0.4c-0.1,0.1-0.1,0.1-0.2,0.2
		c-0.1,0.1-0.3,0.2-0.4,0.3c-0.1,0.1-0.2,0.1-0.2,0.2c-0.2,0.1-0.3,0.2-0.5,0.3c-0.1,0-0.1,0.1-0.2,0.1c-0.2,0.1-0.5,0.2-0.7,0.2
		c-0.1,0-0.1,0-0.2,0c-0.2,0-0.3,0-0.5,0c0,0-0.1,0-0.1,0c0,0-0.1,0-0.1,0c-0.2,0-0.5-0.1-0.7-0.1c-0.5,0-1-0.2-1.4-0.5
		c-0.2-0.2-0.5-0.4-0.7-0.6c-0.3-0.3-0.5-0.6-0.7-0.9c-0.2-0.3-0.3-0.6-0.3-1c0-0.2-0.1-0.3-0.1-0.5c0-0.5,0.1-1,0.2-1.6
		c0.2-0.6,0.4-1.3,0.8-1.8c0.1-0.3,0.3-0.6,0.5-0.9c0.2-0.4,0.5-0.8,0.8-1.2c0.2-0.3,0.5-0.6,0.7-0.9c0.1-0.1,0.2-0.2,0.3-0.3h0
		c0.6-0.7,1.2-1.4,1.9-2c0,0,0.1-0.1,0.1-0.1c0.2,0.5,0.5,1.1,0.8,1.6c-0.6,0.7-1.2,1.4-1.8,2.2h0c0,0,0,0,0,0c0,0-0.1,0.1-0.1,0.1
		c-0.2,0.4-0.4,0.8-0.6,1.3c-0.1,0.2-0.2,0.4-0.3,0.6c-0.1,0.2-0.1,0.4-0.2,0.7c-0.1,0.3-0.1,0.5-0.1,0.8c0,0.6,0.1,1.1,0.5,1.6
		c0.1,0.1,0.2,0.3,0.3,0.4c0,0,0,0,0.1,0c0.1,0,0.1,0.1,0.2,0.1c0,0,0.1,0,0.1,0c0.1,0,0.1,0,0.2,0.1c0,0,0.1,0,0.1,0
		c0.1,0,0.1,0,0.2,0c0,0,0.1,0,0.1,0c0.1,0,0.1,0,0.2,0c0,0,0,0,0.1,0c0,0,0,0,0,0c0.1,0,0.2,0,0.3-0.1c0,0,0,0,0.1,0
		c0.1-0.1,0.2-0.1,0.4-0.2c0.2-0.2,0.4-0.4,0.5-0.7c0.1-0.2,0-0.5-0.2-0.7c0,0,0,0,0,0c-0.1-0.1-0.3-0.2-0.4-0.2c0,0-0.1,0-0.1,0
		c-0.1,0-0.2,0-0.2,0c0,0,0,0,0,0c-0.1,0-0.2,0-0.2,0c0,0,0,0,0,0c-0.1,0-0.1,0.1-0.2,0.1c0,0,0,0-0.1,0c-0.1,0-0.1,0.1-0.2,0.1
		c0,0,0,0,0,0c-0.1,0.1-0.2,0.1-0.2,0.2c0,0-0.1,0.1-0.1,0.1c-0.1,0.1-0.1,0.1-0.2,0.2c-0.1,0.1-0.2,0.2-0.3,0.3c0,0,0,0,0,0
		c0-0.3,0.1-0.6,0.2-0.8c0.1-0.5,0.3-0.9,0.7-1.3c0,0,0,0,0,0c0.1-0.1,0.3-0.2,0.5-0.3c0.1,0,0.1-0.1,0.2-0.1c0,0,0,0,0,0
		c0.2-0.1,0.4-0.1,0.6-0.1c0,0,0.1,0,0.1,0c0,0,0.1,0,0.1,0c0.1,0,0.3,0,0.4,0.1c0,0,0,0,0,0c0.2,0,0.3,0.1,0.5,0.2
		c0,0,0.1,0.1,0.1,0.1c0.2,0.1,0.3,0.2,0.5,0.4c0,0,0,0,0,0c0.5,0.5,0.8,1.1,0.7,1.8C52,83.1,52,83.3,51.9,83.6z M57.5,77
		c-0.2,0-0.3,0-0.5-0.1c0,0-0.1,0-0.1,0c-0.1,0-0.2-0.1-0.3-0.1c-0.1,0-0.1,0-0.2-0.1c-0.1,0-0.2-0.1-0.3-0.1
		c-0.1,0-0.1-0.1-0.2-0.1c-0.1-0.1-0.2-0.1-0.3-0.2c0,0-0.1-0.1-0.1-0.1c-0.1-0.1-0.3-0.2-0.4-0.3c0,0,0,0,0,0
		c-0.3-0.2-0.6-0.5-0.9-0.7c-0.6-0.5-1-1.1-1.4-1.8v0l0,0c-0.2-0.4-0.4-0.9-0.5-1.4c-0.1-0.3-0.1-0.6-0.1-0.9c0-0.3,0-0.6,0-0.9
		c0-1.1,0.2-2.2,0.6-3.3l0.3-0.2c0.2-0.1,0.4-0.2,0.6-0.3c0,0.8,0,1.6,0,2.4c0,0.2,0,0.4,0.1,0.6c0,0.1,0,0.1,0,0.2
		c0,0.2,0.1,0.3,0.1,0.5c0,0.1,0.1,0.2,0.1,0.2c0.1,0.1,0.1,0.3,0.2,0.4c0,0.1,0.1,0.1,0.1,0.2c0,0,0,0.1,0,0.1c0,0,0,0,0,0
		c0.3,0.4,0.6,0.8,1.1,1.1c0.1,0.1,0.3,0.2,0.4,0.3c0.1,0,0.2,0.1,0.2,0.1c0.2,0.1,0.3,0.1,0.5,0.2c0.1,0,0.2,0,0.3,0.1
		c0.2,0,0.5,0.1,0.7,0.1c0,0,0.1,0,0.1,0c0,0,0,0,0,0c0,0,0,0,0.1,0c0.2,0,0.4,0,0.7-0.1c0.1,0,0.2,0,0.2,0c0.2,0,0.4-0.1,0.6-0.1
		c0.1,0,0.2,0,0.2-0.1c0.3-0.1,0.6-0.2,0.9-0.4c0,0,0,0,0,0c0.3-0.1,0.6-0.3,0.9-0.5c0.1-0.1,0.2-0.1,0.3-0.2
		c0.2-0.2,0.5-0.3,0.7-0.5c0.1-0.1,0.2-0.1,0.3-0.2c0.3-0.3,0.7-0.6,1-0.9c1.5-1.4,2.8-3,3.9-4.7c0.2-0.3,0.5-0.7,0.7-1
		c0.1-0.1,0.2-0.3,0.3-0.4c0,0,0.1-0.1,0.1-0.1c0.4-0.7,0.7-1.4,1.1-2.1s0.7-1.4,1-2.1c0.3-0.7,0.6-1.5,0.9-2.3
		c0.5-1.2,0.9-2.4,1-2.9c0.2-0.6,0.2-1.3,0.1-1.9c0.1-0.9,0.3-1.8,0.3-2.7c0,0,0,0,0,0c0-1.1,0-2.2-0.3-3.3
		c-0.1-0.3-0.1-0.6-0.2-0.8c-0.1-0.3-0.2-0.5-0.3-0.8c-0.2-0.4-0.4-0.8-0.7-1.1c-0.1-0.1-0.2-0.2-0.2-0.4c-0.1-0.1-0.2-0.2-0.3-0.3
		c0,0-0.1-0.1-0.1-0.1c-0.1-0.1-0.1-0.1-0.2-0.2c0,0-0.1-0.1-0.1-0.1c-0.1-0.1-0.2-0.1-0.3-0.2c-0.1,0-0.1-0.1-0.2-0.1
		c-0.1,0-0.2-0.1-0.3-0.1c-0.1,0-0.1,0-0.2-0.1c0,0-0.1,0-0.1,0c-0.5-0.5-1.1-1-1.6-1.3c0.1,0,0.2-0.1,0.3-0.1
		c0.1,0,0.2-0.1,0.3-0.1c0.2-0.1,0.3-0.1,0.5-0.1c0.1,0,0.2,0,0.3-0.1c0.2,0,0.3,0,0.5,0c0.1,0,0.1,0,0.2,0c0,0,0,0,0.1,0
		c0,0,0,0,0,0c0,0,0.1,0,0.1,0c0.1,0,0.2,0,0.3,0c0.2,0,0.3,0,0.5,0.1c0.1,0,0.2,0,0.3,0.1c0.2,0,0.3,0.1,0.5,0.1
		c0.1,0,0.2,0,0.2,0.1c0.2,0.1,0.5,0.2,0.7,0.3c0,0,0,0,0,0c0.5,0.3,1.2,0.2,1.4,0.9c0.6,0.7,1,1.5,1.3,2.3c0.1,0.2,0.2,0.4,0.2,0.6
		c0.4,1.2,0.5,2.5,0.5,3.7c0,1.1-0.1,2.1-0.2,3.2c-0.3,3.1-1.2,6-2.3,8.8c-0.1,0.3-0.3,0.6-0.4,0.9c-0.2,0.5-0.5,1-0.7,1.5
		c-0.2,0.6-0.5,1.2-0.8,1.8c-0.3,0.6-0.7,1.1-1,1.7c-0.5,0.8-1,1.7-1.6,2.4c-0.6,0.8-1.1,1.6-1.8,2.3c-0.9,1-1.9,2-2.9,2.9
		c-0.4,0.4-0.9,0.7-1.3,1c-0.2,0.2-0.5,0.3-0.7,0.4c-0.2,0.1-0.3,0.2-0.4,0.4h0c0,0,0,0-0.1,0.1c0.6-0.3,1.1-0.5,1.6-0.9
		c1-0.7,2-1.4,2.9-2.3c0.2-0.2,0.4-0.4,0.6-0.7c0.2-0.2,0.4-0.5,0.6-0.7c0.4-0.4,0.7-0.8,1-1.2c2-2.6,3.6-5.4,4.9-8.4h0
		c0.2-0.4,0.3-0.7,0.5-1.1c0,0,0,0,0-0.1c0-0.1,0.1-0.2,0.1-0.3c0.2-0.5,0.3-1.1,0.5-1.6c0.2-0.6,0.4-1.1,0.5-1.7
		c0.3,0.7,0.5,1.4,0.6,2c0,0.1,0,0.1,0,0.2c0.1,0.2,0.2,0.4,0.2,0.6c0.2,0.6,0.5,1.2,0.7,1.8c0.1,0.2,0.2,0.4,0.3,0.5
		c0.1,0.1,0.1,0.3,0.2,0.4c0.1,0.2,0.2,0.4,0.4,0.5c0.2,0.1,0.3,0.3,0.4,0.4c0.3,0.4,0.4,0.7,0.4,1c0,0.4-0.2,0.9-0.3,1.4
		c-0.5,1.4-1.2,2.7-2,4h0c-0.6,1.2-1.4,2.3-2.3,3.3c-0.3,0.3-0.6,0.7-0.9,1c-0.1,0.1-0.2,0.2-0.3,0.3c-0.2,0.2-0.3,0.3-0.5,0.5
		c-0.2,0.2-0.3,0.3-0.5,0.5c-1.2,1.2-2.4,2.1-4.2,2.1c-0.1,0-0.1,0-0.2,0c-0.2,0-0.4,0-0.6,0c-0.3,0-0.7,0-1,0c0,0,0,0,0,0
		c-0.1,0-0.3,0-0.4,0c-0.4,0-0.9,0-1.3,0c-0.3,0-0.7,0-1,0c-0.2,0-0.3,0-0.5,0c-0.5,0-1,0-1.5-0.1c-0.2,0-0.4,0-0.7,0
		c-0.5,0-0.9,0-1.4-0.1c-0.2,0-0.4-0.1-0.6-0.1c0.1-0.1,0.2-0.1,0.2-0.2c0.2-0.1,0.4-0.1,0.6-0.1c0-0.1,0-0.1,0-0.2h0c0,0,0,0,0,0
		c-0.2,0-0.4,0-0.6,0c-0.1,0-0.2,0-0.3,0c-0.1,0-0.1,0-0.2,0C57.9,77,57.7,77,57.5,77C57.6,77,57.6,77,57.5,77z M74.4,87.9
		c-0.2,0-0.4,0-0.6,0c-1.3-0.2-2.5-0.7-3.7-1.3c-1.5-1-2.4-2.2-2.9-3.6c0-0.2-0.1-0.5-0.1-0.7c0-0.2-0.1-0.3-0.1-0.5
		c0.3,0,0.5,0,0.8,0c0.6,0,1.2-0.1,1.7-0.2c0.7,0.5,1.2,1.2,2,2.3C72.3,85.1,73.2,86.5,74.4,87.9z M78.8,92.4
		c-0.4,0.2-0.9,0.3-1.3,0.5c-0.1,0-0.2,0.1-0.3,0.1c-0.4,0.1-0.9,0.3-1.3,0.4c0,0,0,0,0,0c-0.4,0.1-0.9,0.2-1.3,0.2
		c-0.1,0-0.2,0-0.3,0c-0.4,0-0.9,0.1-1.3,0.1c0,0,0,0,0,0c0,0,0,0,0,0c-0.2,0-0.4,0-0.6,0c-0.2,0-0.3,0-0.5,0c-0.2,0-0.4,0-0.6-0.1
		c-0.1,0-0.3,0-0.4,0c-0.1,0-0.1,0-0.2,0c-0.1,0-0.1,0-0.2,0c-0.8-0.1-1.5-0.3-2.3-0.5c-1-0.3-1.9-0.8-2.8-1.4h0
		c-1.9-1.2-3.5-2.7-4.7-4.6c-0.2-0.3-0.4-0.5-0.6-0.8c-0.5-0.7-0.9-1.4-1.2-2.2c-0.1-0.3-0.2-0.5-0.3-0.8c-0.1-0.2-0.2-0.4-0.3-0.7
		c-0.1-0.2-0.2-0.5-0.2-0.7c0-0.1-0.1-0.2-0.1-0.3c0.8,0.1,1.5,0.2,2.1,0.2c0.2,0,0.4,0,0.6,0c0.7,0.1,1.4,0.1,2.2,0.1
		c0.1,0.7,0.2,1.4,0.4,2.1c0.3,1,0.7,1.9,1.2,2.7c0.3,0.5,0.7,1,1.2,1.5c0.7,0.7,1.4,1.3,2.2,1.9c0.3,0.2,0.6,0.3,0.9,0.4
		c1.4,0.7,3,1.2,4.6,1.5c0,0,0,0,0,0c0.3,0,0.6,0,1,0c0,0,0.1,0,0.1,0c0,0,0.1,0,0.1,0c0.4,0,0.8,0,1.2,0c0,0,0,0,0.1,0
		c0.4,0,0.8-0.1,1.2-0.1c0.1,0,0.2,0,0.2,0c0.2,0,0.4-0.1,0.6-0.1c0,0,0,0,0,0C78.3,91.9,78.6,92.1,78.8,92.4
		C78.9,92.4,78.8,92.4,78.8,92.4z M123.9,72.4c-0.1,1.6-0.4,3-0.7,4.3c-0.2,0.7-0.3,1.3-0.5,1.8c-0.4,1.1-0.7,1.9-0.9,2.3
		c-0.1,0.3-0.5,1-1,1.6c-0.1,0.1-0.1,0.2-0.2,0.3c-0.2,0.3-0.4,0.6-0.5,0.8c-0.2,0.3-0.4,0.5-0.5,0.7c-0.5,0.7-1.1,1.5-1.7,2.1
		c-0.3,0.3-0.6,0.7-0.9,1c0,0-0.1,0-0.1,0.1c-0.3,0.3-0.6,0.6-0.9,0.9c-0.1,0.1-0.8,0.7-1.4,1.2c-0.3,0.3-0.7,0.5-0.8,0.6
		c-0.8,0.6-1.7,1.2-2.5,1.7c-0.4,0.3-0.9,0.5-1.3,0.8c-1.8,1-3.6,1.7-5.6,2.2c-0.5,0.1-1,0.2-1.5,0.3c-0.2,0-0.4,0.1-0.6,0.1
		c-0.2,0-0.3,0.1-0.5,0.1c-0.2,0-0.4,0-0.6,0.1c-0.2,0-0.4,0-0.5,0.1c-0.2,0-0.3,0-0.5,0c-0.2,0-0.4,0-0.6,0c-0.2,0-0.3,0-0.5,0
		c-0.2,0-0.4,0-0.6,0c0,0,0,0,0,0c-0.2,0-0.4,0-0.6,0c-0.2,0-0.3,0-0.5,0c-0.2,0-0.4,0-0.6,0c-0.2,0-0.3,0-0.5,0
		c-0.2,0-0.4-0.1-0.6-0.1c-0.2,0-0.3,0-0.5-0.1c-0.2,0-0.4-0.1-0.7-0.1c-0.1,0-0.4,0-0.4,0l0,0c0,0-2.8-0.6-4.1-1.1
		c-1.3-0.5-2.6-1-3.9-1.7c-0.2-0.1-0.5-0.3-0.7-0.4c-0.2-0.1-0.3-0.2-0.5-0.3h0c-0.7-0.4-1.4-0.9-2-1.3c-1.5-1.1-2.9-2.4-4.2-3.8
		c-0.4-0.4-0.7-0.7-1-1.1c-1-1.2-1.8-2.4-2.6-3.7c-0.5-0.7-0.9-1.4-1.5-2c0.5-0.4,1-0.8,1.4-1.3c0.1-0.1,0.2-0.2,0.4-0.3
		c0.3-0.3,0.7-0.7,1.1-1.1l0.2-0.2c1.2-1.4,2.5-2.9,3.5-4.8l0.2-0.3c0.7-1.2,1.6-2.7,2.1-4.4c0-0.1,0.1-0.2,0.1-0.2
		c0.1-0.4,0.4-1.1,0.4-1.9c0.3-0.4,0.4-0.8,0.5-1c1-2.4,1.6-4.8,2-7.3c0.2-1.8,0.4-3.9,0.1-6.1c-0.1-1.4-0.4-2.7-0.8-3.8
		c0,0,0,0,0,0c0,0,0,0,0,0c0.1,0,0.1,0,0.2,0c0,0,0.1,0,0.1,0c0.3,0,0.6,0,0.9-0.1c0.1,0,0.1,0,0.2,0c0.3-0.1,0.7-0.1,1-0.3
		c0,0,0,0,0,0c0.2-0.1,0.5-0.2,0.8-0.2c0,0,0.1,0,0.1,0c0.3-0.1,0.6-0.2,0.9-0.2c0.1,0,0.1,0,0.2,0c0.3-0.1,0.7-0.2,1-0.2
		c0.1,0,0.1,0,0.2,0c0.4-0.1,0.8-0.1,1.2-0.2c0.1,0,0.1,0,0.2,0c0.4-0.1,0.9-0.1,1.3-0.2c0.1,0,0.1,0,0.2,0c0.5-0.1,1-0.1,1.5-0.2
		c0,0,0.1,0,0.1,0c0.5,0,1-0.1,1.6-0.1c0,0,0.1,0,0.1,0c0.5,0,1.1,0,1.7,0c0.1,0,0.2,0,0.3,0c0.2,0,0.4,0,0.6,0c0.2,0,0.3,0,0.5,0
		c0.2,0,0.5,0,0.7,0c0.1,0,0.3,0,0.4,0c0.4,0,0.7,0,1.1,0.1c0.1,0,0.2,0,0.3,0c0.3,0,0.5,0.1,0.8,0.1c0.1,0,0.3,0,0.4,0.1
		c0.2,0,0.5,0.1,0.7,0.1c0.2,0,0.3,0.1,0.5,0.1c0.2,0,0.4,0.1,0.7,0.1c0.2,0,0.3,0.1,0.5,0.1c0.2,0,0.4,0.1,0.6,0.1
		c0.2,0,0.3,0.1,0.5,0.1c0.2,0.1,0.4,0.1,0.6,0.2c0.2,0,0.3,0.1,0.5,0.1c0.2,0.1,0.4,0.1,0.6,0.2c0.2,0.1,0.3,0.1,0.5,0.2
		c0.2,0.1,0.4,0.1,0.6,0.2c0.2,0.1,0.3,0.1,0.5,0.2c0.2,0.1,0.4,0.2,0.6,0.3c0.2,0.1,0.3,0.1,0.5,0.2c0.2,0.1,0.4,0.2,0.6,0.3
		c0.2,0.1,0.3,0.1,0.5,0.2c0.2,0.1,0.4,0.2,0.6,0.3c0.1,0.1,0.3,0.2,0.4,0.2c0.2,0.1,0.4,0.3,0.6,0.4c0.1,0.1,0.3,0.2,0.4,0.3
		c0.2,0.2,0.5,0.3,0.7,0.5c0.1,0.1,0.2,0.2,0.3,0.2c0.3,0.2,0.7,0.5,1,0.8c0.9,0.7,1.6,1.6,2.3,2.4c0.4,0.5,0.7,1,1.1,1.5
		c0.4,0.5,0.7,1.1,1,1.6c0.4,0.7,0.7,1.3,1,1.9c1.2,2.5,1.8,4.6,1.9,5.2c0.4,1.4,0.6,2.7,0.7,3.9c0.1,0.6,0.1,1.2,0.1,1.8
		C124,70.2,124,71.4,123.9,72.4z"/>
	<polygon points="91.8,80 99.4,76.2 99.4,76.2 95.2,68 103.6,64.6 103.6,64.6 101.2,59.2 99.9,56.4 99.9,56.4 102,55.9 108.1,54.2 
		108.1,54.2 107.2,53.1 102.4,54.2 97.5,55.3 97.5,55.3 99.5,60.3 100.9,63.6 100.9,63.6 92.7,67.3 92.7,67.3 97,75 97,75 
		89.3,79.7 89.3,79.7 95.2,87.9 96.5,87.2 96.7,87.1 	"/>
	<path d="M110.6,88.2c-0.4,0.3-0.8,0.6-1.2,0.8c-0.4,0.3-0.8,0.5-1.2,0.8c-2.4,1.5-5.1,2.5-7.8,3.2c-0.1,0-0.6,0.3-0.6,0.4
		c0,0.1,3.2-0.3,3.4-0.3c1.2-0.2,2.3-0.6,3.4-1c2.5-1,4.7-2.5,6.7-4.3c3.9-3.3,6.6-7.4,7.5-12.4c0.1-0.8,0.2-1.5,0.2-2.2
		c0,0,0,0,0,0c0-0.7,0-1.4-0.1-2c0-0.1,0-0.2,0-0.2c-0.1-0.6-0.2-1.2-0.3-1.8c-0.2-0.7-0.4-1.5-0.7-2.2c0.1,0.7,0.2,1.4,0.2,2.2
		c0.1,2.2-0.3,4.4-0.9,6.7c-0.3,1.1-0.7,2.2-1.2,3.3c-1.4,3.1-3.5,5.8-6.1,8.2"/>
	<polygon points="98.5,82.3 102.6,87.9 103.4,87.5 103.9,87.2 103.9,87.2 99.7,81.1 99.7,81.1 106.2,77.9 106.2,77.9 102.6,70.9 
		102.6,70.9 109.8,68 109.8,68 106.6,60.9 106.6,60.9 113.6,59.1 113.6,59.1 112.9,58.1 110.1,58.7 104.6,60 104.6,60 107.4,67.1 
		107.4,67.1 105.9,67.8 100.4,70.3 100.4,70.3 104.2,76.9 104.2,76.9 97.5,80.9 97.5,80.9 	"/>
	<path d="M91.3,54.7c0.5-0.5,0.9-1,1.3-1.4c0.3-0.3,0.5-0.5,0.7-0.7c0,0,0,0,0,0c-0.3,0.1-0.6,0.3-0.9,0.5c-0.5,0.3-1,0.7-1.5,1.1
		c-0.2,0.2-0.5,0.4-0.7,0.6c-2.2,1.8-3.7,3.7-4.8,5.4c-0.3,0.5-0.6,1-0.8,1.4c-0.4,0.7-0.6,1.3-0.9,1.9c-0.3,0.8-0.5,1.4-0.6,1.9
		c0,0,0,0.1-0.1,0.2c-0.2,0.6-0.6,2.5-0.6,4.7c0,0.6,0,1.2,0.1,1.8c0.1,0.7,0.2,1.5,0.3,2.2c0.2,1.1,0.5,2.1,0.8,3.2s0.8,2,1.4,3
		c0,0,0,0,0,0c0,0,0,0,0,0h0c-0.1-0.1-0.1-0.2-0.2-0.3c-0.6-1.4-1-3-1.2-4.5c-0.1-0.5-0.1-1-0.2-1.5c0-0.5-0.1-1-0.1-1.4
		c0-1,0-1.9,0.1-2.8c0.1-1.4,0.4-2.8,0.8-4.2c0.3-0.9,0.6-1.8,1-2.7c0.6-1.4,1.3-2.8,2.1-4.1c0-0.1,0.1-0.1,0.1-0.2
		c0,0,0.1-0.1,0.2-0.2C88.4,57.9,89.9,56.2,91.3,54.7z"/>
</g>
</svg>
