<?xml version="1.0" encoding="utf-8"?>
<!-- Generator: Adobe Illustrator 21.1.0, SVG Export Plug-In . SVG Version: 6.00 Build 0)  -->
<svg version="1.1" id="Layer_1" xmlns="http://www.w3.org/2000/svg" xmlns:xlink="http://www.w3.org/1999/xlink" x="0px" y="0px"
	 viewBox="0 0 128 128" style="enable-background:new 0 0 128 128;" xml:space="preserve">
<style type="text/css">
	.st0{fill:#231F20;}
</style>
<g>
	<path class="st0" d="M79.4,128c-3.2,0-6.2-1.3-8.6-3.8c-3.3-3.4-4.3-7.7-2.9-12.4c0,0,0-0.1,0-0.1c-1.8-2.2-3.6-4.4-5.3-6.4
		c-0.7-0.9-1.4-1.8-2.1-2.6c-8,4.7-17.5,5.8-26.3,3c-9.3-3-16.6-9.7-20.1-18.6c-3.8-9.8-3.1-19.3,2.2-28.3
		c4.8-8.2,12.1-13.3,21.6-15.2l0-1.6c0-3.9,0-7.6,0-11.4c0,0-0.1-0.1-0.2-0.1c-4-2.8-5.9-6.8-5.4-11.4c0.5-4.9,3.4-8.5,8-10.2
		c5.8-2.1,12.4,0.7,15,6.3c2.6,5.7,0.6,12.4-4.8,15.5c0,0-0.1,0.1-0.1,0.1c0,0,0,0.1,0,0.1c0,5.2,0,9.2-0.1,12.9
		c2,0.4,3.9,1,5.4,1.6c5.9-5,11.8-10.1,17.8-15.1l9.1-7.7c2.2-1.9,4.4-3.8,6.6-5.6C88,11.3,89.7,6.6,94,3.1
		c4.4-3.5,9.4-4.1,14.4-1.7c5,2.4,7.7,6.6,7.8,12.2c0.1,4.6-2.1,8.9-6,11.5c-3.9,2.6-8.7,3.1-13,1.3c0,0,0,0,0,0
		c-7.7,6.2-15.3,12.4-23,18.6l-8.2,6.6C77.6,63,79.2,80.9,69.7,94.2l0.9,1c2.3,2.7,4.6,5.4,6.9,8.1c6.4-1.1,12.7,2.9,14.2,9.2
		c1.6,6.5-2.2,13-8.6,14.8C81.8,127.8,80.6,128,79.4,128z M60.9,98c0.6,0,1.1,0.2,1.5,0.7l0.3,0.4c0.3,0.3,0.5,0.6,0.8,0.9
		c0.7,0.9,1.5,1.8,2.2,2.8c1.7,2.1,3.5,4.3,5.3,6.4c1.2,1.5,1,2.8,0.7,3.8c-1,3.3-0.4,6.1,1.9,8.5c2.3,2.4,5.1,3.1,8.4,2.2
		c4.3-1.2,6.8-5.6,5.8-10c-1.1-4.3-5.3-7-9.7-6.3c-0.4,0.1-2.2,0.3-3.3-0.9c-2.5-2.8-4.9-5.7-7.3-8.6l-1.9-2.2
		c-0.6-0.7-0.6-1.8,0-2.5c9.8-12.4,8.1-29.8-3.8-39.8c-0.4-0.4-0.7-0.9-0.7-1.5c0-0.6,0.2-1.1,0.7-1.5l0.4-0.3
		c0.3-0.3,0.6-0.6,0.9-0.8l8.7-7.1c7.7-6.2,15.3-12.4,23-18.6c0.8-0.7,2.1-1.5,4.1-0.6c3,1.3,6.4,0.9,9.2-0.9
		c2.7-1.9,4.3-4.9,4.2-8.1c-0.1-4.1-2-7-5.6-8.7c-3.6-1.7-7-1.3-10.2,1.2c-3.2,2.5-4.3,5.8-3.4,9.9c0.4,1.9-0.5,3-1.3,3.7
		c-2.2,1.9-4.5,3.8-6.7,5.7l-9.1,7.7c-5.9,5-11.8,10.1-17.8,15.1l-0.9,0.8c-0.6,0.5-1.6,0.6-2.3,0.2l0,0c0,0-0.3-0.2-0.7-0.3
		c-1.4-0.5-3.1-1.1-4.8-1.4C49,47.5,48,47.3,48,47.3c-0.9-0.2-1.6-1-1.6-1.9c0,0,0-1.1,0-1.8c0.1-3.7,0.1-7.6,0.1-12.8
		c0-1.7,0.7-2.8,2.1-3.7c3.6-2.1,5-6.6,3.2-10.4c-1.7-3.8-6.1-5.6-10-4.2c-3.2,1.2-5,3.5-5.4,6.8c-0.3,3.2,0.9,5.7,3.7,7.7
		c0.8,0.6,1.8,1.6,1.9,2.9c0.1,4,0.1,7.8,0,12l0,3.2c0,1-0.7,1.8-1.7,2c-9.1,1.4-16,6-20.5,13.6c-4.6,7.8-5.2,16.2-1.9,24.8
		c3,7.7,9.4,13.7,17.6,16.3c8.3,2.6,16.9,1.4,24.4-3.5C60.2,98.1,60.6,98,60.9,98z M40,45.2L40,45.2L40,45.2z"/>
</g>
</svg>
