<?xml version="1.0" encoding="utf-8"?>
<!-- Generator: Adobe Illustrator 21.1.0, SVG Export Plug-In . SVG Version: 6.00 Build 0)  -->
<svg version="1.1" id="Layer_1" xmlns="http://www.w3.org/2000/svg" xmlns:xlink="http://www.w3.org/1999/xlink" x="0px" y="0px"
	 viewBox="0 0 128 128" style="enable-background:new 0 0 128 128;" xml:space="preserve">
<style type="text/css">
	.st0{fill:#231F20;}
</style>
<g>
	<path class="st0" d="M61.2,9.7c7.4,0,14.8,0,22.2,0.2c7.5,0.1,14.7,1.7,21,6.3c12.5,9.2,14.1,25.6,3.7,37.1c-0.9,1-1.9,2-3,3.2
		c5.6,2.6,10.3,6.1,13.7,11.1c9.8,14.2,5.5,32.6-10,42.5c-8.7,5.6-18.5,7.7-28.6,8c-6.8,0.2-13.5,0.3-20.3,0.3
		c-7.9,0-15.8-0.1-23.7-0.1c-0.5,0-0.9,0-1.4,0c0,0,0,0,0,0c-0.4,0-0.8-0.1-1.5-0.2c0-9,0-17.7,0-26.9c-9.8,0-19.5,0-29.3,0
		c0-5.4,0-10.4,0-15.6c9.6,0,19.2,0,29,0c0-8.5,0-16.6,0-25.1c-9.6,0-19.2,0-29,0c0-5.4,0-10.4,0-15.8c9.6,0,19.2,0,29.1,0
		c0-8.4,0-16.4,0-24.7c0.9-0.1,1.4-0.2,2-0.2c0,0,0,0,0,0c0.3,0,0.5,0,0.8,0C44.4,9.7,52.8,9.7,61.2,9.7 M58,25.5
		c-1.4,0-2.8,0-4.2-0.1c0,10.2,0,20,0,30.4c6.4-0.4,12.4-0.5,18.3-1.3c4.5-0.6,9.1-1.6,13.3-3.3c5.8-2.3,8.6-7.8,8-13.5
		c-0.6-5.1-4.4-9.4-10.2-10.9c-4.7-1.2-9.5-1.4-14.3-1.4C65.3,25.3,61.7,25.5,58,25.5 M72.1,100.1c4.4,0,8.9-0.1,13.3-0.3
		c4.3-0.2,8.9-1.9,12.7-4c8.3-4.5,8.9-15.6,1.2-20.9c-3.6-2.5-8-4.3-12.2-5.3c-4.7-1.2-9.5-1.6-14.3-1.6c-6.2,0-12.5,0.6-18.9,0.9
		c0,10.7,0,21.1,0,31.2C60,100,66.1,100.1,72.1,100.1 M61.2,5.7c-4.2,0-8.4,0-12.6,0c-4.2,0-8.4,0-12.6,0l-0.8,0
		c-0.6,0-1.2,0.1-1.7,0.1c-0.2,0-0.4,0.1-0.7,0.1c-2,0.2-3.6,1.9-3.6,4v20.7H4.1c-2.2,0-4,1.8-4,4v15.8c0,2.2,1.8,4,4,4h25v17.1H4
		c-2.2,0-4,1.8-4,4v15.6c0,2.2,1.8,4,4,4h25.3V118c0,2,1.5,3.7,3.4,4c0.2,0,0.4,0.1,0.5,0.1c0.4,0.1,0.9,0.2,1.5,0.2l1.4,0
		c4,0,7.9,0,11.9,0c4,0,7.9,0,11.9,0c8,0,14.5-0.1,20.4-0.3c12.1-0.4,22.1-3.2,30.6-8.6c8.7-5.5,14.5-13.7,16.4-22.9
		c1.8-8.7-0.1-17.6-5.3-25.1c-2.7-3.9-6.2-7.2-10.6-9.9c5.5-6.4,8-14.1,7.2-22c-0.8-8.1-5.1-15.3-12-20.4C100.4,8.3,92.8,6,83.5,5.8
		C77,5.7,70.1,5.7,61.2,5.7L61.2,5.7z M58,29.5c1.9,0,3.8,0,5.6-0.1c1.8,0,3.6-0.1,5.4-0.1c4,0,8.7,0.2,13.3,1.3
		c4.1,1,6.8,3.9,7.2,7.5c0.5,4.2-1.7,7.8-5.5,9.4c-3.4,1.4-7.4,2.4-12.3,3c-4,0.5-8,0.7-12.3,1c-0.5,0-1,0.1-1.5,0.1v-22
		C57.9,29.5,57.9,29.5,58,29.5L58,29.5z M57.9,72.6c1.1-0.1,2.1-0.1,3.2-0.2c4-0.3,7.8-0.5,11.7-0.5c5.2,0,9.4,0.5,13.3,1.4
		c4.1,1,7.9,2.7,10.9,4.7c2.5,1.7,3.8,4.3,3.7,7.2c-0.2,2.9-1.8,5.4-4.5,6.9c-2.8,1.5-6.9,3.3-11,3.6c-3.8,0.2-7.9,0.3-13,0.3
		c-3,0-6,0-9-0.1c-1.7,0-3.5,0-5.2,0V72.6L57.9,72.6z"/>
</g>
</svg>
