<?xml version="1.0" encoding="utf-8"?>
<!-- Generator: Adobe Illustrator 21.1.0, SVG Export Plug-In . SVG Version: 6.00 Build 0)  -->
<svg version="1.1" id="Layer_1" xmlns="http://www.w3.org/2000/svg" xmlns:xlink="http://www.w3.org/1999/xlink" x="0px" y="0px"
	 viewBox="0 0 128 128" style="enable-background:new 0 0 128 128;" xml:space="preserve">
<style type="text/css">
	.st0{fill:#231F20;}
</style>
<g>
	<path class="st0" d="M19,17.7c3.4,0,6.8,0,10.2,0.1c1.1,0,2.3,0.5,3.1,1.2c12.3,10.6,24.6,21.3,36.9,32c0.5,0.4,1,0.7,1.6,1.1
		c-0.1,0.2-0.2,0.5-0.3,0.7c-0.8,0-1.6,0-2.4,0c-5.3,0-10.5,0-15.8,0c-3.4,0-6.8,0-10.1,0.1c-8.1,0.1-14.3,3.6-18.2,10.9
		C17.8,74.7,24.6,89.7,37,92.1c4.2,0.8,8.5,0.5,12.8,0.8c0.7,0,1.5,0.1,1.9,0.5c6.1,5.2,12.1,10.4,18.1,15.7
		c0.3,0.2,0.4,0.6,0.9,1.1c-1,0.1-1.6,0.1-2.3,0.1c-0.4,0-0.8,0-1.1,0c-7.8,0-15.7,0-23.5,0c-0.6,0-1.1,0-1.7,0c0,0,0,0,0,0
		c-18,0-33.1-11.9-37.1-29.3C1.1,64.1,9.6,46.4,25.3,39c0.5-0.2,1-0.6,1.9-1c-3.9-3.4-7.6-6.7-11.3-9.9c-3.8-3.3-7.5-6.5-11.6-10
		c0.8-0.1,1.2-0.3,1.6-0.3C10.3,17.7,14.6,17.7,19,17.7 M19,13.7c-3,0-6,0-9.1,0l-4,0c-0.7,0-1.2,0.1-1.7,0.2
		c-0.2,0-0.3,0.1-0.6,0.1c-1.5,0.3-2.8,1.4-3.2,2.9C0.1,18.4,0.6,20,1.7,21l3.7,3.2c2.7,2.3,5.3,4.6,7.9,6.8c2.3,2,4.6,4,7,6.1
		C5,46.1-3,64.4,1,81.8c2.2,9.5,7.2,17.6,14.7,23.5c7.4,5.9,16.5,9,26.3,9l1.7,0c3.9,0,7.8,0,11.8,0c3.9,0,7.8,0,11.8,0h1.1
		c0.6,0,1.1,0,1.7-0.1c0.3,0,0.5,0,0.8-0.1c1.5-0.1,2.8-1,3.4-2.3c0.6-1.3,0.4-2.9-0.4-4.1c-0.1-0.1-0.2-0.3-0.3-0.4
		c-0.3-0.4-0.6-0.9-1.1-1.3l-1-0.9c-5.6-4.9-11.4-9.9-17.1-14.8c-1.5-1.3-3.5-1.4-4.3-1.5c-1.5-0.1-3-0.1-4.4-0.2
		c-2.8-0.1-5.4-0.1-7.8-0.6c-4.5-0.9-8.4-4-10.5-8.5c-2.2-4.6-2.1-9.9,0.2-14.1c3.2-5.8,8-8.7,14.8-8.8c3,0,6.2-0.1,10.1-0.1
		c2.6,0,5.3,0,7.9,0c2.6,0,5.3,0,7.9,0h2.4c1.6,0,3-0.9,3.6-2.4l0.3-0.6l0-0.1c0.8-1.8,0.2-3.9-1.4-5c-0.2-0.1-0.4-0.3-0.6-0.4
		c-0.2-0.1-0.5-0.3-0.6-0.4C68.4,45,65,42,61.5,39c-8.7-7.6-17.8-15.4-26.7-23.1c-1.5-1.3-3.7-2.1-5.7-2.1
		C26.1,13.7,22.9,13.7,19,13.7L19,13.7z"/>
	<path class="st0" d="M58.2,17.8C58.2,17.8,58.2,17.8,58.2,17.8c10.4,0,20.8,0,31.2,0.2c7,0.1,13.3,2.7,19,6.8
		c7.7,5.6,12.6,13.1,14.7,22.4c1.7,7.8,1,15.5-2.2,22.8c-3.5,8.1-9.1,14.2-16.8,18.3c-0.5,0.3-1.1,0.5-1.6,0.7
		c-0.4,0.2-0.9,0.5-1.7,1.1c7.6,6.7,15.1,13.2,23,20c-1.2,0-2.2,0-3.1,0c-0.5,0-1.1,0-1.6,0c-4.5,0-8.9,0.1-13.4,0.1
		c-2.2,0-4.5,0-6.7,0c-1.1,0-2.5-0.4-3.3-1.2C83.1,98.2,70.6,87.3,58.1,76.4c-0.2-0.2-0.3-0.5-0.8-1.1c1-0.1,1.7-0.2,2.4-0.2
		c0.5,0,1,0,1.5,0c4.9,0,9.8,0,14.7,0c3.2,0,6.4,0,9.7,0c8.2-0.1,14.5-3.5,18.4-10.8c5.6-10.4,0.3-23.9-10.8-27.9
		c-3.1-1.1-6.3-1.4-9.5-1.4c-1,0-2.1,0-3.1,0.1c-0.2,0-0.4,0-0.5,0c-2.3,0-4.2-0.7-6-2.3c-5-4.6-10.3-9-15.5-13.5
		c-0.4-0.3-0.8-0.6-1.5-1C57.8,18,58,17.8,58.2,17.8 M58.2,13.8L58.2,13.8c-1.2,0-2,0.5-2.5,0.7c-0.1,0.1-0.2,0.1-0.4,0.2
		c-1.3,0.6-2.1,1.9-2.2,3.3s0.5,2.8,1.7,3.6c0.2,0.2,0.5,0.3,0.7,0.5c0.2,0.1,0.4,0.3,0.5,0.3c1.4,1.2,2.8,2.4,4.2,3.6
		c3.7,3.2,7.6,6.5,11.2,9.8c2.5,2.3,5.3,3.4,8.7,3.4c0.2,0,0.5,0,0.7,0c1.2,0,2.1-0.1,3-0.1c3.4,0,5.9,0.4,8.1,1.2
		c4.3,1.5,7.7,4.9,9.3,9.3c1.6,4.3,1.4,9-0.7,12.9c-3.1,5.8-8,8.6-14.9,8.7c-2.8,0-5.9,0-9.6,0c-2.5,0-4.9,0-7.4,0
		c-2.5,0-4.9,0-7.4,0l-1.5,0c-0.6,0-1.2,0-1.8,0.1c-0.3,0-0.6,0-0.9,0.1c-1.4,0.1-2.7,0.9-3.3,2.2c-0.6,1.3-0.5,2.8,0.3,4
		c0.1,0.2,0.2,0.3,0.3,0.4c0.2,0.4,0.6,0.9,1.2,1.4l4.2,3.6c10.9,9.5,22.3,19.3,33.4,29c1.5,1.3,3.7,2.1,5.9,2.1c2,0,4.2,0,6.7,0
		c2.7,0,5.5,0,8.2,0c1.7,0,3.5,0,5.2,0c0.5,0,1,0,1.6,0l1.3,0l1.8,0c1.7,0,3.2-1,3.7-2.6c0.6-1.6,0.1-3.3-1.1-4.4l-15.4-13.5
		l-3.2-2.8c7.6-4.6,13.3-11.1,16.9-19.3c3.5-8.2,4.3-16.7,2.4-25.3c-2.3-10.2-7.8-18.5-16.3-24.7c-6.8-4.9-13.9-7.5-21.2-7.6
		c-7.7-0.1-15.5-0.2-23-0.2C63.7,13.8,61,13.8,58.2,13.8C58.2,13.8,58.2,13.8,58.2,13.8L58.2,13.8z"/>
</g>
</svg>
