<?xml version="1.0" encoding="utf-8"?>
<!-- Generator: Adobe Illustrator 21.1.0, SVG Export Plug-In . SVG Version: 6.00 Build 0)  -->
<svg version="1.1" id="Layer_1" xmlns="http://www.w3.org/2000/svg" xmlns:xlink="http://www.w3.org/1999/xlink" x="0px" y="0px"
	 viewBox="0 0 128 128" style="enable-background:new 0 0 128 128;" xml:space="preserve">
<style type="text/css">
	.st0{fill:#231F20;}
</style>
<path class="st0" d="M106.8,100.1L106.8,100.1c0,0,0-0.1,0-0.1L93.5,39.2c-0.1-0.3-0.2-0.6-0.4-0.8L65.6,0.8C65.2,0.3,64.6,0,64,0
	c-0.6,0-1.2,0.3-1.6,0.8L34.9,38.4c-0.2,0.2-0.3,0.5-0.4,0.8L21.2,100c0,0,0,0.1,0,0.1c0,0,0,0,0,0c0,0.3,0,0.6,0,0.8
	c0,0.1,0.1,0.3,0.1,0.4c0.1,0.3,0.4,0.6,0.7,0.8c0,0,0,0,0,0c0,0,0,0,0,0c0,0,0,0,0.1,0l40.8,25.6c0.3,0.2,0.7,0.3,1.1,0.3
	c0,0,0,0,0,0c0.4,0,0.7-0.1,1.1-0.3l40.8-25.6c0,0,0,0,0.1,0c0,0,0,0,0,0l0,0c0.3-0.2,0.5-0.5,0.7-0.8c0.1-0.1,0.1-0.3,0.1-0.4
	C106.9,100.7,106.9,100.4,106.8,100.1z M100.1,87.9l-14-24.7l5.1-16L100.1,87.9z M66,8.1L89.3,40l-5.9,18.6L66,27.8V8.1z M64,32.4
	l17.8,31.3l-11,34.7H57.3l-11-34.7L64,32.4z M62,8.1v19.7L44.6,58.5L38.7,40L62,8.1z M36.8,47.3l5.1,16l-14,24.7L36.8,47.3z
	 M43.6,68.5l9.5,30H26.6L43.6,68.5z M30.1,102.4h24.3l6,19L30.1,102.4z M64,119.5l-5.4-17.1h10.9L64,119.5z M67.6,121.4l6-19h24.3
	L67.6,121.4z M74.9,98.4l9.5-30l17,30H74.9z"/>
</svg>
