<?xml version="1.0" encoding="utf-8"?>
<!-- Generator: Adobe Illustrator 21.1.0, SVG Export Plug-In . SVG Version: 6.00 Build 0)  -->
<svg version="1.1" id="Layer_1" xmlns="http://www.w3.org/2000/svg" xmlns:xlink="http://www.w3.org/1999/xlink" x="0px" y="0px"
	 viewBox="0 0 128 128" style="enable-background:new 0 0 128 128;" xml:space="preserve">
<path d="M122.1,100.4c-0.4-0.5-1-0.8-1.6-0.8H59.4l7.1-26.8l18.1-6.6c0.6-0.2,1.1-0.7,1.2-1.4L90.6,47c0.1-0.4,0.1-0.8-0.1-1.2
	l-0.2-0.4c-0.4-1-1.5-1.6-2.6-1.2l-15.2,5.5L85.1,2.5c0.2-0.6,0-1.2-0.3-1.7c-0.4-0.5-1-0.8-1.6-0.8H44.9c-0.9,0-1.7,0.6-1.9,1.5
	L25.5,66.9l-13.8,5c-0.6,0.2-1.1,0.7-1.2,1.4L5.6,91.7c-0.2,0.7,0,1.5,0.6,2c0.5,0.5,1.3,0.7,2,0.4L19.4,90l-9.4,35.5
	c-0.2,0.6,0,1.2,0.3,1.7c0.4,0.5,1,0.8,1.6,0.8h102.1c0.9,0,1.7-0.6,1.9-1.5l6.5-24.4C122.6,101.5,122.4,100.9,122.1,100.4z
	 M112.4,124H14.5l9.8-36.7c0.2-0.7,0-1.5-0.6-2s-1.3-0.7-2-0.4L10.4,89l3.6-13.7l13.8-5c0.6-0.2,1.1-0.7,1.2-1.4L46.4,4h34.2
	L67.8,52.4c-0.2,0.7,0,1.5,0.6,2c0.6,0.5,1.3,0.7,2,0.4l15.5-5.7l-3.6,13.7l-18.1,6.6c-0.6,0.2-1.1,0.7-1.2,1.4l-8.1,30.3
	c-0.2,0.6,0,1.2,0.3,1.7c0.4,0.5,1,0.8,1.6,0.8h61.1L112.4,124z"/>
</svg>
