<?xml version="1.0" encoding="utf-8"?>
<!-- Generator: Adobe Illustrator 21.1.0, SVG Export Plug-In . SVG Version: 6.00 Build 0)  -->
<svg version="1.1" id="Layer_1" xmlns="http://www.w3.org/2000/svg" xmlns:xlink="http://www.w3.org/1999/xlink" x="0px" y="0px"
	 viewBox="0 0 128 128" style="enable-background:new 0 0 128 128;" xml:space="preserve">
<style type="text/css">
	.st0{fill:#231F20;}
</style>
<g>
	<path class="st0" d="M36,65.4c3.7,0,7.4-0.8,10.9-2.5c9.7-4.8,14.3-12.8,14.8-23.5c0.5-12.4,6.4-21.5,17.6-27
		c0.8-0.4,1.7-0.8,2.9-1.3c-1-0.3-1.5-0.5-2-0.5c-3-0.4-5.9-0.8-8.9-1c-2.4-0.2-4.9-0.2-7.3-0.2c-7.4,0-14.7,0.7-22,2.2
		c-11.1,2.3-21.6,6.2-31.6,11.7c-1.1,0.6-1.4,1.2-1.3,2.4c0.5,5.1,0.7,10.2,1.4,15.3c0.4,3.2,0.8,6.6,2.1,9.5
		C16.8,59.8,26.2,65.4,36,65.4z M14.5,40.4c-0.4-3.2-0.7-6.5-0.9-9.7c-0.1-1.5-0.2-3-0.4-4.4c9.4-5.1,19.4-8.8,29.6-10.8
		c7-1.4,14.2-2.1,21.2-2.1c2,0,4,0.1,6,0.2c-7.8,6.2-11.9,14.9-12.4,25.7c-0.4,9.6-4.5,16.1-12.6,20.1c-2.9,1.4-5.9,2.1-9.2,2.1
		c-8.6,0-16.3-5-19.7-12.6C15.2,46.4,14.8,43.2,14.5,40.4z"/>
	<path class="st0" d="M124.8,16.2C106.1,5.8,85.7,0.4,64,0c0,0,0,0-0.1,0c-0.1,0-0.3,0-0.4,0c-1.9,0.2-3.8,0.4-5.7,0.5
		c-4.2,0.4-8.5,0.7-12.7,1.3c-14.5,2-28.6,6.9-42,14.4c-1.8,1-3.2,3.4-3.1,5.5l0,0.7c0.2,4.6,0.5,9.4,1,14.2c1,9.5,3.5,19.3,7.4,29
		c10.4,26.1,28,46.7,52.2,61.3c1.1,0.7,2.3,1,3.4,1c1.1,0,2.2-0.3,3.3-1c7.4-4.5,13.9-9.2,19.6-14.4c12.5-11.3,22.4-24.6,29.4-39.4
		c7.6-16.2,11.6-33.5,11.7-51.3C128,19.3,126.9,17.4,124.8,16.2z M112.7,71.4c-6.9,14.7-16.4,27.3-28.4,38.2
		c-5.9,5.3-12.2,9.9-19,14c-0.5,0.3-0.9,0.4-1.2,0.4c-0.4,0-0.8-0.2-1.3-0.5c-23.5-14.2-40.4-33.9-50.5-59.4C8.5,55.2,6,45.9,5,36.2
		c-0.5-4.9-0.8-9.7-1-14.6c0-0.6,0.5-1.5,1-1.8c12.7-7.2,26.2-12,40.6-14C51.7,5,57.8,4.6,63.9,4c21,0.4,40.6,5.5,59,15.7
		c1,0.5,1.1,1.2,1.1,2.2C123.8,39.2,120,55.7,112.7,71.4z"/>
	<path class="st0" d="M64.5,62.6c-0.1,0-0.1,0-0.2,0c-4.8,0-9.2,1.2-13.4,3.5c-4.8,2.6-9.8,4-14.9,4c-3.3,0-6.6-0.6-10-1.8
		c-3.2-1.1-6.1-3-9.2-4.5c0.2,0.6,0.4,1.4,0.7,2c2.1,4.3,4.1,8.8,6.5,13c9.4,16.2,22.2,29.1,38.2,38.9c0.7,0.4,1.3,0.6,1.9,0.6
		c0.5,0,1.1-0.2,1.6-0.6c4.9-3.6,9.9-7,14.8-10.7c1.9-1.4,3.9-3.1,5.2-5c3.8-6.2,5-12.9,3.3-20.1C86.1,70.8,75.8,62.7,64.5,62.6z
		 M82.2,99.8c-0.9,1.4-2.6,2.8-4.2,4c-3,2.2-6.1,4.5-9.1,6.6c-1.7,1.2-3.4,2.4-5.1,3.6c-15.4-9.5-27.7-22.1-36.5-37.3
		c-0.9-1.5-1.7-3-2.5-4.6C28.6,73.4,32.4,74,36,74c5.7,0,11.3-1.5,16.8-4.5c3.7-2,7.4-3,11.4-3l0.2,0c9.5,0.1,18.3,7,20.5,16.2
		C86.4,88.9,85.5,94.4,82.2,99.8z"/>
	<path class="st0" d="M117.6,23.3c-5.5-2.5-10.9-5.3-16.6-7.5c-3-1.2-6.1-1.8-9.1-1.8c-4.1,0-8.2,1.1-12.2,3.2
		c-9.9,5.2-15.4,17.1-12.9,28c1.8,7.5,6.1,13,12.6,17c9.9,6.1,14.7,15,14.8,26.6c0,1.3-0.2,2.5-0.2,3.8c0.1,0.1,0.3,0.1,0.4,0.2
		c1-1.3,2-2.6,3-4c13.9-18.9,21-40,21.3-63.5C118.7,24.4,118.5,23.8,117.6,23.3z M97.6,81.6c-1.8-9.7-7.1-17.3-16-22.7
		c-5.8-3.6-9.4-8.3-10.8-14.5c-2.1-9.1,2.5-19.2,10.8-23.5c3.4-1.8,6.9-2.7,10.3-2.7c2.5,0,5.1,0.5,7.7,1.5
		c3.6,1.4,7.3,3.1,10.8,4.8c1.4,0.7,2.8,1.3,4.3,2C114.2,46.5,108.4,65,97.6,81.6z"/>
</g>
</svg>
