<?xml version="1.0" encoding="utf-8"?>
<!-- Generator: Adobe Illustrator 21.1.0, SVG Export Plug-In . SVG Version: 6.00 Build 0)  -->
<svg version="1.1" id="Layer_1" xmlns="http://www.w3.org/2000/svg" xmlns:xlink="http://www.w3.org/1999/xlink" x="0px" y="0px"
	 viewBox="0 0 128 128" style="enable-background:new 0 0 128 128;" xml:space="preserve">
<style type="text/css">
	.st0{fill:#231F20;}
</style>
<g>
	<path class="st0" d="M95.4,128c-5.4,0-10.8-1.6-15.5-4.7c-6.3-4.2-10.7-10.7-12.1-18c-1.1-6.2-0.1-12.3,3.1-18.6c1-2,1.9-4,1.8-6.2
		c-0.2-3.5-2.4-6.2-5.8-7.4c-2.9-1-6.2,0-8.2,2.5c-0.7,0.9-1.4,1.9-2.1,2.9c-0.8,1.2-1.6,2.4-2.6,3.5c-7.1,8.5-16.6,11.7-27.4,9.2
		c-10.8-2.5-18-9.5-20.8-20.4C3.8,63.2,5,55.4,9.2,48.9c4.1-6.5,10.5-10.8,18-12.2c11.3-2.1,20.9,1.7,27.9,11
		c0.5,0.6,0.9,1.3,1.3,1.9c0.9,1.3,1.7,2.5,2.7,3.4c2,2,4.9,2.7,7.8,1.9c2.8-0.8,4.9-2.9,5.6-5.6c0.5-2.1,0.2-4.3-1-6.7
		c-3.1-5.8-4.4-10.9-4.2-15.9C67.8,13.3,78.2,2,91.4,0.2c14.8-1.9,28.5,8,31.2,22.7c0.2,1.2,0.3,2.3,0.4,3.4c0,0.5,0.1,1,0.1,1.4
		c0,0.1,0,0.1,0,0.2c0,13.8-10.5,25.8-24,27.4c-0.9,0.1-1.8,0.2-2.6,0.2c-1.5,0.1-2.9,0.2-4.3,0.5c-2.9,0.6-5.2,2.6-6.2,5.4
		c-0.9,2.8-0.4,5.7,1.5,7.9c1.4,1.7,3.5,2.5,6.7,2.9c0.5,0.1,1.1,0.1,1.7,0.2c2.8,0.3,5.7,0.6,8.4,1.5C114.7,77.4,121,85,122.8,96
		c2.3,14.3-7.2,28.1-21.5,31.4C99.4,127.8,97.4,128,95.4,128z M64.5,68.6c1.2,0,2.4,0.2,3.6,0.6c5,1.7,8.3,6,8.5,11
		c0.2,3.2-1,5.8-2.3,8.2c-2.8,5.5-3.7,10.7-2.7,16.1c1.1,6.2,4.9,11.8,10.3,15.4c5.5,3.6,12.2,4.9,18.4,3.5
		c12.3-2.8,20.3-14.6,18.4-26.8c-1.5-9.5-6.8-15.9-15.7-18.9c-2.3-0.8-4.8-1-7.5-1.3c-0.6-0.1-1.1-0.1-1.7-0.2
		c-2.9-0.3-6.6-1.1-9.3-4.3c-2.8-3.3-3.6-7.7-2.2-11.8c1.4-4.2,4.8-7.2,9.1-8c1.6-0.3,3.2-0.4,4.8-0.6c0.8-0.1,1.7-0.1,2.5-0.2
		c11.5-1.3,20.4-11.6,20.4-23.3c0-0.5-0.1-1-0.1-1.4c-0.1-1-0.2-2-0.3-3C116.4,11.1,104.6,2.6,92,4.2C80.8,5.7,71.7,15.6,71.3,26.8
		c-0.2,4.4,1,8.8,3.7,13.9c1.7,3.2,2.2,6.5,1.4,9.5c-1.1,4.1-4.2,7.3-8.4,8.4c-4.2,1.2-8.6,0.1-11.6-2.9c-1.2-1.2-2.2-2.6-3.2-4
		c-0.4-0.6-0.8-1.2-1.3-1.8c-6.1-8.1-14.2-11.3-24-9.4c-6.4,1.2-11.9,4.9-15.4,10.4c-3.6,5.6-4.6,12.2-3,18.7
		C12,79.2,18,85.1,27.3,87.2c9.4,2.1,17.3-0.5,23.5-7.9c0.8-1,1.6-2.1,2.4-3.2c0.7-1,1.5-2.1,2.3-3.1C57.8,70.2,61.1,68.6,64.5,68.6
		z"/>
</g>
</svg>
