<?xml version="1.0" encoding="utf-8"?>
<!-- Generator: Adobe Illustrator 21.1.0, SVG Export Plug-In . SVG Version: 6.00 Build 0)  -->
<svg version="1.1" id="Layer_1" xmlns="http://www.w3.org/2000/svg" xmlns:xlink="http://www.w3.org/1999/xlink" x="0px" y="0px"
	 viewBox="0 0 128 128" style="enable-background:new 0 0 128 128;" xml:space="preserve">
<style type="text/css">
	.st0{fill:#231F20;}
</style>
<g>
	<path class="st0" d="M82.1,69.3C75.9,56,70.9,45.3,66.1,35.6c-3.7-7.5-4.8-15.6-3.5-24.8C62.9,9,63,7.2,63.3,5.2
		c0.1-1,0.2-1.9,0.3-3c0.1-0.7-0.2-1.4-0.8-1.8c-0.6-0.4-1.3-0.5-2-0.2c-0.4,0.2-0.7,0.3-0.9,0.4c-0.6,0.2-1,0.4-1.5,0.7
		c-8.8,6.3-15,13.3-19,21.6c-2.7,5.7-1.5,11.4-0.1,16.3c2.6,9,6.6,17.6,10.4,25.9l3.6,7.6c3.4,7.3,6.9,14.8,10.3,22.2
		c2.2,4.8,2.7,9.8,1.5,15c-0.6,2.5-1.2,4.9-1.9,7.4c-0.5,1.8-1,3.6-1.5,5.5c-0.2,0.9-0.2,1.8-0.2,2.5c0,0.3,0,0.5,0,0.8
		c0,0.7,0.3,1.3,0.9,1.7c0.3,0.2,0.7,0.4,1.1,0.4c0.2,0,0.5,0,0.7-0.1c0.2-0.1,0.5-0.2,0.8-0.3c0.8-0.2,1.7-0.5,2.5-1.2
		c8.6-6.9,15.5-15,20.6-23.9c2-3.4,2.5-7.2,1.6-11.4C88.2,83.2,85.1,76,82.1,69.3z M84.8,100.6c-4.7,8.2-11.1,15.6-18.9,22.1
		c0.4-1.5,0.8-3,1.2-4.5c0.7-2.4,1.4-5,1.9-7.5c1.4-6,0.8-11.9-1.8-17.5c-3.4-7.5-6.9-15-10.3-22.3l-3.6-7.6
		c-3.8-8.1-7.7-16.5-10.2-25.2c-1.5-5.3-2.1-9.4-0.1-13.5c3.4-7.2,8.7-13.4,16.2-18.9c-0.2,1.6-0.3,3.1-0.6,4.6
		c-1.4,10-0.1,18.9,3.9,27.1c4.7,9.7,9.8,20.4,15.9,33.6c3,6.5,6,13.5,7.5,21C86.6,95.3,86.2,98,84.8,100.6z"/>
	<path class="st0" d="M44.6,83.6c-1.6-5.1-3.3-10.3-5.5-15.3c-2.5-5.7-5.2-11.4-7.9-17c-1.7-3.6-3.5-7.4-5.2-11.1
		c-1-2.1-1.7-4.3-2.1-6.4c-1-5.2-0.3-10.4,0.4-15.9c0.1-0.6,0.1-1.1,0-1.7c0-0.3,0-0.5,0-0.8c0-0.7-0.4-1.4-1-1.7
		c-0.6-0.4-1.4-0.4-2,0c-0.3,0.2-0.6,0.3-0.8,0.4c-0.5,0.3-1,0.5-1.5,0.9c-5.5,4-9.9,8.8-13.2,14.2c-2.5,4.1-3.1,8.3-2,12.9
		c1.7,7.2,4.7,13.9,7.8,20.7c1.7,3.6,3.3,7.1,5,10.7c2.3,5,4.7,10,7,15c1.6,3.5,2,7.2,1.2,11.1c-0.4,2.1-1,4.3-1.6,6.4
		c-0.3,1.2-0.7,2.5-1,3.7c-0.2,0.7-0.3,1.3-0.3,2c0,0.3-0.1,0.5-0.1,0.8c-0.1,0.8,0.3,1.7,1,2.1l0.5,0.3c0.3,0.2,0.6,0.2,0.9,0.2
		c0.3,0,0.7-0.1,1-0.3c0.2-0.1,0.4-0.2,0.6-0.3c0.5-0.3,1.1-0.6,1.7-1c6.8-5.5,12.3-11.8,16.3-18.9c1.8-3.1,2.2-6.3,1.2-9.5
		L44.6,83.6z M40.4,92.5c-3.5,6.1-8.1,11.7-13.8,16.5c0.2-0.7,0.4-1.3,0.5-2c0.6-2.2,1.2-4.4,1.7-6.6c1-4.8,0.5-9.3-1.4-13.6
		c-2.3-5-4.6-10-7-15c-1.7-3.6-3.3-7.1-5-10.7C12.2,54.2,9.4,48,7.8,41.1c-0.8-3.5-0.3-6.8,1.6-10c2.7-4.5,6.3-8.6,10.8-12
		c-0.7,5-1.2,10.2-0.2,15.4c0.5,2.5,1.3,4.9,2.4,7.3c1.7,3.7,3.5,7.5,5.3,11.2c2.6,5.5,5.3,11.2,7.8,16.9c2.1,4.8,3.8,10,5.4,15
		l0.5,1.4C41.9,88.3,41.6,90.4,40.4,92.5z"/>
	<path class="st0" d="M124.4,86.8c-0.6-3.4-1.5-7.5-3.1-11.2c-2.7-6.3-5.7-12.5-8.5-18.6c-1.8-3.9-3.6-7.7-5.3-11.6l-0.3-0.7
		c-1.4-3.2-2.9-6.4-3.9-9.7c-1.3-4.4-0.8-9.3-0.2-13.8c0.2-1.2,0.3-2.4,0.4-3.5l0.2-1.6c0.1-0.8-0.3-1.7-1.1-2l-0.5-0.3
		c-0.6-0.3-1.3-0.3-1.8,0c-0.2,0.1-0.3,0.2-0.5,0.3c-0.5,0.2-1,0.5-1.5,0.9c-5.4,4-9.7,8.6-13,13.9c-2.5,4.1-3.3,8.4-2.3,12.9
		c1.6,7.1,4.4,13.5,7.7,20.6c1.7,3.8,3.5,7.5,5.2,11.2c2.2,4.8,4.6,9.7,6.8,14.6c1.6,3.4,2.1,6.7,1.5,9.7c-0.5,2.6-1.2,5.2-1.8,7.7
		c-0.4,1.4-0.7,2.8-1,4.3c-0.1,0.6-0.2,1.2-0.3,1.9c0,0.3-0.1,0.7-0.1,1.1c-0.1,0.7,0.2,1.5,0.8,1.9c0.3,0.2,0.7,0.4,1.1,0.4
		c0.3,0,0.6-0.1,0.9-0.2c0.4-0.2,0.7-0.3,0.9-0.4c0.6-0.3,1.1-0.5,1.7-0.9c7.7-6.2,13.3-12.8,17-20.1
		C124.4,91.5,124.8,88.9,124.4,86.8z M119.8,91.7c-3.1,6.2-7.8,11.9-14.2,17.3c0.2-0.8,0.4-1.6,0.6-2.4c0.6-2.6,1.3-5.3,1.8-7.9
		c0.8-3.9,0.2-8-1.8-12.2c-2.2-4.9-4.6-9.8-6.8-14.6c-1.8-3.7-3.5-7.5-5.2-11.2c-3.2-6.8-5.9-13.1-7.4-19.8c-0.8-3.5-0.2-6.8,1.8-10
		c2.7-4.5,6.2-8.3,10.6-11.8c-0.1,0.5-0.1,1-0.2,1.5c-0.7,5-1.2,10.3,0.3,15.4c1,3.6,2.6,7,4.1,10.3l0.3,0.7
		c1.8,3.9,3.6,7.7,5.3,11.6c2.8,6.1,5.7,12.3,8.4,18.5c1.5,3.4,2.3,7.1,2.9,10.3C120.7,88.8,120.5,90.5,119.8,91.7z"/>
</g>
</svg>
