<?xml version="1.0" encoding="utf-8"?>
<!-- Generator: Adobe Illustrator 21.1.0, SVG Export Plug-In . SVG Version: 6.00 Build 0)  -->
<svg version="1.1" id="Layer_1" xmlns="http://www.w3.org/2000/svg" xmlns:xlink="http://www.w3.org/1999/xlink" x="0px" y="0px"
	 viewBox="0 0 128 128" style="enable-background:new 0 0 128 128;" xml:space="preserve">
<g>
	<path d="M64,0L64,0c-0.4,0-0.9,0-1.3,0C28.5,0.7-0.8,28.9,0,65.6C0.8,99.4,28.5,128,64.2,128c0.5,0,1.1,0,1.6,0
		c34.1-0.8,62.3-29,62.2-64C128.1,29,99.5,0,64,0z M65.6,124c-0.5,0-1,0-1.5,0c-16,0-31.1-6.2-42.4-17.4C10.7,95.6,4.4,81,4,65.5
		C3.6,49.3,9.5,34,20.6,22.5C31.6,11.1,47,4.3,62.8,4C63.2,4,64,4,64,4c16.1,0,31.3,6.3,42.6,17.7S124,48.1,123.9,64
		C124.1,96.3,97.9,123.2,65.6,124z"/>
	<path d="M65.3,30.1c-1.5,0.2-2.9,0.2-4.4,0.2c-3.6,0-7.2-0.4-10.7-0.7c-2.8-0.2-5.6-0.4-8.4-0.4c-2.9,0-5.8,0.2-8.7,0.8
		c-7.8,1.6-14.4,5.2-19,11.9c-3.2,4.8-4.5,10.2-4.9,15.9c-0.2,3.9,0,7.8,1,11.6c0.1-1.5,0-3,0.1-4.4c0.5-6.5,3-11.9,8.7-15.5
		c4.6-2.9,9.6-3.8,14.9-3.8c0.3,0,0.5,0,0.8,0c7.4,0.1,14.5,1.9,21.4,4.9c3.4,1.4,6.6,3.2,10,4.5c1.9,0.8,3.9,1.2,6,1.4
		c0,0.1,0.1,0.1,0.1,0.2c-0.9,3.2-1.8,6.5-2.7,9.8l-1.2-2.2c0.7-2.7-0.4-5-2.2-6.2c-0.9-0.6-2.1-1-3.2-1c-1,0-2,0.3-2.8,0.7
		c0.8-0.7,1.6-1.4,2.5-2c-0.1-0.1-0.2-0.3-0.3-0.3c-4.6-2.4-9.4-4.5-14.4-5.8c-0.3-0.1-0.5-0.1-0.8-0.1c-0.5,0-1.1,0.1-1.5,0.3
		c-10.9,5-16.8,17.8-13.4,29.4c3.2,11.2,13.2,18.3,24.2,18.3c2.7,0,5.5-0.4,8.2-1.4c0.8-0.3,1.5-0.6,2.3-0.9
		c1.2-0.2,2.3-0.3,3.4-0.3c1,0,2-0.2,2.9-0.3c1.2,3.3,3.8,6.1,7,8.3c2.3,1.6,4.9,2.3,7.5,2.3c4.6,0,9.4-2.2,13.5-5.7
		c-1.8-1.4-3-2.8-3.7-4.3h1.5L99,95c1.1,2.2,3,3.4,5.2,3.4c1.2,0,2.5-0.4,3.8-1.2c1.7-1.1,3.3-2.6,4.6-4.2
		c5.4-7.2,8.1-15.4,8.2-24.4c0.1-4.5-0.3-9.1-0.9-13.5c-0.5-3.6-1.5-7.2-2.3-10.8c-0.1,0-0.3,0.1-0.4,0.1c0.1,0.4,0.1,0.7,0.2,1.1
		c0.9,4.8,0.7,9.5-0.7,14.1c-1.8,6.1-5.3,11.4-9.1,16.4c-0.6,0.9-1.3,1.7-1.9,2.6l1.3-3.2c3.3-1.5,3.6-4.1,3.5-5.8
		c0-0.2-0.1-0.3-0.1-0.5c0.8-1.2,1.5-2.4,2.2-3.7c4.7-9,5.5-18.3,1.7-27.8c-2.6-6.5-7.1-11.7-12.5-16c-0.9-0.7-1.8-1.3-2.7-2
		c0,0.4,0.2,0.6,0.4,0.8c8.8,8.1,11,19,6,29.9c-1.7,3.7-3.9,6.9-6.5,9.9c-0.1-0.1-0.1-0.2-0.2-0.3c-1.1-1.7-3-2.7-5-2.7
		c-1,0-2,0.3-2.8,0.7c-2,1.1-3.2,3.5-2.6,6.3c-0.6,1.1-1.2,2.1-1.8,3.2l-3-10.7c0.6-0.9,1.2-1.9,1.4-3.1c9.3-6.4,11.9-20.6,3.1-28.9
		c-3.6-3.4-8-5.6-12.7-7.3c0,0,0,0-0.1,0s-0.2,0.1-0.3,0.1c0,0.4,0,0.9,0,1.3C75.2,23.6,72.1,29.4,65.3,30.1z M57.1,63.7L57.1,63.7
		c0,1,0.3,2.5,1.7,3.7c0.1,1,0.1,2,0.2,2.9L57.3,69c-0.3-1.8-1.2-3.2-2.6-4c0.7-1.7,1.7-3.3,2.9-4.8l0,0C57,61.6,57,62.8,57.1,63.7z
		 M56.2,93.6c-9.5,0-17.7-6.2-20.3-15.4C33.2,68.6,38,57.8,47,53.6c2.7,0.7,5.5,1.7,8.5,3.1c-2.1,2.3-3.7,4.9-4.7,7.6
		c-2.8,0.4-4.7,2.6-4.7,5.6c0,2.7,1.1,4.6,3.5,5.5c0.1,0.8,0.2,1.7,0.4,2.5c0.7,3.3,2.1,6.3,4.2,8.9l2.7,6.7
		C56.6,93.6,56.4,93.6,56.2,93.6z M87.4,101.3c-1.9,0-3.7-0.5-5.2-1.6c-1.3-0.9-3.7-2.8-5-5.3c0.4,0,0.7,0,1.1,0c0.9,0,1.7,0,2.6,0
		c2,0,3.5,0.1,5,0.2c1.1,0.1,2.1,0.2,3.1,0.3c1.3,0.1,2.6,0.2,3.9,0.4c0.4,1.3,1,2.6,1.9,3.9C92.2,100.5,89.7,101.3,87.4,101.3z
		 M110.5,78.4c2.1-2.8,4.2-5.7,6.1-9c-0.3,7.8-2.8,14.9-7.4,21.2c-0.8,1.1-2.1,2.3-3.5,3.2c-0.6,0.4-1.1,0.6-1.6,0.6
		c-1.2,0-1.8-1.2-2-2.3c-0.1-0.6-0.2-1.7,0.9-3.2C105.3,85.1,108.2,81.4,110.5,78.4z M97.4,67.1c5.3-5,8.9-9.9,11.3-15.2
		c1.4-3.1,2.3-6.2,2.7-9.3c1.8,6.9,0.9,13.9-2.7,20.9c-0.3,0.6-0.6,1.2-1,1.7c-0.9-0.7-2-1.1-3.3-1.1l0,0l0,0
		c-1.8,0-4.6,0.7-5.5,4.8l-1.7,1.4L97.4,67.1z M84.9,77.7c2.8-4.4,4.9-8.9,7.4-13.1c-0.8-1.4-0.7-2.7,0.2-3.3
		c0.2-0.1,0.5-0.2,0.8-0.2c0.6,0,1.3,0.3,1.7,0.9c0.7,1.1,0.3,1.8-1.5,3c-0.3,4.6-0.6,9.2-0.9,14c3.5-2.7,6.8-5.4,10.1-8
		c0.1-2.2,0.5-2.9,1.7-2.9l0,0c0.9,0,1.7,0.7,1.7,1.7c0.1,1.2-0.5,1.8-2.5,2.2c-2.5,6.3-5.1,12.7-7.7,19.2c-0.4,0-0.8,0-1.2,0
		c-0.2,0-0.5,0-0.7,0c-2.6-0.4-5.2-0.5-7.8-0.7c-1.8-0.2-3.6-0.2-5.4-0.2c-1.6,0-3.2,0-4.8,0c-2.1,0-4.2,0.5-6.3,0.6
		c-2.1,0.1-4.2,0.5-6.3,0.7c-1,0.1-2,0.3-3.1,0.4c-2.7-6.8-5.4-13.4-8.1-20.1c-0.5-0.1-0.8-0.1-1.2-0.2c-1-0.3-1.3-0.7-1.3-1.9
		c0-1.1,0.6-1.8,1.5-1.8h0.1c1.1,0,1.8,0.6,1.8,1.8c0,0.3,0,0.7,0,1.1c3.2,2.6,6.5,5.1,9.9,7.8c0.2-1.4,0.1-2.8,0-4.1
		c0-0.7-0.2-1.3-0.2-2c-0.2-2.6-0.3-5.2-0.4-7.8c-0.5-0.6-1.6-0.3-1.6-1.3c0-0.6,0-1.3,0.2-1.8c0.2-0.5,0.9-0.8,1.5-0.8
		c0.4,0,0.7,0.1,1,0.3c0.9,0.6,0.9,1.7,0,3.2c2.2,4,4.5,8.1,6.9,12.4c2-7.2,4-14.3,5.9-21.3c-2-1.5-2.4-3.7-1.2-5.2
		c0.5-0.7,1.4-1,2.3-1c0.8,0,1.6,0.3,2.1,0.8c1.6,1.6,1.4,3.1-0.9,5.4C80.8,62.9,82.8,70.2,84.9,77.7z M78.5,23
		c2.7,1.3,4.9,2.8,6.8,4.6c3.2,3,4.6,7.2,4,11.7c-0.5,3.9-2.5,7.3-5.4,9.8c-0.4-0.6-0.8-1.2-1.4-1.7c-1.3-1.3-3.1-2-4.9-2
		c-2.2,0-4.2,0.9-5.5,2.5c-1,1.3-1.5,2.8-1.5,4.4c-1.1-0.2-2.2-0.5-3.2-0.9c-1.8-0.7-3.5-1.5-5.4-2.4c-1.5-0.7-3-1.4-4.5-2.1
		c-7.8-3.3-15.3-5-22.9-5.2c-0.3,0-0.6,0-0.9,0c-6.7,0-12.3,1.5-17,4.5c-0.3,0.2-0.6,0.4-0.9,0.6c0.4-0.9,0.9-1.7,1.5-2.6
		c3.6-5.4,9-8.7,16.4-10.3c2.4-0.5,5-0.7,7.9-0.7c2.5,0,5.1,0.2,8.1,0.4c0.7,0.1,1.4,0.1,2.1,0.2c2.9,0.2,5.9,0.5,8.9,0.5
		c1.7,0,3.3-0.1,4.8-0.2C72.7,33.3,77.1,28.4,78.5,23z"/>
	<path d="M58.2,10c-5,0-9.8,1.1-14.6,2.7c-5.3,1.8-10,4.8-14.3,8.4c-5.1,4.4-9.4,9.5-13,15.2c0.1,0.1,0.2,0.2,0.3,0.3
		c0.1-0.2,0.2-0.3,0.3-0.5c4.8-5.2,10.8-8.3,17.7-8.8c1.9-0.1,3.8-0.2,5.6-0.2c3.7,0,7.4,0.2,11.1,0.2c3.8,0.1,7.6,0.4,11.3,0.4
		c0.7,0,1.4,0,2.1,0c4.3-0.1,6.8-2.6,7.8-6.8c0.6-2.7,0-5.1-2-7.1c-2-2-4.5-2.9-7.2-3.4C61.7,10.1,59.9,10,58.2,10z M68.7,20.1
		c-0.7,3-2.1,3.6-4.1,3.7c-0.6,0-1.3,0-2,0c-2,0-4.1-0.1-6.2-0.2c-1.7-0.1-3.4-0.1-5.1-0.2c-1.4,0-2.9-0.1-4.3-0.1
		c-2.2-0.1-4.5-0.1-6.8-0.1c-2.2,0-4.1,0.1-5.9,0.2c-0.6,0-1.1,0.1-1.7,0.2c4-3.3,8-5.7,12.2-7C50,14.8,54.2,14,58.2,14
		c1.6,0,3.1,0.1,4.6,0.4c2.2,0.4,3.8,1.1,5,2.3C68.8,17.7,69.1,18.7,68.7,20.1z"/>
	<path d="M64.8,99.2c-0.2,0-0.4,0-0.5,0.1c-2.7,0.7-5.4,1.2-8.2,1.2c-1.8,0-3.6-0.2-5.4-0.6C39.5,97.2,32,90.4,29.2,79.3
		c-2.9-11.2,0.5-20.7,9.2-28.3c1.1-1,2.3-1.8,3.5-2.7c0-0.1-0.1-0.2-0.1-0.3c-2.2-0.2-4.3-0.4-6.5-0.5c-0.7,0-1.3-0.1-2-0.1
		c-4.2,0-8.3,0.7-12.1,2.7c-2.7,1.4-5,3.2-6.2,6.2c-2.7,7.3-3.7,14.8-2.5,22.5c2.1,13.4,8.9,23.9,20.4,30.9
		c7.4,4.5,15.1,6.8,22.9,6.8c6.4,0,13-1.5,19.5-4.5c1.9-0.9,3.8-2.1,6-3.3c-6.7-2.5-10.7-4.8-15.5-9.3
		C65.6,99.3,65.2,99.2,64.8,99.2z M55.8,112.7c-7.1,0-14.1-2.1-20.8-6.2c-10.4-6.3-16.6-15.8-18.5-28.1c-1-6.8-0.3-13.7,2.3-20.5
		c0.6-1.6,1.9-2.8,4.3-4.1c2.7-1.4,5.7-2.1,9.2-2.3c-7.3,8.2-9.7,18-7,28.8c3.1,12.3,11.6,20.4,24.4,23.4c2,0.5,4.2,0.7,6.3,0.7
		c2.6,0,5.2-0.3,8.1-1c2.6,2.3,5.1,4.1,8,5.7C66.6,111.5,61.1,112.7,55.8,112.7z"/>
</g>
</svg>
