<?xml version="1.0" encoding="utf-8"?>
<!-- Generator: Adobe Illustrator 21.1.0, SVG Export Plug-In . SVG Version: 6.00 Build 0)  -->
<svg version="1.1" id="Layer_1" xmlns="http://www.w3.org/2000/svg" xmlns:xlink="http://www.w3.org/1999/xlink" x="0px" y="0px"
	 viewBox="0 0 128 128" style="enable-background:new 0 0 128 128;" xml:space="preserve">
<style type="text/css">
	.st0{fill:#612953;}
</style>
<g>
	<path class="st0" d="M64,4C64,4,64.1,4,64,4c2.3,0,3.5,1.5,4.5,3.3c15,27,30.1,53.9,45.1,80.9c2.1,3.7,1.5,5.7-2.1,7.8
		c-14.7,8.8-29.4,17.6-44.2,26.4c-1,0.6-2.2,1-3.4,1.5c-1.1-0.5-2.2-0.8-3.1-1.4c-14.9-8.9-29.8-17.7-44.6-26.7
		c-3.4-2.1-4-4.1-2-7.6c15.1-27,30.2-54.1,45.2-81.1C60.5,5.4,61.8,4,64,4 M20,87.2c4.8-2.2,9-4.2,13.3-6.1c1.6-0.7,3.2-1.1,4.7-1.1
		c1.9,0,3.8,0.5,5.6,1.5c2.1,1.1,4.3,2.3,6.1,3.9C53.3,88.5,57,91,62,91.6c-1.1,1.4-1.9,2.6-3.4,4.5c-3.5-2.1-6.9-4.1-10.3-6.2
		c-2.5-1.6-4.9-3.3-7.5-4.8c-0.8-0.5-1.9-0.9-2.9-0.9c-0.2,0-0.5,0-0.7,0.1c-6.2,1.8-11.8,4.9-17.6,8.5
		c14.2,8.5,27.9,16.7,42.1,25.1c0-5.7,0.1-10.8,0-16c-0.1-3.1,1.1-5.6,3.3-7.6c1.5-1.4,3.2-2.7,5-3.6c5-2.4,9.1-5.7,11.4-11.2
		c1.1,1.6,1.9,2.9,2.8,4.3c-2.4,4.4-5.9,7.5-10.2,9.8c-2,1.1-3.9,2.2-5.6,3.6c-0.9,0.7-2,2-2,3c-0.2,5.7-0.1,11.4-0.1,17.6
		c14.1-8.4,27.7-16.6,41.9-25c-5.6-2.8-10.5-5.4-15.6-7.8c-3.6-1.7-6.2-4.3-7.7-8c-1-2.6-1.9-5.2-2.6-7.9c-1.9-7.1-6.3-11.8-13.6-14
		c-0.8-0.2-1.6-0.4-2.5-0.7c1.8-2.5,2.5-3.6,3.7-3.6c0.8,0,1.9,0.5,3.7,1.3c6.6,3.2,11.3,8.3,12.7,15.5c1.5,7.6,4.8,13.2,12.5,15.7
		c2,0.7,3.9,1.9,5.8,2.8c1.1,0.5,2.2,1,3.3,1.5c0.1-0.2,0.2-0.3,0.3-0.5C94.5,62.4,80.7,37.8,67,13.1c-0.2,0-0.5,0.1-0.7,0.1
		c0,0.9,0,1.9,0,2.8c0,8.8-0.2,17.6,0.1,26.4c0.2,5.1-1.9,8.6-6,11.2c-1.5,1-3.1,1.9-4.7,2.7c-5.1,2.5-8.4,6.5-9.6,12
		c-0.6,3-0.4,6.1-0.6,9.1C40.8,76,40.8,76,41.2,71c0.7-8.6,5.1-14.7,12.6-18.8c2-1.1,4.2-2.2,5.8-3.8c1.2-1.1,2.1-3,2.1-4.6
		c0.2-9.7,0.1-19.4,0.1-29.1c0-0.5-0.2-1.1-0.3-2.2C47.5,37.8,33.9,62.3,20,87.2 M64,0L64,0c-5,0-7.3,4-8,5.3
		c-8.4,15-16.7,30-25.1,45c-6.7,12-13.4,24.1-20.1,36.1c-3,5.4-1.9,9.8,3.4,13c14.4,8.6,29.4,17.6,44.6,26.7
		c0.9,0.5,1.7,0.9,2.5,1.2c0.3,0.1,0.6,0.3,1,0.4c0.5,0.2,1.1,0.3,1.6,0.3c0.6,0,1.1-0.1,1.6-0.3c0.3-0.2,0.7-0.3,1-0.4
		c0.9-0.4,1.8-0.8,2.8-1.3c12.9-7.7,26.5-15.8,44.2-26.4c5.5-3.3,6.6-7.6,3.5-13.2c-7.5-13.5-15.1-27-22.6-40.6
		C87,32.3,79.5,18.8,72.1,5.4C71.2,3.9,69.1,0,64,0C64.1,0,64,0,64,0L64,0z M69.9,46.9c0.3-1.3,0.4-2.8,0.3-4.3
		c-0.2-5-0.2-10.2-0.1-15.3L95,72.1l4,7.2c-4.8-2-7.5-5.7-8.8-12.4c-1.6-8.1-6.8-14.4-14.9-18.3C73.2,47.6,71.7,46.9,69.9,46.9
		L69.9,46.9z M29.5,78.4l28.3-50.9c0,5.5,0,11.1-0.1,16.5c0,0.4-0.4,1.3-0.9,1.8c-1,1-2.5,1.8-4.1,2.6c-0.3,0.2-0.6,0.3-0.9,0.5
		c-8.9,4.9-13.8,12.3-14.6,22c-0.2,1.9-0.3,3.5,0,4.9c-1.9,0.1-3.8,0.6-5.6,1.4C30.9,77.8,30.2,78.1,29.5,78.4L29.5,78.4z
		 M48.8,79.8c0.3-0.5,0.5-1.2,0.6-1.8c0.1-1,0.1-2,0.1-3c0-2,0.1-3.9,0.4-5.5c0.9-4.2,3.3-7.2,7.4-9.2c1.8-0.9,3.5-1.8,5.1-2.9
		c0.2-0.1,0.4-0.3,0.6-0.4c0.5,0.7,1.3,1.2,2.1,1.4c0.3,0.1,0.6,0.1,0.8,0.2c0.5,0.1,1,0.3,1.6,0.4c5.9,1.7,9.3,5.3,10.9,11.4
		c0.5,1.9,1,3.8,1.7,5.6c-1,0.4-1.9,1.2-2.3,2.2c-1.7,4-4.6,6.9-9.4,9.1c-1.1,0.5-2.2,1.2-3.2,1.9c-0.6-0.8-1.6-1.4-2.7-1.6
		c-3.5-0.4-6.4-2-10.2-5.3C51.3,81.4,50,80.6,48.8,79.8L48.8,79.8z M70.4,101.1c0.1-0.2,0.3-0.3,0.5-0.5c1.4-1.1,3-2.1,5.1-3.2
		c5-2.7,8.7-6.2,11.3-10.6c1.1,0.8,2.3,1.5,3.5,2.1c3,1.4,6,2.9,9,4.5l-16.5,9.9l-13,7.7C70.3,107.6,70.3,104.3,70.4,101.1
		L70.4,101.1z M27.5,92.9c3.6-2,7-3.6,10.6-4.6c0.2,0,0.5,0.1,0.8,0.3c1.4,0.8,2.8,1.7,4.3,2.7c1,0.7,2,1.3,3.1,2
		c2.4,1.5,4.8,2.9,7.2,4.4c1,0.6,2.1,1.2,3.1,1.9c0.4,0.2,0.8,0.4,1.3,0.5c-0.1,0.7-0.1,1.4-0.1,2.1c0.1,2.9,0.1,5.8,0.1,8.8
		L27.5,92.9L27.5,92.9z"/>
</g>
</svg>
