<?xml version="1.0" encoding="utf-8"?>
<!-- Generator: Adobe Illustrator 21.1.0, SVG Export Plug-In . SVG Version: 6.00 Build 0)  -->
<svg version="1.1" id="Layer_1" xmlns="http://www.w3.org/2000/svg" xmlns:xlink="http://www.w3.org/1999/xlink" x="0px" y="0px"
	 viewBox="0 0 128 128" style="enable-background:new 0 0 128 128;" xml:space="preserve">
<style type="text/css">
	.st0{fill:#39BAEB;}
</style>
<g>
	<path class="st0" d="M37.9,10.2L27,0.5c-0.6-0.5-1.4-0.6-2.1-0.4c-0.7,0.3-1.2,0.9-1.2,1.7v0.3c0,0.2,0,0.3,0,0.5v1.8
		c0,13.4,0,26.7,0,40.1c0,0.8,0.4,1.7,1,2.3c10,10,20,20,30,30c0.2,0.2,0.4,0.3,0.5,0.5c0.4,0.4,0.9,0.5,1.4,0.5
		c0.2,0,0.5,0,0.7-0.1c0.4-0.2,0.9-0.3,1.3-0.5c1-0.4,1.9-0.7,2.7-1c1.5-0.4,2.2-1.4,2.2-3c0-12.9,0-25.7,0-38.6
		c0-1.1-0.4-2.1-1.3-2.8C54,24.5,46,17.4,37.9,10.2z M59.4,72.5c-0.8,0.3-1.6,0.6-2.4,0.9h-0.1c-9.8-9.8-19.5-19.5-29.3-29.3
		c0-12.6,0-25.1,0-37.7l7.7,6.8c8,7.1,16.1,14.3,24.2,21.4C59.4,47.2,59.4,59.8,59.4,72.5z"/>
	<path class="st0" d="M25.6,87.1h21.6h0.7c0.2,0,0.5,0,0.7,0c0.4,0,0.8,0,1.3,0c0.9-0.1,2-0.6,2.4-1.6c0.5-1.3,1-2.6,1.5-3.7
		l0.4-0.9c0.3-0.7,0.1-1.6-0.5-2.1L27,51.9c-0.6-0.6-1.4-0.7-2.2-0.4c-0.7,0.3-1.2,1-1.2,1.8V85C23.6,86.2,24.5,87.1,25.6,87.1z
		 M27.6,58.2l22.2,22.3c-0.3,0.8-0.6,1.7-1,2.6c-0.3,0-0.6,0-0.9,0H27.6C27.6,83.1,27.6,58.2,27.6,58.2z"/>
	<path class="st0" d="M62.1,99.8l-5.3-2.2c-0.7-0.3-1.6-0.1-2.2,0.4l-17.2,17.3c-0.4,0.4-0.6,0.9-0.6,1.5s0.3,1.1,0.7,1.4
		c6.7,5.7,14.7,9,23.6,9.7c0.1,0,0.1,0,0.2,0c0.5,0,1-0.2,1.4-0.5c0.4-0.4,0.6-0.9,0.6-1.5v-24.3C63.3,100.8,62.9,100.1,62.1,99.8z
		 M59.3,123.8c-6.5-0.8-12.3-3.2-17.5-7.2l14.7-14.8l2.8,1.2V123.8z"/>
	<path class="st0" d="M88,112.6c-4.8-4.8-9.5-9.6-14.3-14.4c-0.8-0.8-2.1-0.8-3-0.5c-0.5,0.2-1.1,0.4-1.6,0.7
		c-0.8,0.4-1.6,0.7-2.3,0.9c-1.4,0.5-2.2,1.5-2.2,3c0,5.6,0,11.2,0,16.7v6c0,0.2,0,0.4,0,0.7v0.3c0,0.5,0.3,1,0.7,1.4
		c0.4,0.3,0.8,0.5,1.3,0.5c0.1,0,0.1,0,0.2,0c8.9-0.7,16.9-4,23.6-9.8c0.4-0.4,0.7-0.9,0.7-1.4c0-0.6-0.2-1.1-0.6-1.5L88,112.6z
		 M68.7,123.8v-4.7c0-5.4,0-10.7,0-16.1c0.7-0.3,1.4-0.6,2.1-0.9c0.3-0.1,0.5-0.2,0.8-0.3c4.5,4.5,9,9.1,13.6,13.7l1.1,1.1
		C81.1,120.6,75.3,122.9,68.7,123.8z"/>
	<path class="st0" d="M54,94.7c-0.2-0.4-0.3-0.8-0.5-1.2c-0.4-1-0.8-1.9-1.1-2.9c-0.5-1.5-1.5-2.2-3-2.2c-6,0-11.9,0-17.9,0h-5.8
		c-0.6,0-1.1,0.2-1.5,0.7c-0.4,0.4-0.6,1-0.5,1.5c0.8,9.1,4.1,17,9.8,23.6c0.4,0.4,0.9,0.7,1.4,0.7c0,0,0,0,0.1,0
		c0.5,0,1-0.2,1.4-0.6L53.6,97C54.1,96.3,54.3,95.5,54,94.7z M35.1,109.8c-3.9-5-6.3-10.8-7.2-17.4h3.6c5.8,0,11.5,0,17.3,0
		c0.3,0.9,0.7,1.8,1,2.6L35.1,109.8z"/>
	<path class="st0" d="M65,74.5c0.2,0.4,0.6,1.1,1.4,1.5c1.3,0.5,2.5,1,3.8,1.4l1.1,0.4c0.2,0.1,0.5,0.1,0.7,0.1c0.5,0,1-0.2,1.4-0.6
		L90.5,60c0.4-0.4,0.6-0.9,0.6-1.5s-0.3-1.1-0.7-1.4c-6.8-5.8-14.7-9-23.6-9.7c-0.5,0-1.1,0.1-1.5,0.5s-0.6,0.9-0.7,1.4v0.3
		c0,0.3,0,0.5,0,0.7v17v5.6C64.7,73.3,64.6,73.8,65,74.5z M68.7,51.7c6.4,0.8,12.3,3.2,17.5,7.2L71.5,73.6c-1-0.4-1.9-0.7-2.8-1.1
		V51.7z"/>
	<path class="st0" d="M74,80.7l2.1,5.1c0.3,0.7,1,1.2,1.8,1.2h24.4c0.6,0,1.1-0.2,1.5-0.6s0.6-1,0.5-1.5c-0.7-9-3.9-16.7-9.8-23.6
		c-0.4-0.4-0.9-0.7-1.4-0.7c-0.6,0-1.1,0.2-1.5,0.6L74.5,78.5C73.9,79.1,73.7,79.9,74,80.7z M92.9,65.5c4,5.2,6.4,11,7.2,17.5H79.3
		l-1.1-2.6L92.9,65.5z"/>
	<path class="st0" d="M103.9,89c-0.4-0.4-0.9-0.6-1.5-0.6H83.1c-1.6,0-3.1,0-4.7,0c-0.9,0-2.1,0.6-2.6,1.6c-0.5,1.2-0.9,2.3-1.3,3.4
		l-0.3,0.9c-0.3,0.7-0.1,1.5,0.5,2.1L92,113.9c0.4,0.4,0.9,0.6,1.4,0.6h0.1c0.6,0,1.1-0.3,1.4-0.7c5.5-6.6,8.7-14.5,9.4-23.2
		C104.5,90,104.3,89.4,103.9,89z M93.3,109.5L78.5,94.6c0.3-0.7,0.5-1.4,0.8-2.2c1.3,0,2.6,0,3.8,0h17.1
		C99.3,98.8,97.1,104.4,93.3,109.5z"/>
</g>
</svg>
