<?xml version="1.0" encoding="utf-8"?>
<!-- Generator: Adobe Illustrator 21.1.0, SVG Export Plug-In . SVG Version: 6.00 Build 0)  -->
<svg version="1.1" id="Layer_1" xmlns="http://www.w3.org/2000/svg" xmlns:xlink="http://www.w3.org/1999/xlink" x="0px" y="0px"
	 viewBox="0 0 128 128" style="enable-background:new 0 0 128 128;" xml:space="preserve">
<style type="text/css">
	.st0{fill:#1F75BC;}
</style>
<g>
	<path class="st0" d="M125.3,33.2c-2.8-3.7-7.6-5.9-12.6-5.8c-18.6,0.2-37.5,0.2-55.7,0.1c-7.6,0-15.2,0-22.9,0
		c-1.4,0-2.8,0-4.3,0.1c-1,0-2.7,0.7-3.3,2.1c-1.5,4.3-3,8.5-4.5,13l-1.2,3.4c-0.2,0.6-0.1,1.3,0.3,1.8s1,0.8,1.6,0.8h73.1L93.4,56
		c-2.6,7.5-5.3,15.2-7.8,22.8c-0.2,0.5-0.3,0.6-0.3,0.6s-0.1,0.1-0.7,0.1c-16.6,0-33.4,0-49.7,0H22c-0.8,0-1.7,0-2.5,0
		c-2.4,0-4.8,0-7.2,0.1c-1.1,0-3.1,0.8-3.6,2.3c-1.6,4.1-3,8.2-4.5,12.5L3,98c-0.2,0.6-0.1,1.3,0.3,1.8s1,0.8,1.6,0.8h13
		c3.7,0,7.3,0,11,0c20.5,0,40.9,0,61.4,0c1.3,0,2.4-0.1,3.3-0.4c11-3,18.4-9.7,22.1-19.8c0.7-2,1.4-4,2-5.9c0.3-0.9,0.6-1.8,0.9-2.6
		c0.9-2.5,1.8-5.1,2.7-7.6c2-5.6,4.1-11.5,5.8-17.3C129.1,40.2,127.2,35.8,125.3,33.2z M123.3,45.8c-1.7,5.8-3.7,11.5-5.7,17.1
		c-0.9,2.5-1.8,5.1-2.7,7.6c-0.3,0.9-0.6,1.8-0.9,2.7c-0.6,1.9-1.3,3.9-2,5.8c-3.3,9-9.6,14.6-19.4,17.3c-0.6,0.2-1.4,0.3-2.3,0.3
		c-24.1,0-48.2,0-72.4,0H7.7l0.3-1c1.4-4.2,2.8-8.1,4.2-12.1h0.1c2.3-0.1,4.7-0.1,7.1-0.1c0.8,0,1.7,0,2.5,0h12.9
		c16.3,0,33.2,0,49.7,0l0,0c2.5,0,4-1.1,4.8-3.4c2.6-7.6,5.2-15.3,7.8-22.8l2.8-8c0.1-0.4,0.2-0.8,0.4-1.2l0.2-0.8
		c0.2-0.6,0.1-1.3-0.3-1.8s-1-0.8-1.6-0.8h-73l0.3-0.8c1.5-4.3,2.9-8.4,4.3-12.4c1.3-0.1,2.6,0,3.9,0c7.6,0.1,15.3,0,22.9,0
		c18.3,0,37.2,0.1,55.8-0.1c3.8-0.1,7.3,1.6,9.4,4.2C124.1,38.2,124.5,41.8,123.3,45.8z"/>
	<path class="st0" d="M45.9,74.1c1,0,2.7-0.6,3.3-2c1.5-4.1,3-8.1,4.6-12.4l1.1-3.2c0.2-0.6,0.1-1.3-0.2-1.8c-0.4-0.5-1-0.9-1.6-0.9
		h-6.2c-13,0-25.3,0-37.8,0c-1.3,0-2.8,1-3.3,2.3C4.3,60,2.9,64,1.5,67.8l-1.2,3.3c-0.4,1,0.2,2.2,1.2,2.6c0.1,0,0.2,0.1,0.2,0.1
		c0.3,0.1,0.7,0.3,1.2,0.3c7,0,14,0,20.9,0C31.1,74.1,38.4,74.1,45.9,74.1z M5.1,69.3c1.4-3.7,2.8-7.6,4.2-11.4
		c12.4,0,24.6,0,37.5,0h3.4L50,58.4c-1.5,4.1-2.9,7.9-4.3,11.7c-13.7,0-27.2,0-40.9,0L5.1,69.3z"/>
</g>
</svg>
