<?xml version="1.0" encoding="utf-8"?>
<!-- Generator: Adobe Illustrator 21.1.0, SVG Export Plug-In . SVG Version: 6.00 Build 0)  -->
<svg version="1.1" id="Layer_1" xmlns="http://www.w3.org/2000/svg" xmlns:xlink="http://www.w3.org/1999/xlink" x="0px" y="0px"
	 viewBox="0 0 128 128" style="enable-background:new 0 0 128 128;" xml:space="preserve">
<style type="text/css">
	.st0{fill:#026990;}
</style>
<g>
	<path class="st0" d="M88.6,4c0.5,0,1,0.3,1.6,0.9c1.3,1.4,1,2.5-0.3,3.7c-3.2,3.2-6.3,6.6-9.6,9.7c-1.4,1.4-1.6,2.4-0.6,4.2
		c7.3,13,3.7,28.3-10.8,35.2c-1.4,0.7-2.9,1-4.4,1.3c-1.7,0.4-2.4,1.3-2.4,3.1c0.1,3.7,0.1,7.5,0,11.2c-0.1,2,0.6,2.9,2.6,3.4
		c7.7,1.8,13.2,6.5,16.7,13.7c3.3,6.9,2.4,19.3-4.7,26.7c-4.2,4.4-10.8,6.9-17.1,6.9c-2.6,0-5.1-0.4-7.4-1.3
		c-9.4-3.7-15.2-12-15.3-21.9c-0.1-12,6.4-20.6,18-23.9c1.7-0.5,2.7-1.3,2.7-3.2c-0.1-4.3,0-8.5-0.2-12.8c0-0.7-1.4-1.8-2.3-2
		c-7.5-2-13-6.5-16.1-13.6c-7.1-16,4.6-33.5,19.6-33.5c0.4,0,0.8,0,1.1,0s0.5,0,0.8,0c4.4,0,8.4,0.9,12,3.4c0.7,0.5,1.4,0.7,2,0.7
		c0.9,0,1.7-0.4,2.5-1.3c3.1-3.2,6.3-6.3,9.4-9.5C87.3,4.5,87.9,4,88.6,4 M60.4,54.7c9.6,0,18.5-9,18.5-19c0-9.2-6.7-18.8-18-18.8
		c-0.2,0-0.3,0-0.5,0c-10.4,0.2-18.7,8-18.7,18.2C41.6,45.9,49.9,54.6,60.4,54.7C60.3,54.7,60.3,54.7,60.4,54.7 M59.9,119.3
		c0.1,0,0.1,0,0.2,0c10.1-0.1,18.8-9,18.7-19.3c0-9.9-8.7-18.9-18.2-19h-0.1c-10,0-19.1,8.9-19.2,18.8
		C41.2,109.7,50.4,119.3,59.9,119.3 M88.6,0c-2.5,0-4.2,1.7-4.9,2.4c-1.1,1.1-2.2,2.2-3.3,3.3c-2,1.9-4,3.9-5.9,6
		c-4-2.6-8.5-3.8-13.9-3.8c-0.2,0-0.5,0-0.7,0c-0.4,0-0.8,0-1.2,0c-8.3,0-16.2,4.5-21.1,12C32.3,28,31.5,38.2,35.4,47
		c3.5,8,9.7,13.2,18.2,15.6c0.1,2.3,0.1,4.7,0.1,7.1c0,1.1,0,2.3,0,3.4C40.5,76.9,33,87,33.1,100.8c0.1,11.5,6.9,21.3,17.8,25.6
		c2.7,1.1,5.7,1.6,8.8,1.6c7.4,0,15.1-3.1,20-8.1c8.4-8.7,9.4-22.9,5.5-31.2c-4-8.3-10.3-13.6-18.9-15.8c0.1-3.2,0.1-6.5,0-10.2
		c1.4-0.3,3-0.7,4.5-1.4c7.6-3.7,13.1-9.7,15.4-17.1c2.4-7.5,1.4-15.8-2.7-23.3c1.8-1.8,3.6-3.6,5.3-5.4c1.3-1.4,2.7-2.8,4-4.1
		c4.3-4.3,1.4-8.2,0.3-9.3C91.5,0.4,89.7,0,88.6,0L88.6,0z M60.4,50.7L60.4,50.7c-8.2,0-14.8-7-14.7-15.5c0-7.9,6.4-14,14.8-14.2
		c0.1,0,0.2,0,0.4,0c8.8,0,14,7.5,14,14.8c0,3.8-1.7,7.6-4.6,10.5C67.4,49.1,63.8,50.7,60.4,50.7L60.4,50.7z M59.9,115.3
		c-3.4,0-6.9-1.7-9.8-4.6c-3-3.1-4.8-7.1-4.8-10.8C45.4,92.1,52.7,85,60.5,85h0.1c7.3,0.1,14.2,7.3,14.2,15
		C74.8,108,67.9,115.2,59.9,115.3L59.9,115.3L59.9,115.3z"/>
</g>
</svg>
