<?xml version="1.0" encoding="utf-8"?>
<!-- Generator: Adobe Illustrator 21.1.0, SVG Export Plug-In . SVG Version: 6.00 Build 0)  -->
<svg version="1.1" id="Layer_1" xmlns="http://www.w3.org/2000/svg" xmlns:xlink="http://www.w3.org/1999/xlink" x="0px" y="0px"
	 viewBox="0 0 128 128" style="enable-background:new 0 0 128 128;" xml:space="preserve">
<style type="text/css">
	.st0{fill:#4C6F8C;}
	.st1{fill:#829AAF;}
</style>
<g>
	<path class="st0" d="M113.7,4c1.3,0,2.5,0,3.8,0.1c3,0.1,5.3,2,6,4.9c0.3,1.4,0.5,2.8,0.5,4.2c0,33.1,0,66.1,0,99.2
		c0,2.2-0.2,4.4-0.4,6.6c-0.2,2.4-3,4.7-5.8,4.9c-1.4,0.1-2.7,0.1-4.1,0.1c-1.3,0-2.5,0-3.8-0.1c-3.4-0.2-5.8-3-5.8-6.7
		c0-15,0-29.9,0-44.9c0-2.8,0-5.6,0-8.4c0-17.2,0-34.4,0-51.6c0-0.7,0-1.3,0-2c0.1-3.6,2.4-6,6-6.2C111.3,4,112.5,4,113.7,4
		 M113.7,0c-1.3,0-2.6,0-3.8,0.1c-5.7,0.3-9.6,4.3-9.8,10.1c0,0.5,0,1,0,1.5v0.6v44.2v7.4v8.4v12.1c0,10.9,0,21.9,0,32.8
		c0,5.9,4,10.4,9.6,10.7c1.3,0.1,2.7,0.1,4.1,0.1s2.8,0,4.3-0.1c4.7-0.2,9.1-4.1,9.6-8.5c0.2-2.2,0.4-4.6,0.4-7.1
		c0-32.1,0-65.5,0-99.2c0-1.7-0.2-3.4-0.6-5.1c-1.1-4.7-4.9-7.8-9.8-8C116.2,0,114.9,0,113.7,0L113.7,0z"/>
	<path class="st1" d="M47.1,51.8c1.6,0,3.1,0.2,4.7,0.5c3.4,0.8,5,2.8,5.3,6.2c0.1,1.6,0.1,3.3,0.1,5c0,8.3,0,16.5,0,24.8
		c0,9,0,18,0,27c0,0.7,0,1.5,0,2.2c-0.4,4-2.8,6.3-6.8,6.4c-1.2,0-2.3,0.1-3.5,0.1c-1,0-2.1,0-3.1-0.1c-3.5-0.2-5.5-2.1-6-5.6
		c-0.2-1.5-0.4-3.1-0.4-4.7c0-17.5,0-35,0-52.5c0-1.5,0.3-3.1,0.6-4.6c0.5-2,1.8-3.4,3.7-3.9C43.4,52.1,45.2,51.8,47.1,51.8
		 M47.1,47.8c-2.2,0-4.5,0.3-6.6,0.9c-3.4,1-5.7,3.4-6.5,6.8c-0.5,2-0.7,3.8-0.7,5.5c0,15.6,0,32.3,0,52.5c0,1.6,0.1,3.2,0.4,5.2
		c0.8,5.4,4.4,8.8,9.8,9c1,0,2.1,0.1,3.3,0.1c1.3,0,2.5,0,3.6-0.1c6-0.1,10.1-4,10.7-10c0.1-0.8,0.1-1.5,0.1-2.1c0-0.2,0-0.3,0-0.5
		c0-7.1,0-14.2,0-21.3v-5.7v-6.5c0-6.1,0-12.2,0-18.3c0-0.4,0-0.8,0-1.2c0-1.3,0-2.6-0.1-4c-0.4-5.2-3.3-8.6-8.4-9.8
		C50.8,48,49,47.8,47.1,47.8L47.1,47.8z"/>
	<path class="st1" d="M81.4,68.6c0.9,0,1.8,0,2.7,0.1c3.9,0.3,6.2,2.8,6.2,7.2c0.1,6.9,0,13.7,0,20.6c0,6.5,0,13.1,0,19.6
		c0,1.4-0.4,2.7-0.8,4.1c-0.8,2.5-2.8,3.6-5.3,3.7c-1.3,0.1-2.5,0.1-3.8,0.1c-1.2,0-2.4,0-3.6-0.1c-3.7-0.3-6-2.6-6.4-6.3
		c0-0.5,0-1,0-1.5c0-13.2,0-26.4,0-39.7c0-1.1,0.1-2.3,0.5-3.4c0.8-2.2,2.3-3.9,4.8-4.1C77.7,68.8,79.6,68.6,81.4,68.6 M81.4,64.6
		L81.4,64.6c-2.1,0-4.1,0.1-5.9,0.3c-3.8,0.3-6.7,2.6-8.2,6.7c-0.5,1.4-0.8,2.9-0.8,4.8c0,10.8,0,21.7,0,32.3v7.3v0.3
		c0,0.4,0,1,0.1,1.6c0.6,5.7,4.4,9.5,10.1,9.9c1.3,0.1,2.6,0.1,3.9,0.1s2.7,0,4-0.1c4.4-0.3,7.6-2.6,8.8-6.5c0.5-1.6,1-3.3,1-5.2
		c0.1-4.9,0.1-9.8,0-14.6c0-1.7,0-3.4,0-5.1c0-2,0-4.1,0-6.1c0-4.7,0-9.7-0.1-14.5c-0.1-6.4-3.9-10.7-10-11.1
		C83.5,64.7,82.5,64.6,81.4,64.6L81.4,64.6z"/>
	<path class="st1" d="M14.2,85.1c1,0,2,0,3,0.1c3.2,0.1,6,2,6.4,5.6c0.1,1.5,0.4,2.9,0.4,4.4c0.1,3.2,0,6.4,0,9.7
		c0,3.7,0,7.4,0,11.1c0,2.4-0.5,4.9-2.6,6.4c-1.1,0.8-2.4,1.4-3.7,1.6c-1.1,0.1-2.2,0.2-3.3,0.2c-1.3,0-2.6-0.1-3.8-0.1
		c-4-0.2-6.4-2.6-6.4-6.6c-0.1-8.5-0.1-17,0-25.5c0-4.1,2.7-6.6,6.7-6.7C11.9,85.1,13,85.1,14.2,85.1 M14.2,81.1c-1,0-2.2,0-3.5,0.1
		C4.4,81.3,0.1,85.6,0.1,91.7c-0.1,8.2-0.1,16.5,0,25.6c0.1,6.2,4.1,10.3,10.3,10.6h0.2c1.2,0,2.5,0.1,3.8,0.1
		c1.4,0,2.6-0.1,3.7-0.2c2.3-0.2,4.3-1.4,5.6-2.3c4.2-3,4.2-7.8,4.3-9.6c0-2.6,0-5.3,0-7.9c0-1.1,0-2.2,0-3.3c0-0.9,0-1.8,0-2.8
		c0-2.3,0-4.6,0-7c0-1.3-0.2-2.6-0.3-3.8c0-0.3-0.1-0.6-0.1-1c-0.5-5.2-4.6-8.9-10.2-9.2C16.3,81.1,15.3,81.1,14.2,81.1L14.2,81.1z"
		/>
</g>
</svg>
