<?xml version="1.0" encoding="utf-8"?>
<!-- Generator: Adobe Illustrator 21.1.0, SVG Export Plug-In . SVG Version: 6.00 Build 0)  -->
<svg version="1.1" id="Layer_1" xmlns="http://www.w3.org/2000/svg" xmlns:xlink="http://www.w3.org/1999/xlink" x="0px" y="0px"
	 viewBox="0 0 128 128" style="enable-background:new 0 0 128 128;" xml:space="preserve">
<style type="text/css">
	.st0{fill:#01A996;}
</style>
<g>
	<path class="st0" d="M92.7,17.5C92.7,17.5,92.8,17.5,92.7,17.5c4.3,0,7.6-3.1,7.6-7.2c0-4-3.1-7.3-7-7.5c-0.1,0-0.2,0-0.3,0
		c-4.2,0-7.5,3.5-7.4,7.2C85.6,14.1,88.8,17.4,92.7,17.5z M90.6,7.9c0.4-0.4,1.2-1.1,2.5-1.1h0.1c1.7,0.1,3.2,1.6,3.1,3.4
		c0,1.9-1.5,3.3-3.6,3.3c-1.7,0-3.1-1.6-3.1-3.4V10C89.6,9.2,90,8.4,90.6,7.9z"/>
	<path class="st0" d="M101.3,106.5c-4.2,0-7.4,3.2-7.4,7.3c0,4,3.3,7.3,7.3,7.3l0,0c4.1,0,7.3-3.3,7.3-7.4
		C108.6,109.7,105.4,106.5,101.3,106.5z M103.6,116.2c-0.6,0.6-1.5,1-2.4,1c-1.8,0-3.3-1.5-3.3-3.3c0-1.9,1.5-3.3,3.4-3.3
		s3.3,1.4,3.3,3.3C104.6,114.7,104.2,115.6,103.6,116.2z"/>
	<path class="st0" d="M7.4,61.8C7.4,61.8,7.3,61.8,7.4,61.8C3.3,61.8,0,65,0,69c0,4.3,3.1,7.5,7.3,7.5l0,0c4,0,7.3-3.2,7.3-7.2
		C14.7,65.1,11.5,61.8,7.4,61.8z"/>
	<path class="st0" d="M95.1,23.3C95.1,23.3,95,23.3,95.1,23.3c-3.5,0-6.3,2.8-6.3,6.3s2.8,6.3,6.2,6.3c0,0,0,0,0.1,0
		c3.4,0,6.3-2.9,6.3-6.4C101.3,26.1,98.5,23.3,95.1,23.3z"/>
	<path class="st0" d="M23.1,51.4L23.1,51.4c-3.4,0-6.2,2.8-6.2,6.2c0,3.5,2.8,6.3,6.3,6.3l0,0c3.5,0,6.3-2.9,6.3-6.3
		C29.4,54.2,26.6,51.4,23.1,51.4z M24.8,59.2c-0.3,0.3-0.8,0.7-1.6,0.7c-0.6,0-1.2-0.2-1.6-0.7c-0.4-0.4-0.7-1-0.7-1.6
		c0-1.2,1-2.2,2.2-2.2c1.3,0,2.4,1,2.4,2.3C25.5,58.4,25,58.9,24.8,59.2z"/>
	<path class="st0" d="M111.4,38.1L111.4,38.1c3.5,0,6.3-2.8,6.3-6.2s-2.8-6.2-6.2-6.3h-0.1c-3.4,0-6.2,2.8-6.2,6.3
		C105.1,35.3,108,38.1,111.4,38.1z"/>
	<path class="st0" d="M83.4,99.6L83.4,99.6c-3.5,0.1-6.3,2.9-6.4,6.3c0,3.5,2.8,6.3,6.3,6.3l0,0c3.4,0,6.3-2.9,6.3-6.3
		C89.7,102.5,86.8,99.6,83.4,99.6z M85,107.5c-0.3,0.3-0.8,0.7-1.6,0.7c-0.8,0-1.4-0.4-1.6-0.7c-0.3-0.3-0.7-0.8-0.7-1.6
		c0-1.2,1-2.3,2.3-2.3l0,0c1.1,0,2.2,1.1,2.2,2.3C85.7,106.7,85.2,107.2,85,107.5z"/>
	<path class="st0" d="M23.2,42.3c0-3.5-2.8-6.3-6.3-6.3l0,0c-3.4,0-6.2,2.9-6.2,6.3c0,3.5,2.8,6.3,6.2,6.3l0,0
		C20.4,48.5,23.2,45.8,23.2,42.3z"/>
	<path class="st0" d="M73.2,112.7L73.2,112.7c-3.5,0-6.2,2.8-6.3,6.2c0,3.5,2.7,6.3,6.2,6.3l0,0c3.5,0,6.3-2.7,6.3-6.2
		C79.5,115.5,76.7,112.7,73.2,112.7z"/>
	<path class="st0" d="M59.9,103.6L59.9,103.6c-3,0-5.3,2.4-5.3,5.3c0,3,2.3,5.4,5.3,5.4l0,0c3,0,5.3-2.4,5.4-5.3
		C65.3,106,62.9,103.6,59.9,103.6z M59.9,110.4c-0.5,0-0.7-0.2-0.9-0.4c-0.3-0.3-0.4-0.6-0.4-1.1c0-0.8,0.6-1.4,1.3-1.4l0,0
		c0.4,0,0.7,0.2,0.9,0.4c0.2,0.2,0.4,0.5,0.4,1C61.2,109.8,60.6,110.4,59.9,110.4z"/>
	<path class="st0" d="M109.4,53.8L109.4,53.8c3,0,5.4-2.4,5.4-5.4s-2.4-5.4-5.3-5.4c0,0,0,0-0.1,0c-3,0-5.3,2.4-5.3,5.4
		C104.1,51.4,106.5,53.8,109.4,53.8z"/>
	<path class="st0" d="M32.2,30.4c-3,0-5.3,2.3-5.3,5.3s2.3,5.4,5.3,5.4l0,0c3,0,5.3-2.3,5.3-5.3C37.6,32.7,35.3,30.4,32.2,30.4
		L32.2,30.4z M33.5,35.8c0,0.8-0.6,1.3-1.3,1.3c-0.5,0-0.8-0.2-1-0.4s-0.4-0.5-0.4-1c0-0.8,0.5-1.3,1.3-1.3l0,0c0.4,0,0.7,0.1,1,0.4
		C33.4,35,33.5,35.4,33.5,35.8z"/>
	<path class="st0" d="M33.1,51.2c0,3,2.4,5.3,5.3,5.3l0,0c3,0,5.3-2.4,5.3-5.4s-2.3-5.3-5.3-5.3l0,0C35.4,45.8,33.1,48.1,33.1,51.2z
		"/>
	<path class="st0" d="M30,27.2L30,27.2c3,0,5.3-2.4,5.4-5.4c0-3-2.4-5.4-5.3-5.4l0,0c-3,0-5.3,2.4-5.3,5.3
		C24.6,24.8,27,27.2,30,27.2z M30,20.5c0.7,0,1.3,0.6,1.3,1.4s-0.6,1.4-1.4,1.4c-0.4,0-0.7-0.1-1-0.4c-0.2-0.2-0.4-0.5-0.4-1
		C28.7,21,29.3,20.5,30,20.5z"/>
	<path class="st0" d="M98.4,46.2c0-3-2.4-5.4-5.4-5.4l0,0c-3,0-5.3,2.4-5.3,5.4s2.3,5.3,5.3,5.4l0,0C96,51.5,98.4,49.1,98.4,46.2z"
		/>
	<path class="st0" d="M70.1,101.2c3,0,5.4-2.4,5.4-5.3s-2.4-5.4-5.3-5.4l0,0c-3,0-5.3,2.4-5.4,5.4C64.7,98.9,67,101.2,70.1,101.2
		C70,101.2,70,101.2,70.1,101.2z"/>
	<path class="st0" d="M49,112.5L49,112.5c-3,0-5.4,2.4-5.4,5.4c0,2.9,2.4,5.3,5.4,5.3l0,0c3,0,5.3-2.3,5.3-5.3S52,112.5,49,112.5z"
		/>
	<path class="st0" d="M122.7,48.1L122.7,48.1c-3,0-5.5,2.4-5.5,5.4c0,2.9,2.4,5.3,5.3,5.3c0,0,0,0,0.1,0c3,0,5.4-2.4,5.4-5.3
		C128,50.5,125.6,48.1,122.7,48.1z"/>
	<path class="st0" d="M50.8,102.7L50.8,102.7c2.6,0,4.6-2,4.6-4.6c0-2.5-2-4.6-4.5-4.6c0,0,0,0-0.1,0c-2.5,0-4.6,2-4.6,4.6
		S48.2,102.7,50.8,102.7z"/>
	<path class="st0" d="M46.2,28.7c-2.5,0-4.6,2.1-4.6,4.5c0,2.5,2.1,4.7,4.6,4.7l0,0c2.5,0,4.6-2.1,4.6-4.6
		C50.7,30.7,48.7,28.7,46.2,28.7L46.2,28.7z M46.7,33.3c0,0.3-0.3,0.6-0.6,0.6c-0.2,0-0.3-0.1-0.4-0.2c-0.1-0.1-0.2-0.2-0.2-0.4
		c0-0.3,0.3-0.6,0.6-0.6l0,0c0.2,0,0.3,0.1,0.4,0.2C46.7,33,46.7,33.1,46.7,33.3z"/>
	<path class="st0" d="M61,89.6L61,89.6c2.6,0,4.6-2,4.6-4.6s-2.1-4.6-4.7-4.6l0,0c-2.5,0-4.5,2-4.5,4.6C56.4,87.7,58.4,89.6,61,89.6
		z"/>
	<path class="st0" d="M39.8,102.5L39.8,102.5c-2.6,0-4.6,2-4.6,4.6s2.1,4.5,4.7,4.5l0,0c2.5,0,4.5-2,4.5-4.5
		C44.5,104.5,42.4,102.5,39.8,102.5z"/>
	<path class="st0" d="M88.2,64L88.2,64c2.6,0,4.5-2,4.5-4.5c0-2.7-1.9-4.7-4.5-4.7l0,0c-2.6,0-4.6,2-4.6,4.6
		C83.6,62,85.6,64,88.2,64z M88.2,58.8L88.2,58.8c0.2,0,0.3,0.1,0.3,0.1c0.1,0.1,0.2,0.3,0.2,0.6S88.5,60,88.2,60
		c-0.2,0-0.3,0-0.4-0.1s-0.2-0.3-0.2-0.5C87.7,59,87.9,58.8,88.2,58.8z"/>
	<path class="st0" d="M43.9,23.9L43.9,23.9c2.6,0,4.6-2,4.6-4.6c0-2.5-2.1-4.6-4.6-4.6c-2.6,0-4.6,2.1-4.6,4.7
		C39.3,22,41.3,23.9,43.9,23.9z M43.5,18.9c0.1-0.1,0.2-0.2,0.4-0.2c0.3,0,0.6,0.3,0.6,0.6c0,0.1,0,0.3-0.1,0.4s-0.2,0.2-0.5,0.2
		c-0.6,0-0.6-0.4-0.6-0.5C43.3,19.2,43.4,19,43.5,18.9z"/>
	<path class="st0" d="M104.6,66.2L104.6,66.2c2.7,0,4.6-1.9,4.6-4.5c0-2.7-2-4.7-4.5-4.7l0,0c-2.6,0-4.6,2-4.6,4.6
		C100,64.2,102,66.2,104.6,66.2z"/>
	<path class="st0" d="M52.4,44.1L52.4,44.1c-2.5,0-4.6,2.1-4.7,4.5c0,2.5,2,4.6,4.5,4.6l0,0c2.6,0,4.6-2,4.7-4.5
		C57,46.1,55,44.1,52.4,44.1z"/>
	<path class="st0" d="M117.9,62.1L117.9,62.1c-2.5,0-4.6,2-4.7,4.4c-0.1,2.6,1.9,4.7,4.5,4.8c0.1,0,0.1,0,0.2,0
		c2.4,0,4.4-1.9,4.5-4.3C122.5,64.3,120.5,62.2,117.9,62.1z"/>
	<path class="st0" d="M68.3,49.3c0-2.2-1.7-3.9-3.9-3.9l0,0c-2.2,0-4,1.7-4,3.9s1.7,3.9,3.9,3.9l0,0C66.6,53.2,68.3,51.5,68.3,49.3z
		"/>
	<path class="st0" d="M111.3,72.9C111.3,72.9,111.2,72.9,111.3,72.9c-2.3,0-3.9,1.8-3.9,4c0,2.1,1.8,4,3.9,4h0.1
		c2,0,3.8-1.9,3.8-4.1C115.1,74.6,113.5,72.9,111.3,72.9z"/>
	<path class="st0" d="M55.9,23.9L55.9,23.9c2.3,0,3.9-1.6,3.9-3.9c0-2.2-1.6-3.9-3.8-4l0,0c-2.2,0-4,1.7-4.1,3.9
		C52,22.1,53.7,23.9,55.9,23.9z"/>
	<path class="st0" d="M55.6,78.3c2.1,0,3.8-1.7,3.8-3.9c0-2.2-1.7-3.9-3.9-3.9l0,0c-2.2,0-3.9,1.7-3.9,3.9
		C51.6,76.5,53.3,78.3,55.6,78.3L55.6,78.3z"/>
	<path class="st0" d="M45.4,91.3L45.4,91.3c2.2,0,3.9-1.7,3.9-4c0-2.1-1.8-3.9-3.9-3.9l0,0c-2.2,0-4,1.8-4,4S43.2,91.3,45.4,91.3z"
		/>
	<path class="st0" d="M98,75.8L98,75.8c2.3,0,3.9-1.7,3.9-3.9c0-2.3-1.6-4-3.8-4l0,0c-2.2,0-4,1.8-4,3.9S95.9,75.8,98,75.8z"/>
	<path class="st0" d="M77.7,69.5c0,2.1,1.8,3.9,4,3.9l0,0c2.2,0,3.9-1.7,3.9-3.9c0-2.3-1.6-3.9-3.9-3.9l0,0
		C79.4,65.6,77.7,67.3,77.7,69.5z"/>
	<path class="st0" d="M38.3,96.3c0-2.1-1.8-4-3.9-4l0,0c-2.1,0-3.9,1.8-3.9,4s1.7,3.9,3.9,3.9c0,0,0,0,0.1,0
		C36.6,100.2,38.3,98.5,38.3,96.3z"/>
	<path class="st0" d="M58.2,29.9c-2.2,0.1-4,1.9-4,4c0,2.2,1.8,3.9,3.9,3.9l0,0c2.2,0,3.9-1.7,3.9-3.9
		C62.1,31.8,60.3,29.9,58.2,29.9L58.2,29.9z"/>
	<path class="st0" d="M90.7,75.5L90.7,75.5c-1.9,0-3.3,1.5-3.3,3.4s1.5,3.4,3.3,3.4l0,0c1.9,0,3.4-1.5,3.4-3.5
		C94.1,77,92.6,75.5,90.7,75.5z"/>
	<path class="st0" d="M53.1,61C53,61,53,61,53.1,61c-1.9,0-3.5,1.6-3.5,3.4s1.7,3.4,3.4,3.4l0,0c1.8,0,3.3-1.6,3.3-3.4
		C56.4,62.6,54.9,61.1,53.1,61z"/>
	<path class="st0" d="M32,89.8c1.7,0,3.3-1.6,3.3-3.4c0-1.9-1.5-3.4-3.3-3.4l0,0c-1.9,0-3.4,1.4-3.4,3.3
		C28.5,88.1,30.1,89.8,32,89.8C31.9,89.8,32,89.8,32,89.8z"/>
	<path class="st0" d="M74.2,55.4c1.9,0,3.4-1.5,3.4-3.3c0-1.9-1.5-3.3-3.4-3.3l0,0c-2,0-3.4,1.4-3.4,3.4
		C70.9,54,72.3,55.4,74.2,55.4L74.2,55.4z"/>
	<path class="st0" d="M68,33.3c-1.9,0-3.4,1.4-3.4,3.3c0,1.9,1.5,3.5,3.3,3.5l0,0c1.9,0,3.3-1.5,3.4-3.4
		C71.3,34.8,69.9,33.3,68,33.3L68,33.3z"/>
	<path class="st0" d="M42.8,81C42.8,81,42.9,81,42.8,81c1.8,0,3.3-1.6,3.3-3.5s-1.4-3.4-3.3-3.4l0,0c-1.9,0-3.4,1.4-3.4,3.3
		C39.4,79.3,41.1,81,42.8,81z"/>
	<path class="st0" d="M74.3,80L74.3,80c1.9,0,3.3-1.4,3.4-3.3c0-1.9-1.4-3.4-3.3-3.4l0,0c-1.9,0-3.3,1.4-3.4,3.3S72.4,80,74.3,80z"
		/>
	<path class="st0" d="M103.9,87.3L103.9,87.3c1.9,0,3.4-1.5,3.4-3.4c0-1.8-1.5-3.3-3.3-3.3c0,0,0,0-0.1,0c-1.8,0-3.3,1.6-3.3,3.4
		C100.5,85.8,102,87.3,103.9,87.3z"/>
	<path class="st0" d="M65.8,26.2L65.8,26.2c1.9,0,3.4-1.5,3.4-3.4s-1.4-3.3-3.3-3.3c-2,0-3.4,1.4-3.4,3.3
		C62.4,24.7,63.8,26.2,65.8,26.2z"/>
	<path class="st0" d="M73.3,29.9L73.3,29.9c1.7,0,3-1.2,3-2.8c0-1.7-1.2-3-2.9-3l0,0c-1.6,0-2.9,1.3-2.9,2.9
		C70.4,28.6,71.7,29.9,73.3,29.9z"/>
	<path class="st0" d="M31.7,74.8c-1.6,0-2.8,1.2-2.9,2.8c0,1.7,1.2,3,2.9,3l0,0c1.5,0,2.8-1.3,2.9-2.9
		C34.7,76.2,33.4,74.9,31.7,74.8C31.8,74.8,31.7,74.8,31.7,74.8z"/>
	<path class="st0" d="M96.5,91.3L96.5,91.3c1.6,0,2.9-1.3,2.9-3c0-1.6-1.3-2.8-2.9-2.8l0,0c-1.6,0-3,1.3-3,2.9S94.9,91.3,96.5,91.3z
		"/>
	<path class="st0" d="M42.6,71.7C42.6,71.7,42.7,71.7,42.6,71.7c1.7,0,2.9-1.3,2.9-2.9s-1.2-2.9-2.9-2.9c0,0,0,0-0.1,0
		c-1.5,0-2.8,1.3-2.9,2.8C39.7,70.3,41,71.7,42.6,71.7z"/>
	<path class="st0" d="M75.6,38L75.6,38c-1.6,0-2.9,1.2-2.9,2.8s1.2,2.9,2.9,2.9l0,0c1.7,0,2.9-1.2,2.9-2.9
		C78.5,39.3,77.2,38,75.6,38z"/>
	<path class="st0" d="M83.3,80.5L83.3,80.5c-1.7,0-2.9,1.2-2.9,2.9c0,1.6,1.2,2.9,2.8,2.9h0.1c1.6,0,2.9-1.3,2.9-3
		C86.2,81.7,85,80.5,83.3,80.5z"/>
	<path class="st0" d="M35.7,70.5c0-1.4-1-2.5-2.4-2.5l0,0c-1.4,0-2.6,1.1-2.6,2.5s1.2,2.6,2.5,2.6l0,0C34.6,73,35.7,71.9,35.7,70.5z
		"/>
	<path class="st0" d="M89.5,88.2L89.5,88.2c-1.4,0-2.6,1.1-2.6,2.5c0,1.3,1.1,2.5,2.5,2.5l0,0c1.4,0,2.5-1.1,2.5-2.5
		C91.9,89.3,90.9,88.2,89.5,88.2z"/>
	<path class="st0" d="M78.9,34.4L78.9,34.4c1.4,0,2.5-1.1,2.5-2.5c0-1.5-1-2.5-2.5-2.5l0,0c-1.4,0-2.4,1.1-2.4,2.5
		C76.4,33.4,77.4,34.4,78.9,34.4z"/>
</g>
</svg>
