<?xml version="1.0" encoding="utf-8"?>
<!-- Generator: Adobe Illustrator 21.1.0, SVG Export Plug-In . SVG Version: 6.00 Build 0)  -->
<svg version="1.1" id="Layer_1" xmlns="http://www.w3.org/2000/svg" xmlns:xlink="http://www.w3.org/1999/xlink" x="0px" y="0px"
	 viewBox="0 0 128 128" style="enable-background:new 0 0 128 128;" xml:space="preserve">
<style type="text/css">
	.st0{fill:#E5D424;}
	.st1{fill:#F18121;}
</style>
<g>
	<path class="st0" d="M122.1,32.6c-1.3-5-4.1-9.2-8.5-12.5c-5.2-3.8-11.3-6-19.4-6.9c-0.1,0-0.3,0-0.4,0c-1.5,0-2.8,0.8-3.5,2.1
		c-0.8,1.5-0.6,3.2,0.5,4.5c0.8,0.9,1.6,1.4,2.1,1.6c4.3,2.2,7.2,4.2,9.6,6.6c4.1,4.2,4.4,8.3,0.9,13c-2.2,3-5.2,5.4-9.2,7.2
		c-5.6,2.6-11.6,4-17.9,5.4c-0.9,0.2-1.8,0.4-2.7,0.6c-5.2,1.2-10,2.6-14.5,4.3c0-0.1,0-0.3,0-0.4c-0.1-1.6-1.2-3-2.7-3.5
		c-0.1,0-0.9-0.3-1.3-0.4c-2-0.5-3.9-1.1-5.9-1.6c-4.2-1.1-8.6-2.3-12.8-3.7c-5.4-1.8-9.6-5-12.3-9.5c-2-3.3-2.1-6.1-0.1-9
		c1.1-1.7,2.3-3,3.4-3.9c2.8-2.2,9-6.1,9-6.2c1.3-0.8,2-2.3,1.8-3.8s-1.2-2.8-2.7-3.3C35.2,13.1,34.6,13,34,13c-0.2,0-0.4,0-0.7,0
		c-5.8,0.8-13.2,2.4-19.6,7.6c-6.8,5.5-9.5,13-7.9,21.7c1.2,6.8,5.9,10.9,9.8,13.8c7.9,5.8,17,8.8,25.7,11.2
		c-0.4,0.2-0.8,0.5-1.1,0.7c-2.1,1.4-4.1,3-6,4.6c-0.9,0.7-1.7,1.4-2.6,2c-1,0.7-1.5,1.9-1.6,3.1c0,1.2,0.5,2.4,1.5,3.2
		c14,11.4,23.4,25.7,28.6,44c0.5,1.7,2.1,2.9,3.8,2.9l0,0c1.8,0,3.4-1.2,3.8-2.9c5.2-18.2,14.6-32.6,28.7-44c1-0.8,1.5-1.9,1.5-3.2
		c0-1.2-0.6-2.4-1.6-3.1c-0.9-0.7-1.8-1.4-2.7-2.1c-2.2-1.7-4.3-3.2-6.3-4.8c-0.2-0.1-0.4-0.3-0.6-0.4c4.7-1.2,9.4-2.7,14-4.6
		c5.4-2.3,11.6-5.4,16.6-10.7C122.3,46.7,123.9,40.1,122.1,32.6z M9.6,41.8c-1.3-7.1,0.9-13.2,6.5-17.8c5.1-4.2,11.2-5.9,17.7-6.8
		h0.1c0.1,0,0.2,0,0.2,0s-6.3,4.1-9.3,6.4c-1.7,1.3-3.1,3-4.3,4.8c-2.9,4.4-2.6,8.9,0,13.3c3.4,5.6,8.4,9.2,14.5,11.2
		c6.2,2.1,12.6,3.5,18.9,5.3c0.4,0.1,1.1,0.3,1.1,0.3s-7,3.5-10.4,5.3C44.2,63.9,44,64,43.7,64c-0.1,0-0.3,0-0.4,0
		c-9-2.4-17.9-5.3-25.5-10.9C13.9,50.2,10.5,46.8,9.6,41.8z M114.3,49.4c-4.3,4.5-9.6,7.3-15.2,9.8c-7.6,3.3-15.6,5-23.6,6.9
		C67,68,58.7,70.8,51.2,75.4c-1.4,0.8-2.6,1.9-4.1,2.9c7.7,7.5,12.3,16.7,16.8,26.1c4.5-9.5,9.2-18.6,17-26.2
		c-3-1.9-5.8-3.7-8.9-5.6c3.1-0.7,6.1-1.3,9-2.1c0.5-0.1,0.9-0.2,1.3-0.2c0.9,0,1.8,0.3,2.6,1c2.9,2.3,5.9,4.5,9.1,6.9
		c-15.1,12.2-24.7,27.6-30,46c-5.3-18.4-14.9-33.8-30-46c2.8-2.2,5.5-4.5,8.4-6.5c9.7-6.6,20.5-10.6,31.9-13.3
		c7.3-1.7,14.6-3.2,21.4-6.3c4.3-2,7.9-4.7,10.7-8.5c4.7-6.3,4.3-12.5-1.2-18.2c-3.1-3.2-6.7-5.4-10.6-7.4c-0.3-0.2-0.6-0.3-0.9-0.6
		c6.3,0.7,12.3,2.3,17.5,6.1c3.5,2.6,5.9,6,7,10.3C119.7,39.6,118.5,44.9,114.3,49.4z M54.6,78.6c3.1-1.4,6.1-2.7,9.2-3.9
		c0.2-0.1,0.5-0.1,0.7-0.1c0.3,0,0.5,0,0.7,0.1c2.8,1.2,5.5,2.4,8.3,3.7c-3.1,5-6,9.9-9.1,14.9C61.3,88.4,58,83.6,54.6,78.6z"/>
	<path class="st1" d="M47,19.1L47,19.1c-2.9,0-5.7,1-8.5,3c-1.5,1.1-2.1,3.1-1.4,4.8c0.6,1.5,2.1,2.5,3.7,2.5c0.2,0,0.4,0,0.6,0
		c0.5-0.1,0.9-0.1,1.2-0.2c0.6-0.1,1-0.2,1.3-0.2c0.1,0,0.1,0,0.2,0c1.3,0,2.6,0.6,4.2,1.6c0.4,0.2,0.8,0.4,1.2,0.7
		C45.1,34.2,42,38.7,43,43c0.4,1.6,1.8,2.9,3.5,3c0.1,0,0.3,0,0.4,0c1.5,0,2.9-0.9,3.6-2.3c0.9-1.8,2.3-2.6,5.4-3.2
		c0.3,0,0.5-0.1,0.7-0.2c-0.2,1.1-0.3,2.2-0.3,3.4c0,3.7,1.2,6.8,3.4,8.9c0.8,0.7,1.8,1.1,2.8,1.1c0.6,0,1.2-0.1,1.8-0.4
		c1.5-0.8,2.4-2.4,2.1-4.1c-0.3-1.9-0.4-3-0.3-3.6c0.1-0.7,0.8-1.8,1.8-3.4c0.1-0.2,0.2-0.4,0.3-0.6c1,1.5,2.1,2.7,3.4,3.8
		c2,1.6,4,2.5,6.4,2.9c0.2,0,0.5,0.1,0.7,0.1c1.3,0,2.6-0.7,3.3-1.8c0.9-1.3,0.9-3,0-4.4l-0.1-0.1c-0.2-0.4-0.7-1.2-1.7-1.8
		c-1.4-0.9-2.2-2.2-2.7-4.5c-0.1-0.5-0.2-0.9-0.4-1.4c1,0.2,2.1,0.3,3.1,0.3c0.9,0,1.8-0.1,2.7-0.2c1.4-0.2,2.5-0.7,3.6-1.1
		c0.4-0.1,0.7-0.3,1.1-0.4c1.8-0.6,2.9-2.5,2.7-4.4v-0.3V28c-0.2-1.1-0.8-2.1-1.8-2.8c-0.6-0.4-1.4-0.6-2.1-0.6
		c-0.4,0-0.8,0.1-1.1,0.2C84.9,24.9,84.4,25,84,25c-1.6,0-3.3-0.9-5.4-2.3c3-1.9,5.1-4.5,6.2-7.8c0.2-0.7,0.3-1.3,0.3-1.7
		c0-0.1,0-0.2,0-0.2c0.3-1.9-0.8-3.7-2.5-4.4c-0.5-0.2-1-0.3-1.4-0.3c-1.3,0-2.6,0.7-3.4,1.8c-1.1,1.7-2.7,2.6-5.7,3.3
		c-0.3,0.1-0.6,0.2-0.9,0.2c0.4-2,0.5-4.2-0.1-6.7V6.8c-0.4-1.6-1-4-3.3-5.8c-0.4-0.7-1.3-1-2.1-1s-1.6,0.2-2.3,0.7
		c-1.4,1-2,2.8-1.5,4.5c0.6,1.8,0.2,3.5-1.5,5.9c-0.2,0.3-0.4,0.6-0.6,0.9c-2-3-4.6-5.1-7.9-6.2c-0.8-0.3-1.6-0.3-2-0.3
		c-0.1,0-0.1,0-0.2,0c-0.1,0-0.2,0-0.3,0c-1.7,0-3.2,1.1-3.8,2.7c-0.6,1.7,0.1,3.6,1.6,4.6c1.6,1.1,2.6,2.5,3,4.8
		c0.1,0.7,0.3,1.3,0.5,1.9c-0.8-0.2-1.6-0.4-2.5-0.5C47.9,19.1,47.4,19.1,47,19.1z M55.3,36.4c-3.5,0.7-6.6,1.9-8.3,5.4
		c-0.7-2.8,2.4-6.4,6.6-8.5c0.7,1.1,1.5,2,2.5,2.8C55.8,36.3,55.6,36.4,55.3,36.4z M64.7,40c-2.6,4.4-2.8,4.8-2,9.6
		c-1.4-1.3-2.1-3.5-2.2-6.1c0-1.6,0.3-3.2,0.8-4.7c0.9,0.2,1.8,0.3,2.8,0.3c0.3,0,0.7,0,1,0C65,39.4,64.9,39.7,64.7,40z M78.5,43.4
		c0.2,0.1,0.2,0.3,0.5,0.7c-1.9-0.3-3.3-1.1-4.6-2.1c-1.6-1.3-2.8-2.9-3.6-4.7c0.8-0.5,1.5-1.1,2.2-1.7c0.2-0.2,0.5-0.5,0.7-0.8
		c0.2,0.5,0.3,1,0.4,1.5C74.6,39.3,75.8,41.8,78.5,43.4z M84.2,28.7c0.8,0,1.6-0.1,2.4-0.4c0,0.2,0.1,0.4,0.1,0.5
		c-1.3,0.5-2.6,1.1-4,1.3c-0.7,0.1-1.4,0.2-2.1,0.2c-1.5,0-3-0.3-4.5-0.8c0.2-0.9,0.3-1.8,0.3-2.8c0-0.4,0-0.7-0.1-1.1
		c0.1,0,0.1,0.1,0.2,0.1C79,27.3,81.4,28.7,84.2,28.7z M73.2,17c3.3-0.7,6.2-1.9,8.2-5c-0.1,0.4-0.1,0.9-0.2,1.3
		c-1.2,3.4-3.6,5.5-6.6,6.9c-0.7-1.1-1.5-2-2.5-2.8C72.5,17.2,72.9,17.1,73.2,17z M63.7,13.3c1.9-2.9,3.1-5.8,2-9.3
		c1.2,0.9,1.6,2.3,1.9,3.7c0.6,2.5,0.2,4.9-0.7,7.2c-0.9-0.2-1.8-0.3-2.8-0.3l0,0H64c-0.3,0-0.6,0-0.9,0
		C63.3,14.1,63.5,13.7,63.7,13.3z M64,18.5L64,18.5c4.8,0,8.5,3.6,8.5,8.3s-3.8,8.4-8.4,8.4l0,0c-4.6,0-8.4-3.7-8.4-8.3
		C55.7,22.2,59.3,18.5,64,18.5z M49.4,9.6c0.4,0,0.8,0,1.2,0.1c3.5,1.2,5.6,3.6,7,6.6c-0.8,0.5-1.6,1.1-2.3,1.8
		c-0.2,0.2-0.4,0.4-0.5,0.6c-0.2-0.6-0.4-1.2-0.5-1.9C53.6,13.8,52.2,11.4,49.4,9.6z M52,24.1c-0.2,0.9-0.3,1.8-0.3,2.8
		c0,0.3,0,0.5,0,0.8c-0.4-0.2-0.9-0.4-1.3-0.7c-2-1.2-4-2.2-6.3-2.2c-0.1,0-0.2,0-0.3,0c-0.9,0-1.8,0.3-3,0.5c2-1.5,4-2.2,6.1-2.2
		c0.3,0,0.6,0,0.9,0C49.3,23.3,50.6,23.7,52,24.1z"/>
</g>
</svg>
