<?xml version="1.0" encoding="utf-8"?>
<!-- Generator: Adobe Illustrator 21.1.0, SVG Export Plug-In . SVG Version: 6.00 Build 0)  -->
<svg version="1.1" id="Layer_1" xmlns="http://www.w3.org/2000/svg" xmlns:xlink="http://www.w3.org/1999/xlink" x="0px" y="0px"
	 viewBox="0 0 128 128" style="enable-background:new 0 0 128 128;" xml:space="preserve">
<style type="text/css">
	.st0{fill:url(#SVGID_1_);}
</style>
<g>
	<linearGradient id="SVGID_1_" gradientUnits="userSpaceOnUse" x1="18.8456" y1="0.2452" x2="109.1655" y2="90.5651">
		<stop  offset="0" style="stop-color:#F4A71C"/>
		<stop  offset="0.5328" style="stop-color:#2DBBAE"/>
		<stop  offset="1" style="stop-color:#6CB1E1"/>
	</linearGradient>
	<path class="st0" d="M63.9,4c21,0.4,40.6,5.5,59,15.7c1,0.5,1.1,1.2,1.1,2.2c-0.2,17.4-4,33.9-11.3,49.6
		c-6.9,14.7-16.4,27.3-28.4,38.2c-5.9,5.3-12.2,9.9-19,14c-0.5,0.3-0.9,0.4-1.2,0.4c-0.4,0-0.8-0.2-1.3-0.5
		c-23.5-14.2-40.4-33.9-50.5-59.4C8.5,55.2,6,45.9,5,36.2c-0.5-4.9-0.8-9.7-1-14.6c0-0.6,0.5-1.5,1-1.8c12.7-7.2,26.2-12,40.6-14
		C51.7,5,57.8,4.6,63.9,4 M36,65.4c3.7,0,7.4-0.8,10.9-2.5c9.7-4.8,14.3-12.8,14.8-23.5c0.5-12.4,6.4-21.5,17.6-27
		c0.8-0.4,1.7-0.8,2.9-1.3c-1-0.3-1.5-0.5-2-0.5c-3-0.4-5.9-0.8-8.9-1c-2.4-0.2-4.9-0.2-7.3-0.2c-7.4,0-14.7,0.7-22,2.2
		c-11.1,2.3-21.6,6.2-31.6,11.7c-1.1,0.6-1.4,1.2-1.3,2.4c0.5,5.1,0.7,10.2,1.4,15.3c0.4,3.2,0.8,6.6,2.1,9.5
		C16.8,59.8,26.2,65.4,36,65.4 M94.4,92.8c1-1.3,2-2.6,3-4c13.9-18.9,21-40,21.3-63.5c0-0.9-0.2-1.6-1.1-2
		c-5.5-2.5-10.9-5.3-16.6-7.5c-3-1.2-6.1-1.8-9.1-1.8c-4.1,0-8.2,1.1-12.2,3.2c-9.9,5.2-15.4,17.1-12.9,28c1.8,7.5,6.1,13,12.6,17
		c9.9,6.1,14.7,15,14.8,26.6c0,1.3-0.2,2.5-0.3,3.8C94.1,92.7,94.2,92.7,94.4,92.8 M36,70c-3.3,0-6.6-0.6-10-1.8
		c-3.2-1.1-6.1-3-9.2-4.5c0.2,0.6,0.4,1.4,0.7,2c2.1,4.3,4.1,8.8,6.5,13c9.4,16.2,22.2,29.1,38.2,38.9c0.7,0.4,1.3,0.6,1.9,0.6
		c0.5,0,1.1-0.2,1.6-0.6c4.9-3.6,9.9-7,14.8-10.7c1.9-1.4,3.9-3.1,5.2-5c3.8-6.2,5-12.9,3.3-20.1c-2.7-11.1-13-19.2-24.4-19.3
		c-0.1,0-0.1,0-0.2,0c-4.8,0-9.2,1.2-13.4,3.5C46.1,68.7,41.1,70,36,70 M63.9,0c-0.1,0-0.3,0-0.4,0c-1.9,0.2-3.8,0.4-5.7,0.5
		c-4.2,0.4-8.5,0.7-12.7,1.3c-14.5,2-28.6,6.9-42,14.4c-1.8,1-3.2,3.4-3.1,5.5l0,0.7c0.2,4.6,0.5,9.4,1,14.2c1,9.5,3.5,19.3,7.4,29
		c10.4,26.1,28,46.7,52.2,61.3c1.1,0.7,2.3,1,3.4,1c1.1,0,2.2-0.3,3.3-1c7.4-4.5,13.9-9.2,19.6-14.4c12.5-11.3,22.4-24.6,29.4-39.4
		c7.6-16.2,11.6-33.5,11.7-51.3c0-2.6-1.1-4.5-3.2-5.7C106.1,5.8,85.7,0.4,63.9,0C63.9,0,63.9,0,63.9,0L63.9,0z M13.2,26.3
		c9.4-5.1,19.4-8.8,29.6-10.8c7-1.4,14.2-2.1,21.2-2.1c2,0,4,0.1,6,0.2c-7.8,6.2-11.9,14.9-12.4,25.7c-0.4,9.6-4.5,16.1-12.6,20.1
		c-2.9,1.4-5.9,2.1-9.2,2.1c-8.6,0-16.3-5-19.7-12.6c-1.1-2.4-1.5-5.6-1.8-8.4c-0.4-3.2-0.7-6.5-0.9-9.7
		C13.5,29.3,13.4,27.8,13.2,26.3L13.2,26.3z M97.6,81.6c-1.8-9.7-7.1-17.3-16-22.7c-5.8-3.6-9.4-8.3-10.8-14.5
		c-2.1-9.1,2.5-19.2,10.8-23.5c3.4-1.8,6.9-2.7,10.3-2.7c2.5,0,5.1,0.5,7.7,1.5c3.6,1.4,7.3,3.1,10.8,4.8c1.4,0.7,2.8,1.3,4.3,2
		C114.2,46.5,108.4,65,97.6,81.6L97.6,81.6z M36,74c5.7,0,11.3-1.5,16.8-4.5c3.7-2,7.4-3,11.4-3l0.2,0c9.5,0.1,18.3,7,20.5,16.2
		c1.5,6.1,0.6,11.6-2.8,17c-0.9,1.4-2.6,2.8-4.2,4c-3,2.2-6.1,4.5-9.1,6.6c-1.7,1.2-3.4,2.4-5.1,3.6c-15.4-9.5-27.7-22.1-36.5-37.3
		c-0.9-1.5-1.7-3-2.5-4.6C28.6,73.4,32.4,74,36,74L36,74z"/>
</g>
</svg>
