<?xml version="1.0" encoding="utf-8"?>
<!-- Generator: Adobe Illustrator 21.1.0, SVG Export Plug-In . SVG Version: 6.00 Build 0)  -->
<svg version="1.1" id="Layer_1" xmlns="http://www.w3.org/2000/svg" xmlns:xlink="http://www.w3.org/1999/xlink" x="0px" y="0px"
	 viewBox="0 0 128 128" style="enable-background:new 0 0 128 128;" xml:space="preserve">
<style type="text/css">
	.st0{fill:#E91286;}
	.st1{fill:#CDDC2A;}
</style>
<g>
	<path class="st0" d="M14.7,36.5L14.7,36.5c1.3,0,2.7,0.3,4.1,0.7c4.4,1.5,6.7,4.5,7.4,9.7c0.1,0.5,0.1,1.1,0,1.8c0,0.4,0,0.8,0,1.2
		c0,4.3,0.6,7.8,1.9,10.6c-2.6-1.1-5.9-1.6-9.9-1.6C9.5,58.8,6.7,56,4.9,51.3C3.1,46.9,4,43.1,7.5,39.6C9.6,37.5,12,36.5,14.7,36.5
		 M35,67.4c2.8,1.2,6.2,1.8,10.4,1.8c8.9,0.1,13.4,4,13.3,11.7c0,5.7-4.6,10.3-10.5,10.6c-0.1,0-0.2,0-0.3,0
		c-5.4,0-10.8-4.9-11.3-10.3c-0.1-0.7,0-1.5,0-2.3c0-0.5,0-0.9,0-1.4C36.6,73.4,36.1,70.1,35,67.4 M14.7,32.5
		c-3.8,0-7.2,1.5-10.1,4.3c-4.3,4.3-5.9,9.8-3.5,16c2.7,7,7.6,10,17,10.1c11,0.1,14.4,3.6,14.5,14.6c0,1.4-0.1,2.7,0,4.1
		c0.7,7.5,7.8,13.9,15.3,13.9c0.2,0,0.3,0,0.5,0c8-0.3,14.3-6.7,14.3-14.5c0.1-9.9-6.2-15.6-17.3-15.7c-11.2-0.1-15.2-4.1-15.3-15.4
		c0-1.2,0.1-2.3-0.1-3.5c-0.8-6.2-3.9-10.8-10-12.9C18.3,32.8,16.5,32.5,14.7,32.5L14.7,32.5z"/>
	<path class="st1" d="M80.8,36.8c5.3,0,9.8,4.1,10.5,9.6c0.8,6.4,1.5,10.8,2.8,14c-2.5-1.2-5.5-1.9-8.9-1.9
		c-7.3-0.1-11.2-1-13.6-5.5c-0.7-1.3-1.1-2.9-1.4-4.1c0-0.2-0.1-0.3-0.1-0.5c0.4-7,4.2-11.3,10.1-11.6
		C80.4,36.8,80.6,36.8,80.8,36.8 M100.6,66.8c3.1,1.2,7.4,1.9,13.5,2.8c6.3,0.8,10.3,5.6,9.8,12c-0.4,5.3-5.1,9.6-10.4,9.6
		c-0.1,0-0.3,0-0.4,0c-5.9-0.2-10.1-4.7-10.4-10.9c0-0.7,0-1.4,0-2.1c0-0.8,0-1.7,0-2.5C102.6,72.2,101.9,69.2,100.6,66.8
		 M80.8,32.8c-0.2,0-0.5,0-0.7,0c-7.9,0.4-13.6,6.3-14,16c0.3,1,0.8,3.7,2,6c3.6,6.9,10.2,7.5,17,7.6c8.6,0.1,13.3,4.7,13.6,13.2
		c0.1,1.6,0,3.1,0,4.7c0.3,8.3,6.2,14.5,14.2,14.8c0.2,0,0.4,0,0.6,0c7.4,0,13.9-5.9,14.4-13.3c0.6-8.5-4.8-15.1-13.2-16.2
		c-17.2-2.3-17.2-2.3-19.5-19.7C94.3,38.4,88,32.8,80.8,32.8L80.8,32.8z"/>
	<path class="st1" d="M80.4,69.7L80.4,69.7c1.2,0,2.4,0.2,3.7,0.6c4.4,1.4,7.3,5.4,7.2,10.3c0,4.9-3.6,9.3-8.3,10.2
		c-1.7,0.3-3.5,0.4-5.5,0.4c-1.1,0-2.2,0.1-3.3,0.1c-2.1,0.1-4,0.6-5.8,1.3c1.1-3,1.6-6.7,1.6-11.4C70.1,74.5,74.4,69.7,80.4,69.7
		 M60,101c-0.7,1.8-1.2,3.8-1.3,6c-0.1,0.9-0.1,1.8-0.1,2.7c-0.1,2-0.1,3.8-0.4,5.5c-0.8,5-5.2,8.8-10.2,8.8c-0.3,0-0.6,0-0.9,0
		c-5.6-0.5-10-5.2-10-10.8c0.1-5.4,4.2-10,9.7-10.5c0.2,0,0.5,0,0.8,0h0.3h0.4c0.2,0,0.4,0,0.5,0C53.4,102.5,57.1,102,60,101
		 M80.4,65.7c-8,0-14.3,6.3-14.3,15.4c0,13.5-3.7,17.2-17.2,17.5c-0.2,0-0.3,0-0.5,0s-0.5,0-0.7,0c-0.4,0-0.8,0-1.2,0
		c-7.6,0.7-13.2,6.9-13.3,14.4c-0.1,7.7,5.9,14.1,13.6,14.8c0.4,0,0.8,0.1,1.2,0.1c6.8,0,13-5.1,14.1-12.1c0.5-2.9,0.4-5.8,0.6-8.7
		c0.4-7,4.8-11.4,11.8-11.9c3.1-0.2,6.2,0,9.2-0.6c6.7-1.2,11.5-7.4,11.6-14.1c0-6.6-4-12.2-10.1-14.1C83.6,66,82,65.7,80.4,65.7
		L80.4,65.7z"/>
	<path class="st1" d="M80.9,4c0.2,0,0.5,0,0.7,0c5.1,0.3,9.5,5,9.6,10.4c0.1,5.9-4.1,10.5-10.1,11c-0.4,0-0.8,0-1.3,0
		c-0.3,0-0.6,0-0.9,0s-0.7,0-1,0c-0.2,0-0.4,0-0.6,0c-3.4,0.1-6.4,0.6-8.8,1.5c0.7-1.6,1.1-3.3,1.3-5.2c0.2-1.5,0.2-3,0.2-4.5
		c0-1.3,0-2.5,0.2-3.7C70.9,7.8,75.1,4,80.9,4 M60.2,35.3c-1,2.6-1.4,5.6-1.4,9.2c0,4.7-1.3,8.5-3.6,10.9c-1.8,1.8-4.1,2.7-7,2.7H48
		c-5.8-0.1-10.3-4.3-10.7-9.9c-0.4-5.7,3.8-10.6,9.9-11.3c0.9-0.1,1.8-0.1,2.6-0.1c0.4,0,0.7,0,1.1,0c0.4,0,0.8,0,1.2,0
		c0.7,0,1.3,0,1.8,0C56.1,36.6,58.2,36.1,60.2,35.3 M80.9,0c-7.8,0-13.8,5.3-14.7,13.1c-0.3,2.7-0.1,5.4-0.4,8.1
		c-0.8,7-5.3,11.2-12.3,11.5c-0.5,0-1.1,0-1.6,0c-0.8,0-1.5,0-2.3,0c-1,0-2.1,0-3.1,0.2c-8.2,1-13.9,7.8-13.4,15.6
		C33.8,56.3,40,62,47.9,62.1c0.1,0,0.2,0,0.3,0c8.9,0,14.7-7,14.6-17.6c0-10.4,4.3-14.9,14.6-15.1c0.2,0,0.4,0,0.5,0
		c0.6,0,1.3,0,1.9,0c0.5,0,1.1,0,1.6,0c8.2-0.6,14-7,13.8-15C95.1,6.9,89.1,0.4,81.9,0C81.6,0,81.2,0,80.9,0L80.9,0z"/>
</g>
</svg>
