<?xml version="1.0" encoding="utf-8"?>
<!-- Generator: Adobe Illustrator 21.1.0, SVG Export Plug-In . SVG Version: 6.00 Build 0)  -->
<svg version="1.1" id="Layer_1" xmlns="http://www.w3.org/2000/svg" xmlns:xlink="http://www.w3.org/1999/xlink" x="0px" y="0px"
	 viewBox="0 0 128 128" style="enable-background:new 0 0 128 128;" xml:space="preserve">
<style type="text/css">
	.st0{fill:#0D8040;}
</style>
<path class="st0" d="M127.3,17.9c-0.7-1-1.7-1.6-2.9-1.7c-2.1-0.2-3.6-0.4-5-0.4c-1.2,0-2.2,0.1-3,0.4c-0.7-0.5-1.5-0.8-2.3-0.8
	c0,0,0,0-0.1,0s-0.1,0-0.2,0c-0.3,0-0.7,0.1-1,0.2c-7.9,2.2-12.5,6.7-14.5,14C94,45.2,89.6,61,85.3,76.3l-3,10.7
	c-1.5-3.9-3-7.8-4.6-11.8C70,55.5,62.1,35,54.5,14.9c-2.4-6.3-7.7-6.3-9.5-6.3c-0.4,0-0.8,0-1.2,0c-0.3,0-0.6,0-0.9,0h-0.1
	c-0.8,0-1.6,0.2-2.3,0.6c-0.6-0.4-1.4-0.6-2.1-0.6c-0.4,0-0.8,0.1-1.1,0.2c-7.5,2.2-12.2,6.9-14.2,14.4c-1.7,6.1-3.4,12.4-5.1,18.4
	c-0.9,3.1-1.7,6.1-2.5,9.2C11.9,64,8.2,77.1,4.6,90.3l-4.5,16.2c-0.3,1-0.1,2.1,0.4,3.1c0.5,0.9,1.4,1.6,2.4,1.9
	c2.9,0.8,4.8,1.3,6.5,1.3c1.1,0,2-0.2,2.8-0.5c0.6,0.3,1.3,0.5,1.9,0.5c0.4,0,0.8-0.1,1.1-0.2c7.7-2.3,12.4-6.9,14.4-14
	c2.8-10.1,5.6-20.3,8.4-30.4c2.5-9.1,5-18.2,7.5-27.2c1.8,4.5,3.6,9,5.4,13.5c7.5,18.9,15.2,38.4,22.6,57.6
	c2.6,6.8,7.6,7.1,11.3,7.3h0.1c0.2,0,0.4,0,0.6,0c1.3,0,2.4-0.3,3.3-0.6c0.4,0.1,0.8,0.2,1.2,0.2c0.4,0,0.8-0.1,1.2-0.2
	c7.1-2.2,11.5-6.5,13.4-13.1c3.1-11,6.3-22.5,9.5-34c3.2-11.7,6.4-23.4,9.7-35.2l4.2-15.3C128.2,20.1,128,18.8,127.3,17.9z
	 M13.4,102.6c-1.2,4.5-1.7,6-3.9,6c-1.2,0-2.9-0.5-5.5-1.1C9.1,89,14.2,70.4,19.4,51.8c2.5-9.2,5.1-18.4,7.6-27.6
	c1.5-5.6,4.7-9.6,11.5-11.6c-1.3,4.8-2.4,8.8-3.5,12.9C27.8,51.2,20.6,76.9,13.4,102.6z M88.4,105.4c-0.7,2.8-1.5,5.6-2.3,8.5
	c-0.1,0.5-0.2,1-0.1,1.5c-0.1,0-0.3,0-0.5,0c-0.1,0-0.3,0-0.4,0c-3.5-0.2-6.2-0.3-7.9-4.8c-9.7-25.5-19.9-50.8-29.9-76.2
	c-0.6-1.5-1.3-3-2.3-5.5c-1.2,4-2.2,7.1-3.1,10.2c-5.4,19.4-10.7,38.9-16,58.3c-1.4,5.2-4.7,8.6-10,10.6c0.6-1.3,1-2.8,1.4-4.4
	C23.5,81.3,29.7,59,36,36.7l2.8-10.2c0.8-2.7,1.5-5.5,2.3-8.4l1.2-4.5c0.1-0.3,0.1-0.6,0.1-0.9c0.1-0.1,0.3-0.1,0.4-0.1l0,0
	c0.1,0,0.1,0,0.2,0c0.7,0,1.4,0,2.1,0c2.3,0,4.5,0.4,5.7,3.7C60.9,43,71.3,69.4,81.5,96c0.3,0.8,0.6,1.5,1.4,3.3
	c1.1-3.6,1.9-6.3,2.6-8.9c5.5-19.9,11.1-39.8,16.6-59.7c1.4-5.3,4.5-8.7,10-10.6c-0.7,1.5-1.2,3.3-1.8,5.2
	c-2.5,8.9-4.9,17.8-7.4,26.6C99.7,64,96.4,76.2,93,88.3C91.5,93.9,90,99.5,88.4,105.4z M110.1,70.6c-3.1,11.3-6.3,22.6-9.5,33.9
	c-1.4,5.1-4.6,8.5-10.7,10.4c2.5-9.1,4.6-17.3,6.9-25.5c5.8-21,11.6-42.1,17.4-63.1c1.4-5.2,1.8-6.5,5.1-6.5c1.1,0,2.6,0.1,4.6,0.3
	C119.3,37.2,114.7,53.9,110.1,70.6z"/>
</svg>
