<?xml version="1.0" encoding="utf-8"?>
<!-- Generator: Adobe Illustrator 21.1.0, SVG Export Plug-In . SVG Version: 6.00 Build 0)  -->
<svg version="1.1" id="Layer_1" xmlns="http://www.w3.org/2000/svg" xmlns:xlink="http://www.w3.org/1999/xlink" x="0px" y="0px"
	 viewBox="0 0 128 128" style="enable-background:new 0 0 128 128;" xml:space="preserve">
<style type="text/css">
	.st0{fill:#3EBB9A;}
</style>
<g>
	<path class="st0" d="M12.5,4c5,0,8.7,3.9,8.4,9c-0.3,3.5,0.9,6.3,3.4,8.7c7.3,7.1,14.4,14.4,21.6,21.6c4.4,4.4,8.7,6.5,13.6,6.5
		c2.8,0,5.8-0.7,9.1-2.1c5.1-2.2,10.4-3.2,15.6-3.2c18.6,0,35.8,13,38.9,32.4c1.2,7.3,0.9,33.3,0.9,38.8c0,4.7-3.3,8.1-8,8.1
		c-6.2,0-12.4,0.1-18.6,0.1c-4.8,0-9.5,0-14.3-0.1c-19.6-0.4-36-15.8-38.2-35.4c-0.8-7,0.3-13.6,3-20c3.8-9,2.6-15.8-4.3-22.7
		C36.3,38.4,29,31.1,21.7,23.8c-2-2.1-4.3-3.1-7-3.1c-0.4,0-0.7,0-1.1,0.1c-0.3,0-0.6,0-0.9,0c-4.6,0-8.4-3.5-8.6-8.1
		C3.8,8.1,7.7,4,12.5,4L12.5,4 M92.8,108c2.9,0,5.7,0,8.6-0.1c3.9,0,6.5-2.7,6.6-6.7c0.1-3.1,0-6.2,0-9.3l0,0c0-2.2,0-4.5,0-6.7
		c0.1-16.5-13-24.8-24-24.8c-0.9,0-1.8,0.1-2.7,0.2c-11.7,1.5-20.9,11.4-21,23.2C60.2,96.1,69,106.5,81,107.6
		C85,107.9,88.9,108,92.8,108 M12.5,0L12.5,0C9,0,5.7,1.5,3.4,4C1.1,6.4-0.1,9.7,0,12.9c0.3,6.7,5.9,12,12.6,12c0.4,0,0.8,0,1.3-0.1
		c0.3,0,0.5,0,0.7,0c1.6,0,2.8,0.6,4.2,1.9c4.5,4.6,9.1,9.2,13.6,13.6c2.8,2.8,5.5,5.5,8.3,8.3c5.7,5.8,6.7,10.7,3.5,18.3
		c-3,7.1-4.1,14.5-3.3,22c2.4,21.7,20.5,38.5,42.1,38.9c4.3,0.1,8.9,0.1,14.3,0.1c4.2,0,8.5,0,12.7-0.1c2,0,3.9,0,5.9,0
		c6.9,0,12-5.1,12-12.1c0-0.5,0-1.3,0-2.2c0.1-14.2,0.1-31.2-0.9-37.3c-1.7-10.2-7-19.4-15.1-26c-7.8-6.3-17.7-9.8-27.7-9.8
		c-5.9,0-11.7,1.2-17.2,3.5c-2.8,1.2-5.3,1.8-7.5,1.8c-3.7,0-7.1-1.6-10.8-5.3c-2.2-2.2-4.4-4.4-6.7-6.7c-4.9-4.9-9.9-10-15-14.9
		c-1.8-1.7-2.4-3.3-2.2-5.6c0.3-3.6-0.9-6.9-3.2-9.4C19.3,1.4,16.1,0,12.5,0L12.5,0z M92.8,104c-4.6,0-8-0.1-11.3-0.4
		c-9.8-0.9-17.1-9.4-17-19.8c0.1-9.7,7.6-18,17.5-19.3c0.7-0.1,1.4-0.1,2.1-0.1c5.2,0,10.6,2.2,14.3,6c3.7,3.8,5.7,8.9,5.7,14.8
		c0,1.5,0,3.1,0,4.6v1.6c0,0.2,0,0.4,0,0.5c0,1,0,1.9,0,2.9c0,2.2,0,4.2,0,6.2c-0.1,2.9-2,2.9-2.7,2.9h-2.5
		C96.8,103.9,94.8,104,92.8,104L92.8,104z"/>
</g>
</svg>
