<?xml version="1.0" encoding="utf-8"?>
<!-- Generator: Adobe Illustrator 21.1.0, SVG Export Plug-In . SVG Version: 6.00 Build 0)  -->
<svg version="1.1" id="Layer_1" xmlns="http://www.w3.org/2000/svg" xmlns:xlink="http://www.w3.org/1999/xlink" x="0px" y="0px"
	 viewBox="0 0 128 128" style="enable-background:new 0 0 128 128;" xml:space="preserve">
<style type="text/css">
	.st0{fill:#2A8AC7;}
</style>
<path class="st0" d="M127,62.7c-0.6-0.4-1.4-0.3-2,0.1l-61.9,39L4,63.4V50.3l58.9,37.3c0.7,0.4,1.5,0.4,2.1,0l61.8-39.2
	c0.6-0.4,0.9-1,0.9-1.7s-0.3-1.3-0.9-1.7L65.1,4.2c-0.7-0.4-1.5-0.4-2.2,0L0.9,45c0,0,0,0-0.1,0l0,0l0,0c-0.4,0.3-0.6,0.6-0.8,1.1
	c0,0.1-0.1,0.2-0.1,0.3l0,0c0,0.1,0,0.2,0,0.3v17.8c0,0.7,0.3,1.3,0.9,1.7L62,105.9c0.7,0.4,1.5,0.4,2.2,0L124,68.1v13l-60.1,38.6
	L3.1,81.3c-1-0.5-2.2-0.3-2.8,0.7c-0.6,0.9-0.3,2.2,0.6,2.8l61.9,39.1c0.3,0.2,0.7,0.3,1.1,0.3c0.4,0,0.8-0.1,1.1-0.3L127.1,84
	c0.6-0.4,0.9-1,0.9-1.7V64.5C128,63.7,127.6,63.1,127,62.7z M64,8.3l58.1,38.4L64,83.5L5.7,46.6L64,8.3z"/>
</svg>
