<?xml version="1.0" encoding="utf-8"?>
<!-- Generator: Adobe Illustrator 21.1.0, SVG Export Plug-In . SVG Version: 6.00 Build 0)  -->
<svg version="1.1" id="Layer_1" xmlns="http://www.w3.org/2000/svg" xmlns:xlink="http://www.w3.org/1999/xlink" x="0px" y="0px"
	 viewBox="0 0 128 128" style="enable-background:new 0 0 128 128;" xml:space="preserve">
<style type="text/css">
	.st0{fill:#1D97D4;}
</style>
<g>
	<path class="st0" d="M46.5,20.6c4.9,0,9.8,2.5,12.7,7c3.7,5.8,5.8,12.2,7.5,18.7C70.2,60,73.5,73.6,77,87.1
		c0.5,1.9,1.2,3.7,2.1,5.4c0.7,1.3,1.5,1.9,2.4,1.9c0.8,0,1.6-0.6,2.2-2c1.8-4.5,3.2-9.2,4.5-13.9c3.4-13,6.5-26,9.9-39
		c1.4-5.2,4-9.9,7.5-14c2.5-2.9,5.6-4.6,9.5-4.7c1.1,0,2.2-0.1,3.3-0.1c1.8,0,3.7,0,5.6,0c-1,4.2-2,8.1-3,12.2
		c-0.5-0.1-0.9-0.1-1.3-0.1c-4.1,0-6.1,2.9-7.2,6.6c-2.1,6.8-3.9,13.6-6,20.8c2.6-1.2,5.1-1.4,7.6-1.4c1.7,0,3.4,0.1,5.1,0.1
		c1.1,0,2.1,0,3.2-0.2c-0.9,3.7-1.7,7-2.5,10.3c-5.1,0-10,0-15.1,0c-0.9,3.7-1.8,7.3-2.8,10.9c-2,7.5-4,14.9-8.9,21.2
		c-3.1,4.1-7.4,6.1-11.8,6.1c-4.2,0-8.4-1.9-11.5-5.8c-3.9-4.9-5.9-10.8-7.5-16.7c-3.7-14.1-7.2-28.2-10.8-42.2
		c-0.6-2.4-1.5-4.8-2.6-7.1c-0.4-0.9-1.6-1.8-2.4-1.9l0,0c-0.7,0-1.8,1.1-2.1,1.9c-1.7,5.3-3.5,10.6-4.9,15.9
		c-3.2,12.3-6,24.6-9.5,36.8c-1.3,4.4-3.8,8.5-6.2,12.5c-2.5,4.2-6.5,6.4-11.5,6.6c-1,0-2,0-3,0c-1.7,0-3.4,0-5.2,0
		c1-4.2,2-8.2,3-12.2c0.3,0,0.7,0,1,0c4.1,0,6.2-2.6,7.3-6.3c2.1-6.8,4.1-13.7,6.3-21.1C19,69,16.5,69.2,14,69.2
		c-1.6,0-3.1-0.1-4.7-0.1c-1.2,0-2.5,0.1-3.7,0.3c0.8-3.5,1.5-6.6,2.4-9.6c0.1-0.4,1.3-0.8,2-0.8c2.2,0,4.4,0,6.7,0
		c2.2,0,4.3,0,6.5,0c1.6-5.9,3.1-11.7,4.7-17.5c1.4-5,3.5-9.7,6.5-14.1C37.5,22.7,42,20.6,46.5,20.6 M122.4,58.8L122.4,58.8
		 M46.5,16.6c-6.2,0-11.8,3.1-15.4,8.5c-3.1,4.6-5.5,9.7-7,15.2c-1.1,4-2.2,8.2-3.3,12.2c-0.2,0.8-0.4,1.6-0.6,2.4
		c-0.1,0-0.1,0-0.2,0c-1.1,0-2.2,0-3.3,0c-2.7,0-4.8,0-6.7,0c-1.6,0-4.9,0.8-5.7,3.7C3.5,61,3,63.4,2.4,65.9
		c-0.2,0.8-0.4,1.7-0.6,2.5c-0.3,1.3,0,2.7,1,3.7c0.8,0.8,1.8,1.3,2.9,1.3c0.2,0,0.4,0,0.6-0.1c0.9-0.1,1.8-0.2,3-0.2
		c0.7,0,1.5,0,2.2,0c0.8,0,1.6,0,2.5,0c0.6,0,1.2,0,1.8,0c-1.5,5-2.8,9.7-4.3,14.5C10.4,91.1,9,91.1,8,91.1c-0.2,0-0.4,0-0.6,0
		c-0.1,0-0.3,0-0.4,0c-1.8,0-3.4,1.2-3.9,3l-3,12.2c-0.3,1.2,0,2.5,0.7,3.4s1.9,1.5,3.1,1.5c0.9,0,1.8,0,2.7,0s1.7,0,2.5,0
		c1.2,0,2.2,0,3.1,0c6.4-0.2,11.6-3.2,14.8-8.5l0.2-0.3c2.5-4.1,5-8.3,6.4-13.1c2.2-7.6,4.1-15.4,6-22.9c1.1-4.6,2.3-9.3,3.5-14
		c1-3.8,2.2-7.6,3.5-11.6c0.3,0.9,0.6,1.8,0.8,2.7c1.5,6,3.1,12.1,4.6,18c2,8,4.1,16.2,6.2,24.3c1.5,5.8,3.7,12.5,8.2,18.2
		c3.7,4.7,9,7.3,14.7,7.3c5.8,0,11.3-2.8,15-7.7c5.4-7,7.6-15.3,9.5-22.6c0.7-2.5,1.3-5.1,1.9-7.6c0-0.1,0.1-0.3,0.1-0.4h12
		c1.8,0,3.4-1.3,3.9-3l0.9-3.7l1.6-6.4c0.1-0.4,0.2-0.7,0.2-1.1c0-2.2-1.8-4-4-4l0,0h-0.1c-0.2,0-0.3,0-0.4,0
		c-0.8,0.1-1.6,0.1-2.7,0.1c-0.8,0-1.6,0-2.4-0.1c-0.9,0-1.8-0.1-2.7-0.1c-0.6,0-1.3,0-1.9,0.1c1.4-4.9,2.7-9.6,4.1-14.3
		c1.2-3.7,2.5-3.7,3.4-3.7l0,0c0.2,0,0.5,0,0.8,0.1c0.2,0,0.4,0,0.5,0c1.8,0,3.4-1.2,3.9-3l0.8-3.2l2.2-9c0.3-1.2,0-2.5-0.7-3.4
		c-0.8-1-1.9-1.5-3.1-1.5c-1,0-2,0-2.9,0s-1.8,0-2.7,0c-1.3,0-2.4,0-3.5,0.1c-4.8,0.2-8.9,2.2-12.3,6.1c-4.1,4.6-6.9,9.9-8.4,15.6
		c-1.8,6.9-3.6,14-5.3,20.9c-1.5,6-3,12.1-4.6,18.2c-0.9,3.4-1.9,6.7-3,9.9c-0.1-0.4-0.3-0.8-0.4-1.2c-1.5-5.8-3-11.7-4.4-17.5
		c-1.9-7.6-3.9-15.5-5.9-23.3c-1.7-6.6-3.9-13.6-8-19.9C59,20,52.9,16.6,46.5,16.6L46.5,16.6z"/>
</g>
</svg>
