<?xml version="1.0" encoding="utf-8"?>
<!-- Generator: Adobe Illustrator 21.1.0, SVG Export Plug-In . SVG Version: 6.00 Build 0)  -->
<svg version="1.1" id="Layer_1" xmlns="http://www.w3.org/2000/svg" xmlns:xlink="http://www.w3.org/1999/xlink" x="0px" y="0px"
	 viewBox="0 0 128 128" style="enable-background:new 0 0 128 128;" xml:space="preserve">
<style type="text/css">
	.st0{fill:#41BAD3;}
	.st1{fill:#CFCFCE;}
</style>
<g id="Layer_x0020_1_1_">
	<g id="_921457168_1_">
		<path class="st0" d="M64,4c2.7,0,5.2,1.1,7.1,3l31.7,31.8c0.3,0.3,0.3,0.8,0,1l-9.5,9.5L87,55.2c-0.2,0.2-0.5,0.3-0.6,0.3
			s-0.4,0-0.6-0.2L73,43.4c-2.4-2.3-5.6-3.5-8.9-3.5c-3.3,0-6.5,1.3-8.9,3.5L42.3,55.2c-0.2,0.2-0.5,0.3-0.6,0.3
			c-0.2,0-0.4,0-0.6-0.2l-6.3-5.9l-9.5-9.6c-0.3-0.3-0.3-0.7,0-1L56.9,7C58.8,5.1,61.3,4,64,4 M64,0c-3.6,0-7.2,1.4-10,4.1
			L22.4,35.9c-1.9,1.9-1.9,4.8,0,6.7l9.6,9.6l6.4,6c1,0.9,2.2,1.3,3.4,1.3c1.2,0,2.4-0.4,3.4-1.3L58,46.4c1.8-1.6,4-2.5,6.2-2.5
			c2.2,0,4.4,0.8,6.2,2.5l12.8,11.8c1,0.9,2.2,1.3,3.4,1.3c1.2,0,2.4-0.4,3.4-1.3l6.4-6l9.6-9.6c1.8-1.8,1.8-4.8,0-6.7L74,4.1
			C71.2,1.4,67.6,0,64,0L64,0z"/>
		<path class="st1" d="M108.9,52.1c0.2,0,0.4,0.1,0.5,0.2l7.8,7.4c1,0.9,1.9,1.8,2.8,2.5c1.9,1.6,4,3.5,4,4.4c0,0.2-0.1,1.5-3.1,4.5
			L71.2,121c-1.9,1.9-4.4,3-7.1,3c-2.7,0-5.2-1.1-7.1-3L7.1,71.2c-3-3-3.1-4.4-3.1-4.7c0-1.1,2.3-3,4.4-4.7c1-0.9,2.1-1.8,3.2-2.8
			l7.2-6.7c0.2-0.2,0.5-0.3,0.6-0.3s0.4,0,0.6,0.2L32.8,64c2.4,2.3,5.6,3.5,8.9,3.5c3.3,0,6.5-1.3,8.9-3.5l12.8-11.8
			c0.2-0.2,0.5-0.3,0.6-0.3c0.2,0,0.4,0,0.6,0.2l12.8,11.8c2.4,2.3,5.6,3.5,8.9,3.5c3.3,0,6.5-1.3,8.9-3.5L108,52.1
			C108.4,52.1,108.7,52.1,108.9,52.1 M108.9,48.1c-1.2,0-2.4,0.5-3.4,1.3L92.7,61.2c-1.8,1.6-4,2.5-6.2,2.5c-2.2,0-4.4-0.8-6.2-2.5
			L67.4,49.4c-0.9-0.9-2.1-1.3-3.4-1.3c-1.2,0-2.4,0.4-3.4,1.3L47.9,61.2c-1.8,1.6-4,2.5-6.2,2.5s-4.4-0.8-6.2-2.5L22.7,49.4
			c-0.9-0.9-2.1-1.3-3.4-1.3c-1.3,0-2.3,0.4-3.3,1.3l-7.2,6.7C2.2,62.2-4.7,65,4.3,74L54,123.9c2.8,2.8,6.4,4.1,10,4.1
			c3.6,0,7.2-1.4,10-4.1L123.7,74c8.6-8.6,2.6-11.2-3.8-17.2l-7.8-7.4C111.3,48.5,110.1,48.1,108.9,48.1L108.9,48.1z"/>
	</g>
</g>
</svg>
