<?xml version="1.0" encoding="utf-8"?>
<!-- Generator: Adobe Illustrator 21.1.0, SVG Export Plug-In . SVG Version: 6.00 Build 0)  -->
<svg version="1.1" id="Layer_1" xmlns="http://www.w3.org/2000/svg" xmlns:xlink="http://www.w3.org/1999/xlink" x="0px" y="0px"
	 viewBox="0 0 128 128" style="enable-background:new 0 0 128 128;" xml:space="preserve">
<style type="text/css">
	.st0{fill:#886C3C;}
</style>
<g>
	<path class="st0" d="M123.9,13.8c0,1,0,2,0,3.1c-3,0-5.9,0-9,0c0,9.1,0,18.1,0,27.2c-2.9,0-5.6,0-8.5,0c0,2.4,0,4.7,0,7.1
		c-4,0-7.9,0-11.9,0c0,2.2,0,4.3,0,6.5c-3.9,0-7.8,0-11.7,0c0,1,0,1.9,0,2.8c0,0.1,0.3,0.3,0.4,0.4c2.4,0.9,4.8,1.9,7.1,2.8
		c0.2,0.1,0.4,0.2,0.7,0.5c-2.8,1.1-5.5,2.2-8.3,3.3c0,0.7,0,1.3,0,2c0,0.5,0.1,0.7,0.7,0.7l0,0c1.7,0,3.4,0,5.1,0s3.3,0,5,0
		c0.3,0,0.6,0,0.9,0c0,2.2,0,4.3,0,6.5c4,0,7.9,0,11.9,0c0,2.4,0,4.7,0,7.1c2.9,0,5.6,0,8.5,0c0,9.1,0,18.1,0,27.1c3.1,0,6,0,9.1,0
		c0,1,0,2,0,3c0,0.1-0.2,0.3-0.4,0.4c-0.1,0-0.1,0-0.2,0s-0.2,0-0.3,0c-3.8,0-7.6,0-11.5,0c-7.5,0-15-0.1-22.6-0.1
		c-1.1,0-1.3-0.2-1.2-1.3c0-0.6,0-1.2,0-1.9c5.2,0,10.2,0,15.3,0c0-7.4,0-14.7,0-22.1c-0.3,0-0.6-0.1-1-0.1c-2.2,0-4.5,0-6.7,0
		c-0.8,0-0.9,0-0.9-0.8c0-1.8,0-3.7,0-5.6c-3.9,0-7.8,0-11.9,0c0-0.8,0-1.5,0-2.2c0-1,0-1-1-1c-3.5,0-7.1,0-10.6,0
		c-0.3,0-0.6,0-0.9,0c0.2,1.6,2.2,3.8,4,3.8h0.1c0-0.1-0.1-0.2-0.1-0.3c-0.6-0.8-0.7-1.3-0.3-1.9c0.4-0.6,1-0.9,1.6-0.9
		c0.2,0,0.4,0,0.6,0.1c0.7,0.2,1.1,0.6,1.4,1.2c0.4,0.8,0,1.7-1,2.4c-0.6,0.4-1.3,0.6-2,0.6c-1,0-2-0.4-2.9-1.1
		c-1.1-1-2-2.1-2.8-3.5c-1.6,4-3.2,8-4.7,11.9c-0.1,0-0.1,0-0.2,0c-1.5-3.9-3.1-7.9-4.7-11.9c-0.2,0.3-0.4,0.5-0.4,0.7
		c-0.7,1.8-2,3-3.6,3.6c-0.5,0.2-1,0.3-1.6,0.3c-1.1,0-2.1-0.5-2.9-1.7c-0.2-0.3-0.2-0.7-0.1-1c0.3-1,1.2-1.6,2.1-1.6
		c0.2,0,0.4,0,0.6,0.1c1,0.3,1.5,1.7,0.8,2.5c-0.1,0.1-0.2,0.3-0.4,0.4C53.6,83,53.8,83,54,83c1.2,0,3.2-1.9,3.7-3.8
		c-0.3,0-0.5-0.1-0.7-0.1c-3.3,0-6.6,0-9.9,0c-0.4,0-0.8,0-1.3,0c-0.8,0-0.8,0-0.8,0.8s0,1.5,0,2.4c-4,0-8,0-12,0c0,0.3,0,0.5,0,0.7
		c0,1.6,0,3.3,0,4.9c0,0.8,0,0.8-0.8,0.8c-0.9,0-1.8,0-2.7,0c-1.3,0-2.7,0-4,0c-0.3,0-0.5,0-0.9,0c0,0.3,0,0.6,0,0.9
		c0,6.4,0,12.8,0,19.2c0,0.4-0.1,0.8-0.1,1.2c0,0.3,0.1,0.5,0.2,0.8c0.3,0,0.7,0,1,0c3.1,0,6.2,0,9.3,0c1.4,0,2.9,0,4.3,0
		c0.8,0,0.8,0,0.8,0.8s0,1.5-0.1,2.4c-0.5,0-0.8,0-1.1,0c-6.5,0-13,0-19.5,0c-4.7,0-9.4,0-14.1,0c-0.2,0-0.5,0-0.7,0s-0.4,0-0.5-0.1
		c-0.2-0.1-0.2-0.7-0.2-1s-0.1-0.7,0-1.1c0-0.3,0.1-0.6,0.2-1.1c3,0,5.9,0,8.9,0c0-9,0-18,0-27.1c2.8,0,5.6,0,8.5,0
		c0-2.4,0-4.7,0-7.1c4,0,7.9,0,11.8,0c0.5-2.2-0.1-4.3,0.2-6.4c3.8,0,7.5,0,11.3,0c0-1,0-1.9,0-2.9c-2.6-1-5.3-2.1-8-3.1
		c0-0.1,0-0.1,0-0.2c1-0.4,2.1-0.8,3.1-1.2c1.5-0.6,3.1-1.2,4.6-1.8c0.2-0.1,0.3-0.4,0.3-0.6c0-0.9,0-1.8,0-2.7c-3.8,0-7.6,0-11.5,0
		c0-2.2,0-4.3,0-6.5c-4,0-7.9,0-11.9,0c0-2.4,0-4.7,0-7c-2.9,0-5.6,0-8.4,0c0-0.3,0-0.6,0-0.8c0-8.5,0-16.9,0-25.4c0-1,0-1-1-1
		c-2.5,0-5,0-7.5,0c-0.2,0-0.3,0-0.6,0c0-1,0-2,0-3.1c12,0,24,0,36.1,0c0,1,0,2,0,3.1c-5.1,0-10.2,0-15.3,0c0,7.4,0,14.7,0,22.1
		c2.8,0,5.5,0,8.4,0c0,0.3,0,0.6,0,0.8c0,1.6,0,3.2,0,4.8c0,0.9,0,0.9,0.9,0.9c0,0,0,0,0.1,0c3.4,0,6.8,0,10.2,0c0.2,0,0.4,0,0.8,0
		c0,1.1,0,2.1,0,3.2c4.3,0,8.5,0,12.7,0c-0.6-1.6-2.3-3.6-3.9-3.6c-0.1,0-0.1,0-0.2,0c0.1,0.1,0.2,0.2,0.3,0.3
		c0.6,0.7,0.6,1.4,0,2.1c-0.3,0.4-0.9,0.5-1.4,0.5c-0.6,0-1.2-0.2-1.5-0.6c-1.3-1.5-0.4-2.7,1.1-3.3c0.5-0.2,1.1-0.3,1.6-0.3
		c1.2,0,2.3,0.6,3.4,1.5c0.9,0.8,1.4,1.9,2,3c0,0.1,0.1,0.2,0.3,0.3c1.5-3.9,3-7.7,4.5-11.4c0.1,0,0.1,0,0.2,0
		c1.6,3.8,3,7.7,4.6,11.6c0.6-0.9,1.1-1.8,1.7-2.6c1-1.4,2.3-2.2,3.9-2.4c0.1,0,0.2,0,0.3,0c1.2,0,2.2,0.5,2.9,1.6
		c0.1,0.1,0.1,0.2,0.1,0.3c0.1,0.8-0.6,2-1.4,2.3c-0.2,0.1-0.5,0.1-0.7,0.1c-0.7,0-1.4-0.4-1.7-1c-0.3-0.6-0.2-1.1,0.3-1.6
		c0.1-0.1,0.2-0.2,0.3-0.3c-0.1,0-0.1,0-0.2,0c-1.6,0-3.3,1.6-3.9,3.5c4.1,0,8.2,0,12.4,0c0-1,0-2.1,0-3.2c4,0,7.9,0,11.9,0
		c0-2.2,0-4.3,0-6.5c2.9,0,5.7,0,8.6,0c0-0.3,0-0.5,0-0.7c0-6.9,0-13.8,0-20.7c0-0.8,0-0.8-0.8-0.8c-0.9,0-1.8,0-2.6,0
		c-3.6,0-7.2,0-10.9,0c-0.1,0-0.2,0-0.4,0c-0.2,0-0.5,0-0.8,0c0-1.1,0-2.1,0-3.1C99.9,13.8,111.9,13.8,123.9,13.8 M60.6,58.7
		c-0.1,0-0.2,0-0.4-0.1c-1-0.5-2.1-0.9-3.3-1.4c0.6,1.4,1.1,2.6,1.6,3.6c-0.9,0.9-1.6,1.8-2.5,2.7c-0.8-0.6-1.6-1.1-2.2-1.8
		c-0.6-0.7-1.1-1.5-1.6-2.4c-0.7,0.6-1.4,1.2-2.2,1.9c0.6,0.5,1,1.1,1.6,1.5s1.2,0.7,1.9,1.1c-0.5,0.1-0.9,0.1-1.2,0.1
		c-0.9,0-1.5-0.3-2.9-1.1c-0.3,0.2-0.7,0.4-1,0.6c-0.3,0.2-0.7,0.3-1.1,0.4c-0.4,0.1-0.8-0.1-1,0.4c1.1,0.5,2.1,0.9,3.1,1.4
		c0.6-0.3,1.2-0.8,1.8-1c0.4-0.1,0.8-0.1,1.3-0.1c0.1,0,0.3,0,0.4,0c0.2,0,0.3,0,0.5,0c0,0.1,0,0.1,0,0.2c-1.3,0.6-2.6,1.3-3.5,2.6
		c0.8,0.6,1.5,1.2,2.3,1.8c0.7-2,2.1-3.3,3.9-4.1c0.7,0.7,1.3,1.3,2,2c0.1,0.1,0.2,0.5,0.1,0.7c-0.3,0.8-0.7,1.6-1,2.3
		c-0.1,0.3-0.2,0.6-0.4,0.9l0.1,0.1c0.7-0.3,1.4-0.6,2.2-0.9c0.7-0.3,1-0.5,1.4-0.5s0.7,0.3,1.4,1c0.6,0.7,1.3,1.3,2.1,2
		c1-1.1,2-2.2,3-3.3c1.3,0.6,2.5,1.1,3.6,1.6l0.1-0.1c-0.5-1.2-1-2.4-1.5-3.6c0.9-0.9,1.8-1.7,2.7-2.7c0.8,0.6,1.6,1.1,2.3,1.7
		c0.6,0.7,1.1,1.5,1.7,2.4c0.7-0.6,1.4-1.2,2.1-1.8c-0.6-0.5-1.1-1.1-1.6-1.5c-0.6-0.4-1.2-0.7-1.8-1.1c0.5-0.1,0.9-0.1,1.4-0.1
		c1,0,1.9,0.3,2.6,1c1.1-0.5,2.1-0.9,3-1.3c-0.9-0.4-1.8-0.9-2.7-1.3h-0.1c-0.2,0-0.4,0.1-0.5,0.2c-0.7,0.7-1.6,0.9-2.5,0.9
		c-0.4,0-0.9,0-1.4-0.1c1.4-0.7,2.7-1.3,3.6-2.6c-0.7-0.6-1.5-1.2-2.2-1.8c-1.1,2.6-2.8,3.5-4.1,4.2c-0.8-0.8-1.6-1.5-2.4-2.3
		c0.5-1.2,1-2.4,1.5-3.5l-0.1-0.1c-0.4,0.2-0.9,0.3-1.3,0.5c-0.6,0.3-1.3,0.5-1.9,0.8c-0.1,0.1-0.2,0.1-0.3,0.1
		c-0.2,0-0.3-0.1-0.5-0.3c-0.9-0.9-1.7-1.8-2.6-2.7c-0.2,0.1-0.4,0.2-0.5,0.3c-0.8,0.8-1.5,1.5-2.3,2.3C61,58.5,60.8,58.7,60.6,58.7
		 M123.9,9.8H87.8c-2.2,0-4,1.8-4,4v3.1c0,2.2,1.8,4,4,4h0.4h0.4H89h4.5h5.8c0,4.7,0,9.4,0,14.2h-4.6c-2.2,0-4,1.8-4,4v2.5h-7.9
		c-0.9,0-1.8,0.3-2.5,0.8c-1.4-1.7-3.4-2.6-5.7-2.6c-0.2,0-0.4,0-0.6,0c-1.5,0.1-2.9,0.5-4.1,1.3c-0.7-1.8-1.4-3.7-2.2-5.5
		c-0.6-1.5-2.1-2.4-3.7-2.4c-0.3,0-0.6,0-0.9,0.1h-0.2c-1.3,0.3-2.4,1.2-2.8,2.4L58,41c-1.4-0.9-2.8-1.3-4.3-1.3
		c-1,0-2.1,0.2-3.1,0.6c-1.2,0.5-2.1,1.2-2.8,2c-0.7-0.6-1.6-0.9-2.6-0.9h-0.8h-5.1h-2.1c0-0.6,0-1.1,0-1.7c0-0.2,0-0.5,0-0.8v-0.3
		c-0.1-2.1-1.9-3.8-4-3.8h-4.4V20.9h11.3c2.2,0,4-1.8,4-4v-3.1c0-2.2-1.8-4-4-4h-36c-2.2,0-4,1.8-4,4v3.1c0,2.1,1.7,3.9,3.8,4h0.2
		c0.2,0,0.4,0,0.6,0c1.5,0,3,0,4.5,0c0,7.5,0,14.9,0,22.4c0,0.2,0,0.5,0,0.8v0.3c0.1,2.1,1.9,3.8,4,3.8h4.4v3c0,2.2,1.8,4,4,4h7.9
		v2.5c0,2.2,1.8,4,4,4h0.2c-0.6,0.8-0.8,1.7-0.8,2.7v0.1v0.1c0.1,0.6,0.2,1.2,0.5,1.7c-1.9,0.1-3.5,1.5-3.8,3.3
		c-0.2,1.1-0.2,2.2-0.2,3.1h-7.9c-2.2,0-4,1.8-4,4v3.1H13c-2.2,0-4,1.8-4,4v23.1H4.2c-1.9,0-3.6,1.4-3.9,3.3c0,0.1,0,0.2-0.1,0.3
		c-0.1,0.3-0.1,0.7-0.2,1.2c0,0.5,0,1.1,0,1.7v0.1c0,0.7,0.1,2.8,2.2,4c0.7,0.4,1.6,0.6,2.5,0.6c0.2,0,0.4,0,0.6,0h0.1h14.1H39h1.1
		c2.2,0,3.9-1.7,4-3.9v-0.7c0-0.6,0-1.1,0-1.7c0-0.7,0-2.3-1.3-3.6c-1.3-1.3-2.8-1.3-3.6-1.3h-4.3h-6h-0.3c0-4.6,0-9.1,0-13.7v-0.5
		h1h2.7c3,0,4.8-1.8,4.8-4.8v-1.7h8c1,0,1.9-0.3,2.5-0.9c1.4,1.8,3.5,2.9,5.8,2.9c1,0,2-0.2,3-0.6c0.4-0.2,0.8-0.4,1.2-0.6l2.3,5.9
		c0.5,1.4,1.8,2.4,3.3,2.5h0.1h0.1c0.1,0,0.3,0,0.4,0c1.6,0,3.1-1,3.7-2.5l2.4-6l0,0c1.3,0.8,2.8,1.2,4.3,1.2s2.9-0.4,4.1-1.2
		c0.7-0.4,1.3-0.9,1.7-1.5c0.7,0.5,1.5,0.8,2.5,0.8h7.9c0,0.5,0,1.1,0,1.6c0,3,1.8,4.8,4.8,4.8c1.1,0,2.2,0,3.3,0c0.1,0,0.3,0,0.4,0
		v14.1h-11c-2.2,0-4,1.8-4,4c0,0.2,0,0.5,0,0.7c0,0.4,0,0.7,0,0.9c0,0.7-0.2,2.6,1.2,4.1c1.4,1.5,3.3,1.5,4,1.5h8.3
		c4.7,0,9.5,0,14.2,0.1c2.7,0,5.3,0,8,0h3.4c0.2,0,0.3,0,0.4,0c0.6,0,1.2-0.1,1.8-0.4c1.6-0.7,2.7-2.2,2.8-3.9c0-0.8,0-1.6,0-2.4
		v-0.7c0-2.2-1.8-4-4-4h-5.1V83.7c0-2.2-1.8-4-4-4h-4.5v-3.1c0-2.2-1.8-4-4-4h-7.9v-2.5c0-2.2-1.7-3.9-3.9-4
		c0.2-0.3,0.3-0.7,0.4-1.1c0.3-1.2,0-2.4-0.8-3.4h0.3c2.2,0,4-1.8,4-4v-2.5h7.9c2.2,0,4-1.8,4-4V48h4.5c2.2,0,4-1.8,4-4V20.9h5
		c2.2,0,4-1.8,4-4v-3.1C127.9,11.6,126.2,9.8,123.9,9.8L123.9,9.8z M62.2,62.4c0.6-0.2,1.2-0.6,1.7-1.1c0.5,0.5,1,0.8,1.6,1
		c0.2,0.6,0.5,1.1,1,1.5l0.3,0.3l-0.3,0.3c-0.4,0.4-0.7,0.8-0.9,1.3c-0.5,0.2-1.1,0.6-1.5,1L63.8,67c-0.5-0.4-1.1-0.8-1.8-1
		c-0.2-0.6-0.5-1.2-0.9-1.6c-0.1-0.1-0.1-0.1-0.2-0.2l0.5-0.6C61.8,63.2,62,62.8,62.2,62.4L62.2,62.4z"/>
</g>
</svg>
