<?xml version="1.0" encoding="utf-8"?>
<!-- Generator: Adobe Illustrator 21.1.0, SVG Export Plug-In . SVG Version: 6.00 Build 0)  -->
<svg version="1.1" id="Layer_1" xmlns="http://www.w3.org/2000/svg" xmlns:xlink="http://www.w3.org/1999/xlink" x="0px" y="0px"
	 viewBox="0 0 128 128" style="enable-background:new 0 0 128 128;" xml:space="preserve">
<style type="text/css">
	.st0{fill:#EBB242;}
</style>
<g>
	<path class="st0" d="M73.7,4c0,5.2,0,10.4,0,15.8c8.2,0,15.9,0,24.3,0c-0.9,7.7,1.9,15.1-3.9,22.2C82.6,56.1,72,70.9,61.1,85.4
		c-0.1,0.2-0.1,0.5-0.2,1.2c12.8,0,25.5,0,38.4,0c0,7.5,0,14.4,0,21.8c-8.4,0-16.7,0-25.4,0c0,5.4,0,10.4,0,15.6c-6.8,0-13.2,0-20,0
		c0-5,0-9.9,0-15.3c-8.5,0-16.6,0-25.2,0c0.4-7.9-1.5-15.1,4.4-22.1c11.7-14.1,22.4-29,33.5-43.5c0.2-0.3,0.3-0.6,0.6-1.4
		c-11.8,0-23.4,0-35.2,0c0-7.3,0-14.3,0-21.6c7.2,0,14.3,0,21.9,0c0-5.6,0-10.7,0-16C60.4,4,66.8,4,73.7,4 M98.1,19.8L98.1,19.8
		 M73.7,0h-20c-2.2,0-4,1.8-4,4v12H31.8c-2.2,0-4,1.8-4,4v21.6c0,2.2,1.8,4,4,4h27.7c-1.9,2.5-3.8,5.1-5.7,7.6
		C46.2,63.4,38.3,74,30,84c-5.4,6.5-5.3,13.3-5.2,19.4c0,1.7,0,3.4,0,5.1c-0.1,1.1,0.3,2.2,1.1,3c0.8,0.8,1.8,1.3,2.9,1.3H50V124
		c0,2.2,1.8,4,4,4h20c2.2,0,4-1.8,4-4v-11.6h21.4c2.2,0,4-1.8,4-4V86.6c0-2.2-1.8-4-4-4h-31c1.8-2.5,3.7-4.9,5.4-7.3
		c7.6-10.2,15.4-20.8,23.6-30.8c5-6.1,4.8-12.4,4.7-18c-0.1-2.1-0.1-4.2,0.1-6.1c0-0.2,0-0.4,0-0.6c0-2.2-1.8-4-4-4l0,0H77.7V4
		C77.7,1.8,76,0,73.7,0L73.7,0z"/>
</g>
</svg>
