<?xml version="1.0" encoding="utf-8"?>
<!-- Generator: Adobe Illustrator 21.1.0, SVG Export Plug-In . SVG Version: 6.00 Build 0)  -->
<svg version="1.1" id="Layer_1" xmlns="http://www.w3.org/2000/svg" xmlns:xlink="http://www.w3.org/1999/xlink" x="0px" y="0px"
	 viewBox="0 0 128 128" style="enable-background:new 0 0 128 128;" xml:space="preserve">
<style type="text/css">
	.st0{fill:#FFFFFF;}
</style>
<path d="M87.5,128h-47C18.1,128,0,109.9,0,87.5v-47C0,18.1,18.1,0,40.5,0h47C109.9,0,128,18.1,128,40.5v47
	C128,109.9,109.9,128,87.5,128z"/>
<g>
	<path class="st0" d="M44.9,49c0-4.1,0-8.1,0-12.1c0-0.3-0.5-0.8-0.8-1c-2.7-1.9-4-4.4-3.6-7.6c0.4-3.3,2.2-5.6,5.3-6.8
		c3.9-1.4,8.2,0.4,10,4.2c1.7,3.8,0.4,8.2-3.2,10.3c-0.7,0.4-0.9,0.8-0.9,1.5c0,3.4,0,6.8-0.1,10.2c0,0.5,0,1.3,0,1.3
		s0.8,0.2,1.2,0.2c1.4,0.3,2.8,0.7,4.1,1.2c0.4,0.2,0.8,0.4,0.8,0.4s0.6-0.5,0.8-0.6c6.2-5.3,12.5-10.6,18.7-15.9
		c2.7-2.3,5.3-4.5,8-6.8c0.4-0.4,0.7-0.7,0.5-1.4c-0.9-3.8,0.2-7.1,3.2-9.5c3-2.4,6.3-2.8,9.8-1.1c3.4,1.7,5.2,4.5,5.3,8.3
		c0.2,6.6-6.8,11.3-12.9,8.7c-0.7-0.3-1.1-0.2-1.6,0.3C81,39.8,72.6,46.6,64.2,53.4c-0.3,0.3-0.6,0.6-1,0.9
		c10.1,8.4,11.6,23.3,3.3,33.9c2.4,2.9,4.8,5.7,7.3,8.6c0.2,0.2,0.8,0.3,1.2,0.2c4.3-0.8,8.5,1.9,9.5,6.2c1.1,4.3-1.4,8.7-5.7,9.9
		c-3.2,0.9-6,0.2-8.3-2.2c-2.3-2.3-2.9-5.2-1.9-8.3c0.2-0.6,0.2-1-0.3-1.5c-2-2.4-4-4.9-6-7.3c-0.3-0.3-0.6-0.7-0.8-1
		c-13.5,8.9-30.5,2.5-35.7-10.9c-2.8-7.3-2.4-14.4,1.6-21.1C31.4,53.9,37.4,50.2,44.9,49z"/>
</g>
</svg>
