<?xml version="1.0" encoding="utf-8"?>
<!-- Generator: Adobe Illustrator 21.1.0, SVG Export Plug-In . SVG Version: 6.00 Build 0)  -->
<svg version="1.1" id="Layer_1" xmlns="http://www.w3.org/2000/svg" xmlns:xlink="http://www.w3.org/1999/xlink" x="0px" y="0px"
	 viewBox="0 0 128 128" style="enable-background:new 0 0 128 128;" xml:space="preserve">
<style type="text/css">
	.st0{fill:#FFFFFF;}
</style>
<path d="M87.5,128h-47C18.1,128,0,109.9,0,87.5v-47C0,18.1,18.1,0,40.5,0h47C109.9,0,128,18.1,128,40.5v47
	C128,109.9,109.9,128,87.5,128z"/>
<g>
	<path class="st0" d="M34.3,15.2c1.6,1.4,3,2.7,4.5,4c7.6,6.7,15.2,13.5,22.7,20.2c0.3,0.3,0.5,0.6,0.5,1c0,10,0,19.9,0,29.9
		c0,0.5-0.1,0.7-0.6,0.8c-1.1,0.3-2.1,0.8-3.2,1.2c0,0-0.2-0.2-0.3-0.3C50,64.3,42.3,56.6,34.6,48.8c-0.2-0.2-0.3-0.5-0.3-0.7
		c0-10.8,0-21.6,0-32.4C34.2,15.6,34.3,15.5,34.3,15.2z"/>
	<path class="st0" d="M54.8,75.6c-0.4,1.1-0.9,2.4-1.4,3.6c-0.1,0.2-0.3,0.3-0.5,0.3c-0.6,0-1.3,0-1.9,0c-5.3,0-10.6,0-15.9,0
		c-0.2,0-0.5,0-0.8,0c0-8.2,0-16.4,0-24.6C41.1,61.9,48,68.8,54.8,75.6z"/>
	<path class="st0" d="M44.5,104.1c4.5-4.5,8.9-9,13.3-13.4c1.4,0.6,2.7,1.1,4.1,1.7c0,6.2,0,12.5,0,18.9
		C55.3,110.8,49.5,108.4,44.5,104.1z"/>
	<path class="st0" d="M83.6,104.1c-5,4.3-10.8,6.7-17.4,7.2c0-0.3,0-0.5,0-0.7c0-5.9,0-11.8,0-17.6c0-0.5,0.1-0.7,0.6-0.8
		c1.1-0.4,2.1-0.9,3.1-1.3c0.2-0.1,0.5-0.1,0.6,0C74.8,95.2,79.1,99.6,83.6,104.1z"/>
	<path class="st0" d="M34.3,83.7c0.3,0,0.5,0,0.7,0c5.9,0,11.8,0,17.7,0c0.5,0,0.7,0.1,0.9,0.6c0.4,1.1,0.9,2.2,1.3,3.3
		c-4.4,4.4-8.8,8.9-13.3,13.4C37.2,96.1,34.9,90.3,34.3,83.7z"/>
	<path class="st0" d="M83.5,59.1c-4.5,4.5-8.9,9-13.3,13.4c-1.3-0.5-2.6-0.9-3.8-1.4c-0.1-0.1-0.2-0.3-0.3-0.4c0-0.1,0-0.2,0-0.3
		c0-5.9,0-11.7,0-17.6c0-0.2,0-0.4,0-0.7C72.8,52.5,78.5,54.9,83.5,59.1z"/>
	<path class="st0" d="M86.5,62.1c4.3,5,6.7,10.8,7.2,17.4c-6.4,0-12.7,0-18.9,0c-0.6-1.4-1.1-2.7-1.6-3.9
		C77.6,71.1,82,66.7,86.5,62.1z"/>
	<path class="st0" d="M93.8,83.7c-0.5,6.5-2.9,12.2-7,17.1c-4.5-4.5-9-9-13.4-13.5c0.4-1,0.8-2.2,1.2-3.3c0.1-0.2,0.4-0.3,0.6-0.3
		c1.6,0,3.1,0,4.7,0c4.4,0,8.7,0,13.1,0C93.2,83.7,93.4,83.7,93.8,83.7z"/>
</g>
</svg>
