<?xml version="1.0" encoding="utf-8"?>
<!-- Generator: Adobe Illustrator 21.1.0, SVG Export Plug-In . SVG Version: 6.00 Build 0)  -->
<svg version="1.1" id="Layer_1" xmlns="http://www.w3.org/2000/svg" xmlns:xlink="http://www.w3.org/1999/xlink" x="0px" y="0px"
	 viewBox="0 0 128 128" style="enable-background:new 0 0 128 128;" xml:space="preserve">
<style type="text/css">
	.st0{fill:#FFFFFF;}
</style>
<path d="M87.5,128h-47C18.1,128,0,109.9,0,87.5v-47C0,18.1,18.1,0,40.5,0h47C109.9,0,128,18.1,128,40.5v47
	C128,109.9,109.9,128,87.5,128z"/>
<path class="st0" d="M99.7,93.8C99.7,93.8,99.7,93.8,99.7,93.8C99.7,93.8,99.7,93.8,99.7,93.8c0,0,0-0.1,0-0.1l-11-50.2
	c-0.1-0.3-0.2-0.6-0.4-0.8l-22.7-31c-0.4-0.5-1-0.8-1.6-0.8c0,0,0,0,0,0c-0.6,0-1.2,0.3-1.6,0.8l-22.7,31c-0.1,0.1-0.1,0.2-0.2,0.3
	c0,0,0,0,0,0c0,0,0,0,0,0c0,0,0,0,0,0c0,0,0,0,0,0c0,0,0,0,0,0c0,0,0,0,0,0c0,0,0,0,0,0l0,0c0,0,0,0,0,0c0,0,0,0,0,0c0,0,0,0,0,0
	c0,0,0,0,0,0c-0.1,0.2-0.1,0.3-0.2,0.5l-11,50.2c0,0,0,0.1,0,0.1c0,0.3,0,0.6,0,0.8c0,0.1,0.1,0.3,0.1,0.4c0.2,0.3,0.4,0.6,0.7,0.8
	l33.7,21.1c0.3,0.2,0.7,0.3,1.1,0.3c0,0,0,0,0,0c0.4,0,0.7-0.1,1.1-0.3l33.7-21.1c0.3-0.2,0.6-0.5,0.7-0.8l0,0c0,0,0,0,0,0
	c0.1-0.1,0.1-0.2,0.1-0.4c0,0,0,0,0,0C99.8,94.4,99.8,94.1,99.7,93.8z M93,81.6L82.6,63.4l3.8-11.8L93,81.6z M66,18.9l18.5,25.3
	L80,58.6L66,34V18.9z M64,38.6l14.3,25.2l-9,28.3H58.7l-9-28.3L64,38.6z M62,18.9V34L48,58.6l-4.6-14.4L62,18.9z M41.6,51.5
	l3.8,11.8L35,81.6L41.6,51.5z M47,68.5l7.5,23.5H33.7L47,68.5z M37.2,96.1h18.6l4.6,14.6L37.2,96.1z M64,108.7l-4-12.6h8L64,108.7z
	 M67.6,110.7l4.6-14.6h18.6L67.6,110.7z M73.5,92.1L81,68.5l13.3,23.5H73.5z"/>
</svg>
