<?xml version="1.0" encoding="utf-8"?>
<!-- Generator: Adobe Illustrator 21.1.0, SVG Export Plug-In . SVG Version: 6.00 Build 0)  -->
<svg version="1.1" id="Layer_1" xmlns="http://www.w3.org/2000/svg" xmlns:xlink="http://www.w3.org/1999/xlink" x="0px" y="0px"
	 viewBox="0 0 128 128" style="enable-background:new 0 0 128 128;" xml:space="preserve">
<style type="text/css">
	.st0{fill:#FFFFFF;}
</style>
<path d="M87.5,128h-47C18.1,128,0,109.9,0,87.5v-47C0,18.1,18.1,0,40.5,0h47C109.9,0,128,18.1,128,40.5v47
	C128,109.9,109.9,128,87.5,128z"/>
<g>
	<path class="st0" d="M79.6,24.9c-0.1-2.8,2.4-5.4,5.6-5.3c2.8,0.1,5.1,2.5,5.1,5.4c0,3-2.5,5.3-5.6,5.3
		C81.9,30.3,79.6,27.8,79.6,24.9z"/>
	<path class="st0" d="M91,95.4c3,0,5.3,2.3,5.3,5.3c0,3-2.4,5.4-5.4,5.4c-2.9,0-5.3-2.4-5.3-5.4C85.6,97.7,88,95.4,91,95.4z"/>
	<path class="st0" d="M22.4,73.4c-3,0-5.3-2.4-5.3-5.5c0-2.9,2.4-5.2,5.4-5.2c3,0,5.3,2.4,5.3,5.5C27.7,71.1,25.3,73.4,22.4,73.4z"
		/>
	<path class="st0" d="M81.9,39.2c0-2.6,2-4.6,4.6-4.6c2.5,0,4.6,2.1,4.6,4.6c0,2.5-2.1,4.6-4.6,4.6C83.9,43.8,81.9,41.7,81.9,39.2z"
		/>
	<path class="st0" d="M33.9,55.1c2.6,0,4.6,2,4.7,4.5c0,2.5-2.1,4.6-4.6,4.6c-2.5,0-4.6-2.1-4.6-4.6C29.3,57.1,31.4,55.1,33.9,55.1z
		"/>
	<path class="st0" d="M98.4,45.4c-2.5,0-4.6-2.1-4.6-4.6c0-2.6,2.1-4.6,4.6-4.6c2.5,0,4.6,2.1,4.6,4.6C103,43.4,101,45.4,98.4,45.4z
		"/>
	<path class="st0" d="M77.9,99.5c-2.5,0-4.6-2.1-4.6-4.6c0-2.5,2-4.5,4.6-4.6c2.5,0,4.6,2.1,4.6,4.6C82.5,97.4,80.4,99.5,77.9,99.5z
		"/>
	<path class="st0" d="M33.9,48.5c0,2.5-2.1,4.6-4.6,4.6c-2.5,0-4.5-2.1-4.5-4.6c0-2.5,2.1-4.6,4.6-4.6C31.9,43.8,34,45.9,33.9,48.5z
		"/>
	<path class="st0" d="M70.4,109c-2.5,0-4.5-2-4.5-4.6c0-2.5,2-4.5,4.6-4.6c2.5,0,4.6,2.1,4.6,4.6C75,107,73,109,70.4,109z"/>
	<path class="st0" d="M56.9,97.1c0-2.2,1.7-3.9,3.9-3.9c2.2,0,3.9,1.8,3.9,4c0,2.2-1.8,3.9-3.9,3.9C58.6,101.1,56.9,99.3,56.9,97.1z
		"/>
	<path class="st0" d="M100.9,52.9c0,2.2-1.8,3.9-3.9,3.9c-2.1,0-3.9-1.8-3.9-3.9c0-2.2,1.8-4,3.9-3.9C99.1,49,100.9,50.7,100.9,52.9
		z"/>
	<path class="st0" d="M44.4,43.7c0,2.2-1.7,3.9-3.9,3.9c-2.2,0-3.9-1.7-3.9-4c0-2.2,1.7-3.9,3.9-3.9C42.8,39.8,44.5,41.5,44.4,43.7z
		"/>
	<path class="st0" d="M49,54.9c0,2.2-1.7,3.9-3.9,3.9c-2.2,0-3.9-1.7-3.9-3.9c0-2.2,1.7-4,3.9-3.9C47.3,51,49,52.7,49,54.9z"/>
	<path class="st0" d="M35,33.5c0-2.2,1.8-3.9,3.9-3.9c2.2,0,3.9,1.8,3.9,3.9c0,2.2-1.7,3.9-3.9,3.9C36.7,37.4,35,35.7,35,33.5z"/>
	<path class="st0" d="M81.1,51.3c0-2.2,1.7-3.9,3.9-3.9c2.2,0,4,1.8,3.9,4c0,2.2-1.8,3.9-3.9,3.9C82.8,55.1,81.1,53.4,81.1,51.3z"/>
	<path class="st0" d="M68.2,83.7c2.1,0,3.9,1.8,3.9,3.9c0,2.2-1.8,3.9-4,3.9c-2.2,0-3.9-1.7-3.9-3.9C64.3,85.4,66.1,83.7,68.2,83.7z
		"/>
	<path class="st0" d="M56.7,103.6c0,2.2-1.7,3.9-3.9,3.9c-2.2,0-3.9-1.7-3.9-3.9c0-2.2,1.8-4,3.9-3.9C55,99.7,56.7,101.4,56.7,103.6
		z"/>
	<path class="st0" d="M106.5,60.5c-2.1,0-3.8-1.8-3.9-3.9c0-2.2,1.8-3.9,4-3.9c2.1,0,3.9,1.8,3.9,3.9
		C110.5,58.8,108.7,60.5,106.5,60.5z"/>
	<path class="st0" d="M57.5,89.3c0,1.9-1.5,3.4-3.4,3.3c-1.9,0-3.4-1.5-3.4-3.3c0-1.9,1.5-3.4,3.4-3.4C56,85.9,57.5,87.4,57.5,89.3z
		"/>
	<path class="st0" d="M50.7,38.5c1.9,0,3.3,1.5,3.3,3.3c0,1.8-1.5,3.4-3.3,3.4c-1.8,0-3.4-1.5-3.4-3.4C47.4,40,48.9,38.5,50.7,38.5z
		"/>
	<path class="st0" d="M58.2,79.7c0-1.9,1.4-3.4,3.3-3.4c1.9,0,3.4,1.5,3.4,3.3c0,1.9-1.5,3.3-3.3,3.3C59.7,83,58.2,81.6,58.2,79.7z"
		/>
	<path class="st0" d="M46.2,99.1c-1.9,0-3.4-1.4-3.4-3.3c0-1.9,1.5-3.3,3.3-3.4c1.9,0,3.4,1.5,3.4,3.4C49.5,97.6,48,99.1,46.2,99.1z
		"/>
	<path class="st0" d="M84.7,61c0,1.8-1.4,3.3-3.3,3.3c-1.9,0-3.4-1.5-3.3-3.4c0-1.9,1.5-3.3,3.3-3.3C83.3,57.6,84.7,59.1,84.7,61z"
		/>
	<path class="st0" d="M49.1,35c-1.9,0-3.4-1.4-3.4-3.3c0-1.9,1.5-3.4,3.4-3.4c1.8,0,3.3,1.5,3.4,3.4C52.5,33.5,51,35,49.1,35z"/>
	<path class="st0" d="M93.4,66c-1.9,0-3.3-1.5-3.3-3.3c0-1.8,1.5-3.3,3.4-3.3c1.9,0,3.3,1.5,3.3,3.4C96.8,64.6,95.3,66,93.4,66z"/>
	<path class="st0" d="M55.2,56.4c-1.8,0-3.3-1.5-3.3-3.4c0-1.8,1.6-3.3,3.4-3.3c1.9,0,3.3,1.5,3.3,3.4C58.6,55,57.1,56.4,55.2,56.4z
		"/>
	<path class="st0" d="M103,69.6c-1.9-0.1-3.3-1.6-3.3-3.5c0.1-1.8,1.6-3.3,3.4-3.2c1.9,0.1,3.4,1.6,3.3,3.6
		C106.3,68.3,104.8,69.7,103,69.6z"/>
	<path class="st0" d="M64,56.4c-1.6,0-2.9-1.3-2.9-2.9c0-1.6,1.3-2.8,2.9-2.8c1.6,0,2.9,1.3,2.8,2.9C66.9,55.2,65.7,56.4,64,56.4z"
		/>
	<path class="st0" d="M95.4,73.7c0-1.6,1.2-2.9,2.8-2.9c1.6,0,2.9,1.2,2.9,2.9c0,1.6-1.4,3-2.9,3C96.7,76.6,95.4,75.3,95.4,73.7z"/>
	<path class="st0" d="M60.7,32.2c0,1.6-1.2,2.8-2.9,2.8c-1.6,0-2.9-1.3-2.9-2.9c0-1.6,1.3-2.9,3-2.8C59.5,29.3,60.7,30.6,60.7,32.2z
		"/>
	<path class="st0" d="M60.4,71.9c0,1.6-1.2,2.8-2.8,2.9c-1.7,0-2.9-1.3-2.9-2.9c0-1.6,1.3-2.9,2.9-2.9C59.2,69,60.4,70.3,60.4,71.9z
		"/>
	<path class="st0" d="M50.2,84.3c-1.6,0-2.9-1.2-2.9-2.8c0-1.6,1.3-2.9,2.9-2.9c1.5,0,2.8,1.3,2.8,2.8C53,83,51.8,84.3,50.2,84.3z"
		/>
	<path class="st0" d="M91.5,70c0,1.6-1.2,2.9-2.9,2.9c-1.5,0-2.9-1.4-2.9-2.9c0-1.6,1.3-2.9,2.9-2.9C90.3,67.1,91.5,68.4,91.5,70z"
		/>
	<path class="st0" d="M76.7,65.5c1.7,0,2.8,1.2,2.9,2.8c0,1.6-1.2,2.9-2.9,2.9c-1.6,0-2.9-1.3-2.9-2.9C73.8,66.7,75,65.5,76.7,65.5z
		"/>
	<path class="st0" d="M45,87.9c0,1.6-1.3,2.9-2.9,2.9c-1.6,0-2.9-1.3-2.9-2.9c0-1.6,1.3-2.9,2.9-2.9C43.7,85,45,86.3,45,87.9z"/>
	<path class="st0" d="M59.5,45.2c-1.6,0-2.9-1.3-2.9-2.9c0-1.5,1.3-2.9,2.9-2.9c1.5,0,2.9,1.3,2.9,2.9
		C62.4,43.9,61.1,45.2,59.5,45.2z"/>
	<path class="st0" d="M85.8,75.1c0,1.4-1.1,2.5-2.5,2.5c-1.4,0-2.4-1.1-2.4-2.5c0-1.4,1.1-2.5,2.4-2.5
		C84.6,72.7,85.7,73.8,85.8,75.1z"/>
	<path class="st0" d="M58.2,64.6c0,1.4-1.1,2.5-2.4,2.5c-1.3,0-2.5-1.2-2.5-2.5c0-1.3,1.2-2.5,2.5-2.5
		C57.1,62.2,58.2,63.3,58.2,64.6z"/>
	<path class="st0" d="M40.4,78.2c1.4,0,2.5,1.1,2.4,2.5c0,1.3-1.2,2.5-2.5,2.5c-1.4,0-2.5-1.2-2.5-2.6C37.9,79.2,39,78.2,40.4,78.2z
		"/>
	<path class="st0" d="M71.2,58c-1.4,0-2.5-1-2.5-2.4c0-1.4,1-2.5,2.5-2.5c1.4,0,2.5,1.1,2.5,2.4C73.7,57,72.6,58,71.2,58z"/>
	<path class="st0" d="M66.7,41.9c1.4,0,2.4,1.1,2.4,2.5c0,1.4-1.1,2.5-2.4,2.5c-1.4,0-2.5-1.1-2.5-2.5C64.2,43,65.3,41.9,66.7,41.9z
		"/>
	<path class="st0" d="M50.7,74.2c0,1.4-1.1,2.5-2.4,2.5c-1.3,0-2.5-1.2-2.5-2.6c0-1.4,1.1-2.4,2.5-2.4
		C49.7,71.7,50.7,72.8,50.7,74.2z"/>
	<path class="st0" d="M71.3,71.1c1.4,0,2.4,1.1,2.4,2.5c0,1.4-1.1,2.4-2.4,2.4c-1.4,0-2.5-1.1-2.5-2.5
		C68.9,72.1,69.9,71.1,71.3,71.1z"/>
	<path class="st0" d="M95.3,78.8c0,1.4-1,2.5-2.5,2.5c-1.4,0-2.4-1.1-2.4-2.5c0-1.3,1.1-2.5,2.4-2.5C94.2,76.3,95.3,77.4,95.3,78.8z
		"/>
	<path class="st0" d="M65.1,31.8c1.4,0,2.4,1,2.4,2.4c0,1.4-1.1,2.5-2.4,2.5c-1.4,0-2.5-1.1-2.5-2.5C62.6,32.8,63.7,31.8,65.1,31.8z
		"/>
	<path class="st0" d="M72.7,37.3c0,1.2-1,2.1-2.2,2.1c-1.2,0-2.1-1-2.1-2.1c0-1.2,0.9-2.1,2.1-2.1C71.8,35.2,72.7,36.1,72.7,37.3z"
		/>
	<path class="st0" d="M38.1,74.2c0-1.2,0.9-2,2.1-2c1.2,0,2.2,1,2.1,2.2c0,1.1-1,2.1-2.1,2.1C39,76.5,38.1,75.5,38.1,74.2z"/>
	<path class="st0" d="M89.6,82.1c0,1.2-0.9,2.2-2.1,2.2c-1.2,0-2.2-1-2.2-2.1c0-1.2,1-2.1,2.2-2.1C88.7,80,89.6,80.9,89.6,82.1z"/>
	<path class="st0" d="M50.3,67.9c0,1.2-1,2.1-2.1,2.1c-1.2,0-2.1-1-2.1-2.2c0-1.1,1-2.1,2.1-2.1C49.4,65.7,50.3,66.7,50.3,67.9z"/>
	<path class="st0" d="M72.2,49.5c-1.2,0-2.1-0.9-2.1-2.1c0-1.2,0.9-2.1,2.1-2.1c1.2,0,2.1,0.9,2.1,2.1
		C74.3,48.7,73.4,49.5,72.2,49.5z"/>
	<path class="st0" d="M77.9,76.3c1.2,0,2.1,0.9,2.1,2.1c0,1.2-1,2.2-2.2,2.2c-1.1,0-2-1-2-2.1C75.8,77.2,76.7,76.3,77.9,76.3z"/>
	<path class="st0" d="M43.1,69.1c0,1-0.8,1.8-1.8,1.8c-1,0-1.9-0.9-1.9-1.9c0-1,0.9-1.8,1.9-1.8C42.4,67.3,43.1,68,43.1,69.1z"/>
	<path class="st0" d="M84.2,83.8c0,1-0.8,1.8-1.8,1.8c-1,0-1.8-0.9-1.8-1.8c0-1,0.8-1.8,1.9-1.8C83.4,82,84.2,82.8,84.2,83.8z"/>
	<path class="st0" d="M74.5,39.1c1.1,0,1.9,0.7,1.9,1.8c0,1-0.8,1.8-1.8,1.8c-1,0-1.8-0.7-1.8-1.8C72.8,39.9,73.5,39.1,74.5,39.1z"
		/>
</g>
</svg>
