<?xml version="1.0" encoding="utf-8"?>
<!-- Generator: Adobe Illustrator 21.1.0, SVG Export Plug-In . SVG Version: 6.00 Build 0)  -->
<svg version="1.1" id="Layer_1" xmlns="http://www.w3.org/2000/svg" xmlns:xlink="http://www.w3.org/1999/xlink" x="0px" y="0px"
	 viewBox="0 0 128 128" style="enable-background:new 0 0 128 128;" xml:space="preserve">
<style type="text/css">
	.st0{fill:#FFFFFF;}
</style>
<path d="M87.5,128h-47C18.1,128,0,109.9,0,87.5v-47C0,18.1,18.1,0,40.5,0h47C109.9,0,128,18.1,128,40.5v47
	C128,109.9,109.9,128,87.5,128z"/>
<g>
	<path class="st0" d="M102.7,39c0,8.4-6.3,16.5-15.4,17.6c-1.6,0.2-3.3,0.2-4.9,0.5c-5.3,1.1-7.5,7.4-4,11.5
		c1.4,1.7,3.4,2.3,5.6,2.5s4.6,0.4,6.7,1.1c6.8,2.3,10.7,7.2,11.8,14.2c1.5,9.6-4.9,18.1-13.8,20.2c-9.7,2.2-19.8-4.4-21.6-14.2
		c-0.8-4.3,0.1-8.2,2-12c0.8-1.6,1.5-3.2,1.4-5c-0.1-2.9-2-5.4-5-6.4c-2.5-0.9-5.5,0-7.2,2.2c-1.1,1.4-2.1,3-3.2,4.4
		c-4.7,5.6-10.7,7.5-17.7,5.9S25.8,75.4,24,68.4c-2.5-10,3.8-20,13.8-21.9c7.4-1.4,13.5,1,18,7.1c1,1.3,1.8,2.7,2.9,3.9
		c3.7,3.7,10.3,1.9,11.6-3.2c0.5-2,0.1-3.9-0.8-5.6c-1.7-3.2-2.9-6.6-2.8-10.4c0.3-8.6,7.1-15.9,15.5-17c9.5-1.2,18.3,5,20.1,14.6
		C102.5,36.8,102.6,37.9,102.7,39z"/>
</g>
</svg>
