<?xml version="1.0" encoding="utf-8"?>
<!-- Generator: Adobe Illustrator 21.1.0, SVG Export Plug-In . SVG Version: 6.00 Build 0)  -->
<svg version="1.1" id="Layer_1" xmlns="http://www.w3.org/2000/svg" xmlns:xlink="http://www.w3.org/1999/xlink" x="0px" y="0px"
	 viewBox="0 0 128 128" style="enable-background:new 0 0 128 128;" xml:space="preserve">
<style type="text/css">
	.st0{fill:#FFFFFF;}
</style>
<path d="M87.5,128h-47C18.1,128,0,109.9,0,87.5v-47C0,18.1,18.1,0,40.5,0h47C109.9,0,128,18.1,128,40.5v47
	C128,109.9,109.9,128,87.5,128z"/>
<g>
	<g>
		<path class="st0" d="M47.6,29.8c1.3,0,2.7,0.1,4,0.1c1.5,0,3.1,0.1,4.6,0.2c2.5,0.1,5.1,0.2,7.6,0.1c3.2-0.1,5.1-1.8,5.9-5.2
			c0.5-2.1,0-3.8-1.5-5.3c-1.4-1.4-3.3-2.3-5.8-2.7c-1.5-0.3-3.1-0.4-4.6-0.4c-3.9,0-8,0.8-12.9,2.4c-4.3,1.4-8.4,3.9-12.6,7.4
			c-2.2,2-4.3,4.1-6.2,6.3c3.1-1.6,6.4-2.6,10.1-2.9C40,29.5,43.9,29.6,47.6,29.8z"/>
		<path class="st0" d="M63.6,98.1c-4.8,1.3-9.1,1.5-13.1,0.5C39.7,96.1,32.6,89.3,30,79c-2.7-10.4,0.4-19.8,8.9-27.2
			c0.3-0.2,0.5-0.5,0.8-0.7c-0.9-0.1-1.9-0.1-2.8-0.2c-0.6,0-1.2,0-1.8,0c-4,0-7.5,0.8-10.5,2.3c-2.7,1.4-4.3,2.9-5,5
			c-2.5,6.6-3.2,13.3-2.2,19.9c1.8,12,7.9,21.2,18,27.3c11.9,7.3,24.5,7.9,37.5,2c1-0.4,1.9-1,2.9-1.6c-5-2.1-8.2-4.2-11.9-7.7
			C63.8,98.1,63.7,98.1,63.6,98.1z"/>
		<path class="st0" d="M112.9,58.6c-0.2,0.8-0.4,1.6-0.6,2.4c-1.7,5.9-5.1,10.9-8.5,15.3c-2.6,3.4-4.9,6.5-7.1,9.7
			c-1.1,1.6-1.5,3.2-1.2,4.7c0.4,1.8,1.4,3.1,2.7,3.7c1.3,0.5,2.8,0.3,4.2-0.6c1.6-1,2.9-2.3,3.8-3.5c4.7-6.4,7.2-13.6,7.3-21.5
			C113.5,65.7,113.4,62.3,112.9,58.6z"/>
		<path class="st0" d="M21.2,50.2c4.1-2.6,9-3.8,15.1-3.7c6.6,0.1,13.2,1.6,20,4.5c1.4,0.7,2.8,1.4,4.1,2c1.6,0.8,3.3,1.6,5,2.3
			c1.4,0.6,2.8,0.9,4.3,1.1c-0.2-0.5-0.4-1.1-0.4-1.7c-0.2-1.7,0.3-3.4,1.3-4.7c1.1-1.4,3-2.3,4.9-2.3c1.7,0,3.3,0.6,4.5,1.8
			s1.9,2.5,2,3.9c3.5-2.6,5.9-6.6,6.6-11c0.7-4.8-0.9-9.5-4.4-12.7c-2.5-2.4-5.6-4.2-9.7-5.8c-0.1,5-3.6,10.4-10.1,11.1
			c-4.1,0.4-8.2,0.1-12.1-0.2c-0.6-0.1-1.3-0.1-1.9-0.2c-2.6-0.2-5.1-0.4-7.6-0.4c-2.6,0-5.1,0.2-7.7,0.7
			c-7.5,1.5-12.8,4.9-16.5,10.3c-2.4,3.5-3.7,7.8-4.2,12.9C15.8,54.8,18.1,52.2,21.2,50.2z"/>
		<path class="st0" d="M51.6,64.8h0.2c0.5,0,1.1,0.1,1.5,0.2c1.2-2.9,3.2-5.5,6-7.8c-4.1-2.1-7.8-3.5-11.4-4.4c-0.1,0-0.3,0-0.4,0
			c-0.3,0-0.6,0.1-0.8,0.2c-9.3,4.3-14.4,15.4-11.5,25.3c1.7,5.8,5.5,10.5,10.8,13.3c3.6,1.9,7.6,2.7,11.6,2.4l-7.7-19
			c-2.2-0.9-3.2-2.5-3.2-5C46.7,67.1,48.7,64.9,51.6,64.8z"/>
		<path class="st0" d="M100.2,64.8c2,0,3.7,1.1,4.6,2.8c0.5-0.8,1-1.6,1.4-2.4c4.1-8,4.6-16.2,1.4-24.3c-1.1-2.8-2.7-5.5-4.9-8.1
			c2.5,6.1,2.3,12.9-0.8,19.7c-1.6,3.5-3.8,6.7-6.6,9.9c0.2,0.8,0.1,1.5,0,2.1c-0.3,1.2-0.9,2.1-1.7,2.8l-0.2,3.2l1.8-1.4
			C96,65.4,98.6,64.8,100.2,64.8z"/>
		<path class="st0" d="M91.2,93.2c-0.4,0-0.8,0-1.2-0.1c-1.3-0.2-2.7-0.3-4.1-0.4c-0.9-0.1-1.9-0.1-2.8-0.2
			c-1.3-0.1-2.7-0.2-4.5-0.2c-0.8,0-1.6,0-2.4,0c-0.7,0-1.3,0-2,0c-0.5,0-1,0-1.6,0.1c1.3,3.3,4.2,5.6,5.8,6.7
			c4.5,3.1,10.5,2.3,16.3-2c-1.3-1.2-2.2-2.5-2.8-3.9C91.7,93.2,91.4,93.2,91.2,93.2z"/>
		<path class="st0" d="M89.1,65.2c-2.3,3.9-4.3,8-6.8,12c-1.9-6.8-3.8-13.5-5.6-20.1c2.1-2.1,2.3-3.5,0.9-5c-0.5-0.5-1.3-0.8-2-0.8
			c-0.8,0-1.7,0.3-2.1,0.9c-1.1,1.4-0.7,3.3,1.1,4.7c-1.7,6.4-3.5,12.9-5.4,19.5c-2.2-3.9-4.3-7.6-6.3-11.3c0.8-1.3,0.8-2.3,0-2.9
			c-0.3-0.2-0.6-0.3-0.9-0.3c-0.6,0-1.2,0.2-1.4,0.7c-0.2,0.5-0.2,1.1-0.2,1.6c0,0.9,1,0.7,1.5,1.2c0.1,2.4,0.2,4.7,0.4,7.1
			c0,0.6,0.2,1.2,0.2,1.8c0.1,1.2,0.2,2.4,0,3.8c-3.1-2.4-6.1-4.8-9-7.1c0-0.4,0-0.7,0-1c-0.1-1-0.7-1.6-1.8-1.6
			c-0.9,0-1.4,0.6-1.4,1.6s0.2,1.4,1.2,1.7c0.3,0.1,0.7,0.1,1.1,0.2C55,78,57.5,84,60,90.2c1-0.2,1.9-0.3,2.8-0.4
			c1.9-0.3,3.8-0.6,5.7-0.7c1.9-0.1,3.8-0.5,5.7-0.5c1.5,0,2.9,0,4.4,0c1.6,0,3.3,0,4.9,0.2c2.4,0.2,4.7,0.3,7.1,0.7
			c0.2,0,0.4,0,0.7,0c0.4,0,0.8,0,1.1,0c2.4-5.9,4.7-11.8,7-17.6c1.8-0.4,2.4-0.9,2.3-2c-0.1-0.9-0.7-1.5-1.6-1.5
			c-1.1,0-1.5,0.6-1.6,2.6c-3,2.4-6,4.8-9.2,7.3c0.3-4.4,0.5-8.6,0.8-12.8c1.7-1.1,2-1.8,1.4-2.7c-0.3-0.5-1-0.8-1.5-0.8
			c-0.3,0-0.5,0.1-0.7,0.2C88.4,62.7,88.4,63.9,89.1,65.2z"/>
	</g>
</g>
</svg>
